<svg xmlns="http://www.w3.org/2000/svg" version="1.1" xmlns:xlink="http://www.w3.org/1999/xlink" xmlns:svgjs="http://svgjs.dev/svgjs" width="2000" height="227" viewBox="0 0 2000 227"><g transform="matrix(1,0,0,1,-1.2121212121212466,-1.909959324582502)"><svg viewBox="0 0 396 45" data-background-color="#efefef" preserveAspectRatio="xMidYMid meet" height="227" width="2000" xmlns="http://www.w3.org/2000/svg" xmlns:xlink="http://www.w3.org/1999/xlink"><g id="tight-bounds" transform="matrix(1,0,0,1,0.2400000000000091,0.3786262978247237)"><svg viewBox="0 0 395.52 44.24274740435054" height="44.24274740435054" width="395.52"><g><svg viewBox="0 0 456.36023538576364 51.04831770722668" height="44.24274740435054" width="395.52"><g transform="matrix(1,0,0,1,0,7.055158235948117)"><svg viewBox="0 0 395.52 36.93800123533045" height="36.93800123533045" width="395.52"><g id="textblocktransform"><svg viewBox="0 0 395.52 36.93800123533045" height="36.93800123533045" width="395.52" id="textblock"><g><svg viewBox="0 0 395.52 36.93800123533045" height="36.93800123533045" width="395.52"><g transform="matrix(1,0,0,1,0,0)"><svg width="395.52" viewBox="1.15 -37.1 407.26000000000005 37.800000000000004" height="36.93800123533045" data-palette-color="#27d96a"><g class="wordmark-text-0" data-fill-palette-color="primary" id="text-0"><path d="M16.2 0.55Q11.55 0.55 8.15-1.35 4.75-3.25 2.95-6.83 1.15-10.4 1.15-15.35L1.15-15.35Q1.15-23.65 5.83-28.23 10.5-32.8 19.05-32.8L19.05-32.8Q21.05-32.8 23.28-32.52 25.5-32.25 27.05-31.95 28.6-31.65 29.05-31.55L29.05-31.55 29.5-30.75Q29.4-30.4 29.13-29.13 28.85-27.85 28.55-25.73 28.25-23.6 28.1-21.15L28.1-21.15 22.05-20.8Q22.05-21 22.1-21.73 22.15-22.45 22.15-23.55L22.15-23.55Q22.15-25.55 21.18-26.33 20.2-27.1 17.8-27.1L17.8-27.1Q13.9-27.1 12.15-24.75 10.4-22.4 10.4-17.1L10.4-17.1Q10.4-11.15 12.2-8.13 14-5.1 17.45-5.1L17.45-5.1Q18.55-5.1 19.43-5.33 20.3-5.55 20.78-5.78 21.25-6 21.35-6.1L21.35-6.1 21.35-10.15Q21.35-11.5 20.95-11.95 20.55-12.4 19.4-12.4L19.4-12.4 17.2-12.35 16.85-12.9 17.45-16.95 24.7-16.9Q26.3-16.9 27.98-17 29.65-17.1 30.15-17.15L30.15-17.15 30.55-14.8Q29.5-14.2 29.03-13.38 28.55-12.55 28.4-11.03 28.25-9.5 28.25-6.3L28.25-6.3Q28.25-3.35 28.6-2L28.6-2 28.1-1.3Q28.1-1.25 26.48-0.75 24.85-0.25 22.2 0.15 19.55 0.55 16.2 0.55L16.2 0.55ZM34.2-3.4Q35.65-3.5 36.2-4.15 36.75-4.8 36.75-6.45L36.75-6.45 36.75-15.85Q36.75-17.6 36.3-18.2 35.85-18.8 34.5-18.8L34.5-18.8 33.6-18.75 33.35-19.1 33.7-22.15Q36.8-22.6 39.92-23.18 43.05-23.75 43.95-23.9L43.95-23.9 44.5-23.4Q44.4-23 44.17-21.63 43.95-20.25 43.9-18.95L43.9-18.95 44.25-18.75Q45.85-21.05 47.65-22.28 49.45-23.5 51.3-23.5L51.3-23.5Q51.85-23.5 52.4-23.43 52.95-23.35 53.1-23.3L53.1-23.3 53.3-22.85Q53.15-21.9 52.75-18.75 52.35-15.6 52.2-12.75L52.2-12.75 48.35-12.5Q48.35-15.05 48.05-15.9 47.75-16.75 46.9-16.75L46.9-16.75Q46.25-16.75 45.55-16.32 44.85-15.9 44.2-15.15L44.2-15.15Q44.1-13.8 43.92-10.7 43.75-7.6 43.7-5.8L43.7-5.8Q43.7-4.7 44.1-4.25 44.5-3.8 45.45-3.8L45.45-3.8Q46.3-3.8 47.07-3.88 47.85-3.95 48.1-4L48.1-4 48.3-3.65 47.7 0.25Q46.95 0.2 44.52 0.1 42.1 0 40.5 0L40.5 0Q38.55 0 36.45 0.1 34.35 0.2 33.7 0.25L33.7 0.25 34.2-3.4ZM66.15 0.6Q61.15 0.6 58.17-2.55 55.2-5.7 55.2-11L55.2-11Q55.2-14.9 56.72-17.82 58.25-20.75 61.02-22.33 63.8-23.9 67.5-23.9L67.5-23.9Q72.65-23.9 75.55-20.85 78.45-17.8 78.45-12.3L78.45-12.3Q78.45-8.4 76.95-5.48 75.45-2.55 72.65-0.98 69.85 0.6 66.15 0.6L66.15 0.6ZM67-3.85Q68.8-3.85 69.62-5.25 70.45-6.65 70.45-9.8L70.45-9.8Q70.45-14.55 69.47-16.73 68.5-18.9 66.5-18.9L66.5-18.9Q64.7-18.9 63.87-17.5 63.05-16.1 63.05-13.05L63.05-13.05Q63.05-8.2 64.02-6.03 65-3.85 67-3.85L67-3.85ZM87.24 0.7Q86.64-1.6 84.92-8.3 83.19-15 82.54-17.2L82.54-17.2Q82.14-18.45 81.42-19.05 80.69-19.65 79.59-19.7L79.59-19.7 79.49-19.95 79.84-23.4Q80.34-23.4 81.82-23.35 83.29-23.3 84.84-23.3L84.84-23.3Q86.94-23.3 89.14-23.45 91.34-23.6 91.99-23.65L91.99-23.65 92.09-23.4 91.64-19.85Q90.19-19.65 89.84-19.45 89.49-19.25 89.49-18.55L89.49-18.55Q89.49-17.7 90.52-12.88 91.54-8.05 91.94-6.35L91.94-6.35 92.59-6.35Q93.09-7.6 94.32-11.83 95.54-16.05 96.09-18.15L96.09-18.15Q95.89-19.05 95.44-19.35 94.99-19.65 93.69-19.65L93.69-19.65 93.54-19.95 93.99-23.4Q94.49-23.4 95.94-23.35 97.39-23.3 98.94-23.3L98.94-23.3Q101.09-23.3 103.19-23.43 105.29-23.55 105.89-23.6L105.89-23.6 105.99-23.35 105.49-19.85Q104.04-19.6 103.69-19.4 103.34-19.2 103.34-18.55L103.34-18.55Q103.34-17.75 104.39-12.9 105.44-8.05 105.84-6.35L105.84-6.35 106.49-6.35Q110.14-17.4 110.14-18.75L110.14-18.75Q110.14-19.3 109.87-19.48 109.59-19.65 108.79-19.65L108.79-19.65 107.64-19.65 107.44-20 107.89-23.4Q108.44-23.4 110.02-23.35 111.59-23.3 113.39-23.3L113.39-23.3 118.14-23.35 117.74-19.7Q116.59-19.55 116.17-19.13 115.74-18.7 115.24-17.2L115.24-17.2 109.49 0 101.49 0.7Q101.24-0.9 99.99-6.35L99.99-6.35 99.04-10.65 98.34-10.65 95.44 0 87.24 0.7ZM127.99 0.6Q120.84 0.6 120.84-5.6L120.84-5.6 120.84-16.15Q120.84-17.8 120.32-18.35 119.79-18.9 118.19-18.95L118.19-18.95 117.59-19.35 117.94-22.25Q120.09-23.25 122.22-24.55 124.34-25.85 125.74-26.8 127.14-27.75 127.49-28.05L127.49-28.05 129.09-27.15Q129.04-26.85 128.84-25.58 128.64-24.3 128.44-22.5L128.44-22.5 133.59-22.65 133.84-22.4 133.29-18.6 128.09-18.75Q127.84-14.25 127.84-8.75L127.84-8.75Q127.84-6.85 128.52-5.95 129.19-5.05 130.69-5.05L130.69-5.05Q131.49-5.05 132.34-5.3 133.19-5.55 133.44-5.65L133.44-5.65 134.14-3.85Q133.79-3.5 132.64-2.45 131.49-1.4 130.14-0.4 128.79 0.6 127.99 0.6L127.99 0.6ZM135.39-3.4Q136.69-3.55 137.16-4.13 137.64-4.7 137.64-6.05L137.64-6.05 137.64-29.2Q137.64-30.85 137.19-31.43 136.74-32 135.44-32L135.44-32 134.24-32 133.99-32.3 134.34-35.4Q142.34-36.5 145.94-37.1L145.94-37.1 146.34-36Q145.79-35.4 145.39-31.13 144.99-26.85 144.79-19.4L144.79-19.4Q146.69-21.3 148.46-22.6 150.24-23.9 151.04-23.9L151.04-23.9Q154.89-23.9 156.91-22.23 158.94-20.55 158.94-17.4L158.94-17.4Q158.94-16.45 158.44-11.85L158.44-11.85Q158.34-11 158.11-8.78 157.89-6.55 157.89-5.65L157.89-5.65Q157.89-4.5 158.21-4.03 158.54-3.55 159.39-3.55L159.39-3.55 160.79-3.6 160.89-3.4 160.39 0.2Q156.89 0 154.49 0L154.49 0Q152.39 0 148.69 0.3L148.69 0.3 149.04-3.35Q150.14-3.55 150.59-4.17 151.04-4.8 151.09-5.95L151.09-5.95 151.24-13.85Q151.29-15.95 150.61-16.88 149.94-17.8 148.49-17.8L148.49-17.8Q147.79-17.8 146.79-17.35 145.79-16.9 144.74-16.1L144.74-16.1Q144.69-13.6 144.69-5.55L144.69-5.55Q144.69-4.45 144.99-4 145.29-3.55 146.04-3.55L146.04-3.55 147.04-3.65 147.19-3.3 146.64 0.2Q143.24 0 140.84 0L140.84 0Q138.74 0 134.94 0.2L134.94 0.2 135.39-3.4ZM162.99 0.35L163.39-3.3Q164.84-3.45 165.46-4.1 166.09-4.75 166.09-6.1L166.09-6.1 166.09-16.9Q166.04-18.05 165.41-18.43 164.79-18.8 162.84-18.9L162.84-18.9 162.64-19.2 162.99-22.15 166.09-22.65 166.09-23.15Q166.09-27.4 167.71-30.55 169.34-33.7 172.29-35.4 175.24-37.1 179.19-37.1L179.19-37.1Q180.74-37.1 182.01-36.85 183.29-36.6 184.04-36.35 184.79-36.1 184.99-36L184.99-36 185.24-35.05Q185.09-34.65 184.59-33.33 184.09-32 183.44-30.1L183.44-30.1 182.79-29.9Q182.64-30.05 181.96-30.5 181.29-30.95 180.16-31.38 179.04-31.8 177.74-31.8L177.74-31.8Q176.04-31.8 175.11-31.15 174.19-30.5 173.76-28.98 173.34-27.45 173.34-24.75L173.34-24.75 173.29-22.5Q175.54-22.5 177.29-22.55 179.04-22.6 179.49-22.65L179.49-22.65 179.69-22.4 179.19-18.6Q178.74-18.65 177.09-18.7 175.44-18.75 173.24-18.75L173.24-18.75 173.19-6Q173.19-4.9 173.64-4.38 174.09-3.85 175.04-3.85L175.04-3.85Q176.09-3.85 176.94-3.9 177.79-3.95 178.09-3.95L178.09-3.95 178.29-3.7 177.79 0.2Q176.89 0.15 174.56 0.08 172.24 0 170.09 0L170.09 0Q168.29 0 165.99 0.15 163.69 0.3 162.99 0.35L162.99 0.35ZM179.63 0.35L180.08-3.25Q181.53-3.55 181.96-4.23 182.38-4.9 182.38-6.7L182.38-6.7 182.38-29.2Q182.38-30.55 182.16-31.13 181.93-31.7 181.26-31.88 180.58-32.05 178.98-32L178.98-32 178.73-32.3 179.08-35.4Q185.73-36.25 190.68-37.1L190.68-37.1 191.08-36Q189.43-31.65 189.43-5.45L189.43-5.45Q189.43-4.35 189.73-3.93 190.03-3.5 190.73-3.5L190.73-3.5 192.38-3.55 192.53-3.25 191.98 0.2Q187.68 0 185.58 0L185.58 0Q183.33 0 179.63 0.35L179.63 0.35ZM205.58 0.6Q200.03 0.6 196.96-2.53 193.88-5.65 193.88-11.2L193.88-11.2Q193.88-14.85 195.43-17.75 196.98-20.65 199.76-22.28 202.53-23.9 206.08-23.9L206.08-23.9Q214.98-23.9 214.98-14.75L214.98-14.75Q214.98-13.2 214.63-11.7L214.63-11.7 214.03-11.15 201.58-11.15Q201.68-8.15 203.21-6.58 204.73-5 207.38-5L207.38-5Q210.03-5 213.23-6.45L213.23-6.45 213.68-6.25 214.58-3.25Q212.68-1.8 210.13-0.6 207.58 0.6 205.58 0.6L205.58 0.6ZM201.48-14.35L207.13-14.7Q207.63-14.8 207.78-14.98 207.93-15.15 207.93-15.75L207.93-15.75Q207.93-19.25 205.23-19.25L205.23-19.25Q201.68-19.25 201.48-14.35L201.48-14.35ZM228.63 0.25L228.43 0 228.83-2.9Q229.83-2.95 230.23-3.13 230.63-3.3 230.63-3.75L230.63-3.75Q230.63-4.2 230.08-4.95L230.08-4.95 227.43-8.55Q227.18-8.2 226.3-7.1 225.43-6 224.93-5.2 224.43-4.4 224.43-4L224.43-4Q224.43-3.45 224.8-3.23 225.18-3 226.13-2.95L226.13-2.95 226.28-2.65 225.93 0.2Q225.28 0.15 223.63 0.08 221.98 0 220.68 0L220.68 0Q219.58 0 218.18 0.08 216.78 0.15 216.38 0.2L216.38 0.2 216.18-0.25 216.58-3.05Q217.33-3.4 218.18-4.25 219.03-5.1 220.93-7.4L220.93-7.4 224.83-12.05 221.63-16.4Q220.38-18.15 219.3-18.85 218.23-19.55 216.63-19.85L216.63-19.85 216.48-20.05 216.83-23.35Q217.33-23.35 218.95-23.33 220.58-23.3 223.03-23.3L223.03-23.3Q225.03-23.3 227.05-23.4 229.08-23.5 229.68-23.55L229.68-23.55 229.88-23.2 229.58-20.15Q227.83-20.15 227.83-19.2L227.83-19.2Q227.83-18.65 228.08-18.18 228.33-17.7 228.88-16.95L228.88-16.95 230.63-14.6 232.63-17.35Q232.73-17.5 233.05-17.95 233.38-18.4 233.53-18.73 233.68-19.05 233.68-19.35L233.68-19.35Q233.68-19.75 233.33-19.93 232.98-20.1 232.08-20.1L232.08-20.1 231.98-20.3 232.23-23.3 237.13-23.3Q238.68-23.3 239.93-23.35 241.18-23.4 241.63-23.45L241.63-23.45 241.78-23.15 241.53-19.95Q238.78-18.35 237.18-16.25L237.18-16.25 233.38-11.1 236.88-6.5Q238.18-4.8 239.23-4.03 240.28-3.25 241.68-3.15L241.68-3.15 241.83-3 241.33 0.1Q240.78 0.1 239.28 0.05 237.78 0 236.38 0L236.38 0Q234.38 0 231.98 0.1 229.58 0.2 228.63 0.25L228.63 0.25Z" fill="#27d96a" data-fill-palette-color="primary"></path><path d="M260.88 0.6Q258.43 0.6 256.38 0.15 254.33-0.3 252.98-0.83 251.63-1.35 251.63-1.4L251.63-1.4 251.13-2.2Q251.18-2.55 251.38-3.75 251.58-4.95 251.8-6.93 252.03-8.9 252.08-10.6L252.08-10.6 257.13-10.95Q257.13-7.45 258.28-6.1 259.43-4.75 262.18-4.75L262.18-4.75Q264.18-4.75 265.38-5.58 266.58-6.4 266.58-7.85L266.58-7.85Q266.58-9.35 265.15-10.35 263.73-11.35 260.73-12.7L260.73-12.7Q260.33-12.9 259.95-13.08 259.58-13.25 259.28-13.4L259.28-13.4Q255.68-15.1 253.58-17.15 251.48-19.2 251.48-22.5L251.48-22.5Q251.48-25.5 253.28-27.85 255.08-30.2 258.3-31.5 261.53-32.8 265.68-32.8L265.68-32.8Q267.98-32.8 269.98-32.5 271.98-32.2 273.18-31.88 274.38-31.55 274.68-31.45L274.68-31.45 275.13-30.6Q275.08-30.3 274.85-29.15 274.63-28 274.33-25.98 274.03-23.95 273.88-21.95L273.88-21.95 269.23-21.6 268.73-22 268.78-23.35Q268.78-25.35 267.73-26.25 266.68-27.15 264.43-27.15L264.43-27.15Q262.63-27.15 261.48-26.33 260.33-25.5 260.33-24.15L260.33-24.15Q260.33-23.05 261.18-22.2 262.03-21.35 263.18-20.73 264.33-20.1 266.78-19L266.78-19Q269.48-17.8 271.28-16.7 273.08-15.6 274.3-13.85 275.53-12.1 275.53-9.65L275.53-9.65Q275.53-6.55 273.73-4.23 271.93-1.9 268.63-0.65 265.33 0.6 260.88 0.6L260.88 0.6ZM287.33 0.6Q280.18 0.6 280.18-5.6L280.18-5.6 280.18-16.15Q280.18-17.8 279.65-18.35 279.13-18.9 277.53-18.95L277.53-18.95 276.93-19.35 277.28-22.25Q279.43-23.25 281.55-24.55 283.68-25.85 285.08-26.8 286.48-27.75 286.83-28.05L286.83-28.05 288.43-27.15Q288.38-26.85 288.18-25.58 287.98-24.3 287.78-22.5L287.78-22.5 292.93-22.65 293.18-22.4 292.63-18.6 287.43-18.75Q287.18-14.25 287.18-8.75L287.18-8.75Q287.18-6.85 287.85-5.95 288.53-5.05 290.03-5.05L290.03-5.05Q290.83-5.05 291.68-5.3 292.53-5.55 292.78-5.65L292.78-5.65 293.48-3.85Q293.13-3.5 291.98-2.45 290.83-1.4 289.48-0.4 288.13 0.6 287.33 0.6L287.33 0.6ZM297.02-16.6Q297.02-17.85 296.67-18.35 296.32-18.85 295.47-18.85L295.47-18.85Q295.02-18.85 294.65-18.8 294.27-18.75 294.17-18.75L294.17-18.75 294.52-22.2Q297.47-22.6 300.57-23.15 303.67-23.7 304.57-23.9L304.57-23.9 305.12-22.95Q304.57-21.75 304.17-17.73 303.77-13.7 303.77-9.2L303.77-9.2Q303.77-5.55 306.47-5.55L306.47-5.55Q307.22-5.55 308.02-5.9 308.82-6.25 309.92-6.95L309.92-6.95 309.92-16.5Q309.92-17.9 309.55-18.32 309.17-18.75 307.92-18.8L307.92-18.8 307.22-18.8 307.72-22.2Q310.67-22.55 313.8-23.08 316.92-23.6 317.82-23.75L317.82-23.75 318.42-22.8Q317.77-21.65 317.35-17.18 316.92-12.7 316.92-7.25L316.92-7.25Q316.92-6.4 317.37-5.88 317.82-5.35 318.57-5.35L318.57-5.35Q319.22-5.35 319.92-5.65 320.62-5.95 320.62-6L320.62-6 321.42-4.85Q321.22-4.5 320.37-3.35 319.52-2.2 318.27-1 317.02 0.2 315.82 0.6L315.82 0.6Q311.02 0.6 310.42-3.15L310.42-3.15 309.97-3.4Q308.22-1.6 306.87-0.53 305.52 0.55 305.02 0.55L305.02 0.55Q300.92 0.55 298.8-1.13 296.67-2.8 296.67-5.95L296.67-5.95 297.02-16.6ZM342.82 0.6Q340.52 0.6 339.17-0.33 337.82-1.25 337.57-3L337.57-3 337.22-3.15Q332.52 0.4 331.67 0.4L331.67 0.4Q327.27 0.4 324.75-2.58 322.22-5.55 322.22-10.75L322.22-10.75Q322.22-14.6 323.82-17.53 325.42-20.45 328.3-22.08 331.17-23.7 334.92-23.7L334.92-23.7Q336.32-23.7 336.97-23.65L336.97-23.65 336.97-29.05Q336.97-30.7 336.52-31.3 336.07-31.9 334.77-31.9L334.77-31.9Q334.42-31.9 334.07-31.85 333.72-31.8 333.57-31.8L333.57-31.8 333.97-35.35Q337.32-35.75 340.75-36.33 344.17-36.9 345.17-37.1L345.17-37.1 345.67-36.15Q344.97-35.15 344.5-26.85 344.02-18.55 344.02-7.25L344.02-7.25Q344.02-6.4 344.4-5.88 344.77-5.35 345.42-5.35L345.42-5.35Q346.07-5.35 346.65-5.63 347.22-5.9 347.37-6L347.37-6 348.17-4.85Q348.17-4.75 347.35-3.53 346.52-2.3 345.35-1.07 344.17 0.15 342.82 0.6L342.82 0.6ZM334.02-5Q334.72-5 335.37-5.25 336.02-5.5 336.45-5.78 336.87-6.05 336.97-6.15L336.97-6.15 336.97-18.2Q336.87-18.25 336.47-18.43 336.07-18.6 335.4-18.75 334.72-18.9 333.92-18.9L333.92-18.9Q332.02-18.9 330.97-17.3 329.92-15.7 329.92-12.7L329.92-12.7Q329.92-9 331-7 332.07-5 334.02-5L334.02-5ZM348.87 0.55L349.37-3.2Q350.82-3.4 351.52-4.13 352.22-4.85 352.22-6.25L352.22-6.25 352.22-16.05Q352.22-17.7 351.74-18.3 351.27-18.9 349.97-18.9L349.97-18.9Q349.62-18.9 349.27-18.82 348.92-18.75 348.82-18.7L348.82-18.7 349.17-22.15Q352.42-22.55 355.67-23.13 358.92-23.7 359.87-23.9L359.87-23.9 360.42-22.95Q359.87-21.85 359.54-17.18 359.22-12.5 359.22-5.45L359.22-5.45Q359.22-4.4 359.52-3.98 359.82-3.55 360.62-3.55L360.62-3.55Q361.02-3.55 361.42-3.6 361.82-3.65 361.97-3.65L361.97-3.65 362.07-3.45 361.57 0.2Q360.92 0.15 359.14 0.08 357.37 0 355.47 0L355.47 0Q353.82 0 351.67 0.23 349.52 0.45 348.87 0.55L348.87 0.55ZM355.27-27.3Q353.32-27.3 352.27-28.38 351.22-29.45 351.22-31.35L351.22-31.35Q351.22-33.4 352.44-34.65 353.67-35.9 355.67-35.9L355.67-35.9Q357.57-35.9 358.62-34.8 359.67-33.7 359.67-31.8L359.67-31.8Q359.67-29.75 358.47-28.53 357.27-27.3 355.27-27.3L355.27-27.3ZM375.32 0.6Q370.32 0.6 367.34-2.55 364.37-5.7 364.37-11L364.37-11Q364.37-14.9 365.89-17.82 367.42-20.75 370.19-22.33 372.97-23.9 376.67-23.9L376.67-23.9Q381.82-23.9 384.72-20.85 387.62-17.8 387.62-12.3L387.62-12.3Q387.62-8.4 386.12-5.48 384.62-2.55 381.82-0.98 379.02 0.6 375.32 0.6L375.32 0.6ZM376.17-3.85Q377.97-3.85 378.79-5.25 379.62-6.65 379.62-9.8L379.62-9.8Q379.62-14.55 378.64-16.73 377.67-18.9 375.67-18.9L375.67-18.9Q373.87-18.9 373.04-17.5 372.22-16.1 372.22-13.05L372.22-13.05Q372.22-8.2 373.19-6.03 374.17-3.85 376.17-3.85L376.17-3.85ZM397.61 0.6Q395.76 0.6 394.19 0.28 392.61-0.05 391.71-0.43 390.81-0.8 390.56-0.9L390.56-0.9 390.16-1.5Q390.41-3.15 390.91-8L390.91-8 394.21-8.3Q394.26-6.15 395.36-4.95 396.46-3.75 398.41-3.75L398.41-3.75Q399.61-3.75 400.39-4.25 401.16-4.75 401.16-5.55L401.16-5.55Q401.16-6.45 400.26-7.13 399.36-7.8 396.56-9.1L396.56-9.1Q393.51-10.4 392.14-12.05 390.76-13.7 390.76-15.95L390.76-15.95Q390.76-18.3 392.14-20.1 393.51-21.9 395.99-22.9 398.46-23.9 401.66-23.9L401.66-23.9Q403.21-23.9 404.54-23.7 405.86-23.5 406.61-23.28 407.36-23.05 407.56-22.95L407.56-22.95 407.91-22.3Q407.81-21.75 407.49-19.75 407.16-17.75 406.96-15.65L406.96-15.65 403.61-15.45 403.66-16.05Q403.61-17.75 402.86-18.57 402.11-19.4 400.51-19.4L400.51-19.4Q399.36-19.4 398.64-18.9 397.91-18.4 397.91-17.55L397.91-17.55Q397.91-16.7 398.61-16.03 399.31-15.35 400.86-14.65L400.86-14.65Q403.91-13.3 405.51-12.18 407.11-11.05 407.76-9.88 408.41-8.7 408.41-7.05L408.41-7.05Q408.41-4.9 407.01-3.15 405.61-1.4 403.14-0.4 400.66 0.6 397.61 0.6L397.61 0.6Z" fill="#d94e28" data-fill-palette-color="secondary"></path></g></svg></g></svg></g></svg></g></svg></g><g transform="matrix(1,0,0,1,404.24017557963185,0)"><svg viewBox="0 0 52.1200598061318 51.04831770722668" height="51.04831770722668" width="52.1200598061318"><g><svg xmlns="http://www.w3.org/2000/svg" xmlns:xlink="http://www.w3.org/1999/xlink" version="1.1" x="0" y="0" viewBox="4.8500000000000005 4.600606552212078 91.46816878534678 89.58731355299184" style="enable-background:new 0 0 100 100;" xml:space="preserve" height="51.04831770722668" width="52.1200598061318" class="icon-icon-0" data-fill-palette-color="accent" id="icon-0"><g fill="#e1fd02" data-fill-palette-color="accent"><g fill="#e1fd02" data-fill-palette-color="accent"><path d="M5 93.9C52.7 98.1 91.8 55.7 90.4 9.2 90.3 7.4 88 6.7 87 8.3 81.8 17 76.5 25.6 70.9 34.1 69.8 35.8 72.3 37.7 73.7 36.3 82 27.9 88 17.9 91.6 6.7 90.5 6.5 89.3 6.4 88.2 6.2 88.9 12 89.6 17.9 90.5 23.7 91.3 29.3 91.7 35.5 94 40.8 94.5 42 96.2 41.3 96.3 40.2 96.5 35.1 95 29.8 94.2 24.7 93.3 18.6 92.5 12.4 91.7 6.3 91.5 4.4 88.9 3.9 88.3 5.8 84.9 16.4 79.1 25.8 71.2 33.7 72.1 34.4 73.1 35.1 74 35.9 79.6 27.4 85 18.9 90.2 10.1 89.1 9.8 87.9 9.5 86.8 9.2 87.6 31.1 79.6 52.9 64.2 68.6 48.6 84.5 27 92.6 5 93.6 4.8 93.6 4.8 93.9 5 93.9" fill="#e1fd02" data-fill-palette-color="accent"></path></g></g></svg></g></svg></g></svg></g><defs></defs></svg><rect width="395.52" height="44.24274740435054" fill="none" stroke="none" visibility="hidden"></rect></g></svg></g></svg>