<?xml version="1.0" encoding="UTF-8"?>
<svg xmlns="http://www.w3.org/2000/svg" id="a" width="865.76" height="682.89" viewBox="0 0 865.76 682.89">
  <rect x="26.63" y="34.52" width="812.5" height="377.62" fill="#e3e4e5" stroke="#231f20" stroke-miterlimit="10"></rect>
  <rect x="40.66" y="50.04" width="783.45" height="346.15" fill="#fff" stroke="#231f20" stroke-miterlimit="10"></rect>
  <polygon points="104.75 50.04 91.29 93.37 96.92 93.37 116.19 50.04 104.75 50.04" fill="#fff" stroke="#231f20" stroke-miterlimit="10"></polygon>
  <polygon points="89.42 100.87 143.77 241.44 149.4 241.44 98.79 100.87 89.42 100.87" fill="#fff" stroke="#231f20" stroke-miterlimit="10"></polygon>
  <rect x="177.51" y="258.31" width="20.62" height="5.62" fill="#e3e4e5" stroke="#231f20" stroke-miterlimit="10"></rect>
  <ellipse cx="202.81" cy="198.33" rx="36.55" ry="41.23" fill="#e3e4e5" stroke="#231f20" stroke-miterlimit="10"></ellipse>
  <g>
    <g>
      <ellipse cx="533.63" cy="432.34" rx="81.3" ry="22.32" fill="#e3e4e5" stroke="#231f20" stroke-miterlimit="10"></ellipse>
      <ellipse cx="533.63" cy="429.16" rx="81.3" ry="22.32" fill="#fff" stroke="#231f20" stroke-miterlimit="10"></ellipse>
      <path d="M563.24,532.32l-8.65,10.02,10.48,21.41,9.11,2.28s-9.56-25.96-10.93-33.71Z" fill="#ff973f" stroke="#231f20" stroke-miterlimit="10"></path>
      <rect x="473.73" y="391.81" width="9.56" height="31.88" fill="#e3e4e5" stroke="#231f20" stroke-miterlimit="10"></rect>
      <rect x="605.82" y="395.45" width="9.56" height="31.88" fill="#e3e4e5" stroke="#231f20" stroke-miterlimit="10"></rect>
      <rect x="469.64" y="295.25" width="149.4" height="104.76" rx="7.6" ry="7.6" fill="#fff" stroke="#231f20" stroke-miterlimit="10"></rect>
      <path d="M457.34,418.68c4.54,.57,4.55,2.28,4.55,2.28l-8.6,11.58-5.06,163.32-9.56,.46,4.55-158.96c.91-12.75,5.01-15.49,5.01-15.49l4.1-2.73s1.37-.91,5.01-.46Z" fill="#fff" stroke="#231f20" stroke-miterlimit="10"></path>
      <polygon points="456.43 459.22 460.53 568.08 469.18 568.08 465.54 460.13 456.43 459.22" fill="#e3e4e5" stroke="#231f20" stroke-miterlimit="10"></polygon>
      <path d="M624.73,420.68l5.48,148.74h-7.79s1.36-145.3,1.36-145.3l.78-3.46c.02-.09,.16-.08,.16,.02Z" fill="#e3e4e5" stroke="#231f20" stroke-miterlimit="10"></path>
      <path d="M511.31,383.38s-43.27,23.23-58.76,51.47c0,0-12.75,20.04,14.58,39.17l-30.06,64.68,26.87,18.67,31.43-56.02,26.87,29.61,20.5-19.59-34.16-46.46s3.19-9.56,13.66-11.84c0,0,73.33-14.58,87-29.15,0,0,15.03-17.31,8.2-41.9l-3.65-11.45-41.44-4.95-61.03,17.76Z" fill="#0373b1" stroke="#231f20" stroke-miterlimit="10"></path>
      <path d="M467.13,474.02s7.74-19.13,9.56-35.53c0,0,0-15.49,17.31-20.5l47.37-20.04" fill="none" stroke="#231f20" stroke-linecap="round" stroke-linejoin="round"></path>
      <path d="M495.37,501.35s9.11-20.95,12.3-32.34" fill="none" stroke="#231f20" stroke-linecap="round" stroke-linejoin="round"></path>
      <path d="M524.52,528.68l12.3,15.49s6.06,10.33,10.29,14.61c1.16,1.17,2.1,2.52,2.79,4.02l.82,1.79c.39,.84,.7,1.72,.91,2.62,.67,2.87,2.86,9.94,7.96,8.85,0,0,12.3-2.28,12.3-10.48,0,0,.46-3.19-2.28-6.38,0,0-4.51-4.71-7.36-10.13-2.17-4.13-2.49-9.03-.69-13.34,.1-.24,.2-.46,.3-.67,0,0-5.47-20.04-14.58-17.76h-3.19l-3.45-3.94-16.14,15.32Z" fill="#faa27f" stroke="#231f20" stroke-miterlimit="10"></path>
      <path d="M577.36,583.33c-2.73,3.64-6.83,7.74-6.83,7.74-.55,.43-1.08,.81-1.59,1.13-2.07,1.32-3.79,1.79-5.13,1.88-1.68,.1-3.32-.59-4.45-1.82-.31-.33-.6-.69-.88-1.06-5.37-7.14-5.84-21.05-5.84-21.05,0,0,1.5,6.35,6.97,5.89,.91-.08,12.3-2.73,12.3-10.48,0,0,.91-5.01-6.83-22.32l-3.19-8.2s-5.32-19.51-14.21-17.85c-.06,.01-.1-.07-.04-.1,1.68-.91,9.55-4.61,15.99,1.94,2.82,2.87,4.33,6.79,4.38,10.82,0,.38,0,.77,0,1.18,0,1.06-.03,2.21-.1,3.41-.03,.5-.06,1-.1,1.51,0,0-1.32,9.24,3.34,19.29,1.07,2.32,2.46,4.47,4.01,6.49,2.54,3.31,8.69,12.94,2.21,21.58Z" fill="#ff973f" stroke="#231f20" stroke-miterlimit="10"></path>
      <path d="M568.94,592.13s0,.05,0,.08c-2.07,1.32-3.79,1.79-5.13,1.88-1.68,.1-3.32-.59-4.45-1.82-.31-.33-.6-.69-.88-1.06-.15-1.25-.08-2.26,.1-3.08,.72-3.13,3.3-3.42,3.3-3.42,2.83-.47,4.63,1.54,5.7,3.59,1,1.9,1.37,3.84,1.37,3.84Z" fill="#ff973f" stroke="#231f20" stroke-miterlimit="10"></path>
      <path d="M567.57,588.29c-1.67,.76-3.43,.05-3.43,.05-2.98,1.99-4.84,.7-5.58-.22,.72-3.13,3.3-3.42,3.3-3.42,2.83-.47,4.63,1.54,5.7,3.59Z" fill="#faa27f" stroke="#231f20" stroke-miterlimit="10"></path>
      <path d="M564.15,588.34s-1.11-.37-1-1.44c.04-.43,.06-.86-.04-1.28-.07-.28-.17-.6-.33-.92" fill="none" stroke="#231f20" stroke-linecap="round" stroke-linejoin="round"></path>
      <path d="M580.54,547.35l-1.28,2.13c-.04,.07-.14,.08-.19,0l-11.18-15.03c.06-1.2,.09-2.35,.1-3.41l12.55,16.3Z" fill="#ff973f" stroke="#231f20" stroke-miterlimit="10"></path>
      <path d="M579.01,549.67l-1.65,.41-9.68-12.94,.22-2.69,11.18,15.03c.05,.07,.02,.16-.06,.18Z" fill="#ff973f" stroke="#231f20" stroke-miterlimit="10"></path>
      <path d="M455.46,551.41l-4.27,5.05c-1.15,1.43-1.57,3.59-1.73,4.99-.21,1.89-.68,3.76-1.5,5.47-.2,.42-.41,.83-.65,1.23-2.09,3.73-5.07,6.55-6.87,8.06-1.15,.96-2.19,2.05-3.08,3.24l-13.5,18c-7.8,8.92-16.52,6.62-19.46,5.47-1.43-.56-2.88-1.02-4.38-1.36-3.82-.85-8.04-1.38-8.04-1.38l25.51-37.35c5.92-8.65,20.29-23.68,20.29-23.68l17.69,12.25Z" fill="#faa27f" stroke="#231f20" stroke-miterlimit="10"></path>
      <path d="M449.26,587.03c-.36,.67-.82,1.27-1.3,1.84-5.85,6.89-13.17,40.47-13.17,40.47l-2.28-.46,9.56-34.62c.91-4.1-5.47,0-5.47,0-.02,.01-.05,.03-.07,.05-6.8,4.16-13.14,20-13.14,20-1.04,2.96-2.15,4.92-3.13,6.22-1.22,1.62-3.22,2.45-5.22,2.22-9.91-1.14-22.24-5.48-29.41-8.28-3.64-1.42-5.96-2.44-5.96-2.44,.16-3.95,1.82-6.59,3.86-8.35,3.61-3.12,8.44-3.49,8.44-3.49,0,0,4.22,.53,8.04,1.38,1.5,.34,2.96,.8,4.38,1.36,2.95,1.15,11.66,3.45,19.46-5.47l13.5-18c.9-1.2,1.94-2.29,3.08-3.24,1.8-1.5,4.78-4.33,6.87-8.06l.15-.08c6.32,8.33,3.4,15.97,1.8,18.96Z" fill="#ff973f" stroke="#231f20" stroke-miterlimit="10"></path>
      <path d="M442.08,594.27l-9.56,34.62-1.82-.91,5.96-25.98c.44-1.92,.56-3.91,.28-5.85-.09-.61-.21-1.23-.39-1.82,.02-.02,.05-.03,.07-.05,0,0,6.38-4.1,5.47,0Z" fill="#ff973f" stroke="#231f20" stroke-miterlimit="10"></path>
      <path d="M519.09,230.86s-7.32,2.67-10.05,8.13c0,0-3.19,4.55-8.65,3.19,0,0-20.5-1.82-25.96,16.4l-7.98,19.75c-.72,1.79-1.98,3.3-3.56,4.43-.77,.55-1.68,1.6-2.59,3.61l-7.29,18.67,12.75,30.06,.47-.04c4.95-.41,9.42-3.31,11.62-7.77,1.23-2.49,2.12-5.69,2.09-9.71,0-1,.51-1.93,1.39-2.42l6.75-3.75s5.92-2.28,6.38-6.38l16.85,78.34s11.51,6.63,26.9,.35c6.35-2.59,13.09-4.08,19.92-4.68l39.27-3.41s20.95,2.28,21.41-18.22l30.71-29.41c3.27-3.13,4.91-7.67,4.13-12.13-.36-2.07-1.25-4.35-2.95-6.74,0,0-7.11-9.37-12.35-13.14-2.23-1.61-4.14-3.62-5.66-5.91l-23.28-35.11c-2.26-3.41-4.92-6.55-7.95-9.31-7.44-6.8-22.04-17.57-41.41-19.42l-40.96,4.62Z" fill="#ff973f" stroke="#231f20" stroke-miterlimit="10"></path>
      <line x1="494.46" y1="304.58" x2="483.98" y2="266.78" fill="none" stroke="#231f20" stroke-linecap="round" stroke-linejoin="round"></line>
      <path d="M517.45,224.9l.24,5.89s-1.27,15.7,8.88,31.95c.6,.96,1.43,1.77,2.42,2.33,1.74,.99,4.63,3.45,4.67,8.92,0,.58,.23,1.15,.64,1.56,.82,.8,2.16,2.42,2.74,4.87,.11,.45,.72,.52,.94,.12l2.71-4.82c.38-.68,.38-1.52-.03-2.2-.93-1.53-2.27-4.71-.66-8.57,0,0,3.19-6.83,4.55-14.58l5.47-30.06s-1.37-10.93-.46-18.22l-10.93-.46-21.19,23.26Z" fill="#faa27f" stroke="#231f20" stroke-miterlimit="10"></path>
      <path d="M585.55,244.01s-10.02,17.76-2.73,33.25l18.22,39.17" fill="none" stroke="#231f20" stroke-linecap="round" stroke-linejoin="round"></path>
      <path d="M614.93,319.06s.68-2.18,4.33-3.09c.4,0,1.84-.35,3.42-1.66,.7-.58,1.43-1.11,2.22-1.55,3.6-1.96,14.08-6.1,26.21-2.82,0,0,5.04,6.47,1.49,13.26-.95,1.81-1.86,3.64-3.33,5.07l-6.62,6.4s-2.44,.08-3.58-.43c0,0,2.72-1.13,3.31-3.97,.13-.62-.17-1.25-.7-1.59-1.38-.88-4.27-2.9-6.93-5.88,0,0-5.47-6.38-13.21-4.55l-6.6,.81Z" fill="#ff973f" stroke="#231f20" stroke-miterlimit="10"></path>
      <path d="M445.26,307.25c.58-.3,1.13-.64,1.66-1.01,1.75-1.24,6.59-3.53,14.74,1.08,0,0,12.75,6.38,10.02,19.59,0,0,.36,2.53-2.78,4.7-.83,.57-1.6,1.25-2.23,2.04-2.66,3.27-11.15,11.09-25.95,1.47,0,0-5.47-3.64-5.47-10.93,0,0,3.73-13.69,10.02-16.92Z" fill="#ff973f" stroke="#231f20" stroke-miterlimit="10"></path>
      <path d="M427.05,298.21l2.73,19.13,1.37,.91s-2.28,4.1,2.28,6.38c0,0,.91,.46,1.82-.46l5.4,6.99c2.34,3.03,5.67,5.18,9.43,5.88,3.46,.64,7.38,.12,9.76-4.21l1.69-4.67,1.83-.74c.06-.03,.09-.1,.06-.16l-4.04-7.18-5.47-9.11s-5.45-2.05-9.58-6.14c-.91-.9-1.67-1.94-2.25-3.08-1.22-2.4-5.24-7.9-15.05-3.54Z" fill="#faa27f" stroke="#231f20" stroke-miterlimit="10"></path>
      <path d="M431.15,318.25l1.37-3.64s0-5.47,1.82-7.74" fill="none" stroke="#231f20" stroke-linecap="round" stroke-linejoin="round"></path>
      <path d="M431.6,309.59s-1.37,3.64,.46,5.92" fill="none" stroke="#231f20" stroke-linecap="round" stroke-linejoin="round"></path>
      <path d="M549.57,216.22l13.21,13.66-9.11,46.46-13.66-11.39s4.1-9.11,4.55-14.58l5.47-30.06-.46-4.1Z" fill="#fff" stroke="#231f20" stroke-miterlimit="10"></path>
      <path d="M517.72,230.41c-1.37,.61-2.46,1.72-3.03,3.11-1.53,3.75-4.12,11.77-2.47,20.06l3.49,19.8c.16,.9,1.42,.99,1.71,.13l2.56-7.69c.14-.43,.73-.49,.94-.09,1.07,2,4.08,5.52,11.43,2.85,0,0-.75-2.02-3.31-3.45-1.04-.58-1.9-1.43-2.52-2.45-2.79-4.61-9.51-17.36-8.81-32.26h0Z" fill="#fff" stroke="#231f20" stroke-miterlimit="10"></path>
      <path d="M389.09,606.03l-3.45,8.44c-3.64-1.42-5.96-2.44-5.96-2.44,.16-3.95,1.82-6.59,3.86-8.35,2.26-.42,5.29-.62,5.68,1.25,.08,.37,.01,.76-.13,1.11Z" fill="#ff973f" stroke="#231f20" stroke-miterlimit="10"></path>
      <path d="M383.54,603.68s-1.55,1.04-2.05,2.65c-.32,1.03,.34,2.12,1.4,2.33l3.17,.63s.46,.91,1.37,.91l1.59-3.97c.39-.98,0-2.13-.95-2.59-.82-.4-2.2-.54-4.53,.03Z" fill="#faa27f" stroke="#231f20" stroke-miterlimit="10"></path>
      <line x1="386.06" y1="609.3" x2="388.98" y2="604.73" fill="none" stroke="#231f20" stroke-linecap="round" stroke-linejoin="round"></line>
      <rect x="621.19" y="500.55" width="314.51" height="15.49" transform="translate(1286.74 -270.15) rotate(90)" fill="#e3e4e5" stroke="#231f20" stroke-miterlimit="10"></rect>
      <rect x="121.54" y="500.32" width="314.51" height="15.49" transform="translate(786.86 229.28) rotate(90)" fill="#e3e4e5" stroke="#231f20" stroke-miterlimit="10"></rect>
      <rect x="204.43" y="470.94" width="243" height="15.49" transform="translate(804.62 152.75) rotate(90)" fill="#e3e4e5" stroke="#231f20" stroke-miterlimit="10"></rect>
      <rect x="615.73" y="470.94" width="243" height="15.49" transform="translate(1215.91 -258.54) rotate(90)" fill="#e3e4e5" stroke="#231f20" stroke-miterlimit="10"></rect>
      <rect x="499.92" y="153.82" width="47.37" height="71.97" rx="23.68" ry="23.68" fill="#faa27f" stroke="#231f20" stroke-miterlimit="10"></rect>
      <path d="M547.08,206.75s-2.29,11.97-12.94,16.3c-.54,.22,.18,2.34,.41,2.92,0,0,.41,1.1,.47,2.62,.25,5.95,6.68,9.79,11.76,6.69,.34-.21,.67-.44,.98-.69,0,0,9.8,7.23,13.89,.6,0,0,15.35,6.21,19.05-4.09,0,0,11.69,3.44,18.65-14.06,0,0-3.67-2.77-4.06-9.58,0,0,1.37-6.57-5.2-7.94,0,0-7.07-.99-7.35-11.85-.28-10.86-1.68-13.76-8.24-15.13,0,0-.82,.66-2.6-5.19-.65-2.12-1.62-4.15-2.95-5.92-1.9-2.54-4.93-5.26-9.21-5.38,0,0-3.81-.53-5.47-2.93-.57-.82-1.2-1.61-1.99-2.23-2.49-1.97-7.75-4.32-15.46,1.5,0,0-19.7-14.84-31.73-1.7-.87,.95-2.14,2.62-2.79,3.72-.18,.3-.42,.66-.74,1.04-3.42,4.12-5.1,9.42-4.68,14.76,.24,3.01,.53,6.44,.88,10.05,1.1,11.42-5.78,9.1-5.78,9.1,0,0-6.51-1.81-6.3,6.33,0,0,.33,7.26-3.57,9.41,0,0,6.09,11.22,12.33,8.49,0,0,1.09,12.22,10.87,14.38,3.02,.67,6.19,.13,8.91-1.35l2.79-1.51s-16.85-4.1-17.63-23.8l.8-17.38c.62-9.5,5.28-14.86,9.18-17.72,3.35-2.45,7.7-3.19,11.58-1.71,2.25,.86,4.17,2.34,3.82,4.9,0,0-1.18,8.4,5.96,12.1,0,0,5.44,3.02,4.75,7.88,0,0-.21,1.16,0,2.7,.55,3.93,4.12,6.58,8.06,6.1,1.12-.14,2.79-.54,3.53-1.46,.1-.13,.31-.07,.31,.1l-.07,5.29-.22,4.65Z" fill="#231f20" stroke="#231f20" stroke-miterlimit="10"></path>
      <ellipse cx="546.55" cy="194.08" rx="4.39" ry="5.06" fill="#faa27f" stroke="#231f20" stroke-miterlimit="10"></ellipse>
      <path d="M614.02,599.5l8.2,.91,1.37-176.27,.91-4.1-5.6-.62c-1.48-.16-2.84,.81-3.16,2.26l-.34,1.55-1.37,176.27Z" fill="#fff" stroke="#231f20" stroke-miterlimit="10"></path>
      <rect x="271.05" y="350.81" width="515.14" height="15.49" fill="#fff" stroke="#231f20" stroke-miterlimit="10"></rect>
      <path d="M302.45,229.76l8.51,88.07c.56,5.75,5.38,10.14,11.16,10.15l98.46,.19c6.43,.01,11.56-5.37,11.24-11.79l-4.44-88.45c-.3-5.98-5.25-10.68-11.24-10.67l-102.53,.19c-6.62,.01-11.79,5.72-11.16,12.31Z" fill="#fff" stroke="#231f20" stroke-miterlimit="10"></path>
      <path d="M299.2,229.76l8.51,88.07c.56,5.75,5.38,10.14,11.16,10.15l98.46,.19c6.43,.01,11.56-5.37,11.24-11.79l-4.44-88.45c-.3-5.98-5.25-10.68-11.24-10.67l-102.53,.19c-6.62,.01-11.79,5.72-11.16,12.31Z" fill="#0373b1" stroke="#231f20" stroke-miterlimit="10"></path>
      <polygon points="340.96 281.31 371.6 281.31 363.24 350.48 327.96 350.48 340.96 281.31" fill="#0373b1" stroke="#231f20" stroke-miterlimit="10"></polygon>
      <polygon points="410.59 350.48 363.24 350.48 371.6 281.31 375.77 285.02 368.81 343.98 410.59 343.98 410.59 350.48" fill="#fff" stroke="#231f20" stroke-miterlimit="10"></polygon>
      <path d="M581.1,300.33l-23.41,38.65-2.61,6.78c-.14,.36,.02,.77,.36,.94h0c.31,.16,.69,.08,.91-.19l5.32-6.39,22.93-37.66c.57-.94,.3-2.16-.61-2.77h0c-.97-.65-2.29-.35-2.89,.64Z" fill="#fff" stroke="#231f20" stroke-miterlimit="10"></path>
      <path d="M621.54,318.25l-16.85,2.28-1.37-3.64s-1.37-4.1-2.73-4.55c0,0-1.37-5.92-5.01-5.47,0,0-.91-2.73-5.01-3.19l-9.38,.41c-.71,.03-1.39,.3-1.94,.75l-8.56,7.19c-1.09,.91-1.21,2.55-.28,3.62h0c.85,.97,2.28,1.15,3.34,.43l8.16-5.56h2.28l-7.67,6.05c-.65,.51-1.21,1.14-1.64,1.84l-4.22,6.81c-.57,.92-.26,2.13,.68,2.67h0c.84,.48,1.9,.26,2.48-.51l.35-.47s1.37,4.1,4.55,1.82l4.55-4.1s.46,.91,1.82,1.82l-2.25,2.81c-.76,.95-.56,2.34,.42,3.04h0c.8,.57,1.9,.52,2.63-.14l2.84-2.52s1.82,2.28,6.83,4.55c0,0,2.73,2.73,8.65,2.28l29.8-.86c1.76-.05,3.51-.49,5.05-1.36,1.39-.79,2.79-2,3.25-3.77,.18-.68-.1-1.4-.71-1.76-1.25-.74-3.73-2.46-6.87-5.91,0,0-5.47-6.38-13.21-4.55Z" fill="#faa27f" stroke="#231f20" stroke-miterlimit="10"></path>
      <path d="M588.74,329.63l5.01-3.64s4.55,.91,7.29,0" fill="none" stroke="#231f20" stroke-miterlimit="10"></path>
      <path d="M585.1,326.45l4.44-4.07c.67-.62,1.48-1.07,2.36-1.31l6.86-1.91" fill="none" stroke="#231f20" stroke-miterlimit="10"></path>
      <path d="M583.28,324.62l5.16-3.97c.47-.36,1.05-.56,1.64-.55,1.86,.01,6.22-.2,8.68-2.31" fill="none" stroke="#231f20" stroke-miterlimit="10"></path>
      <path d="M574.17,326.9l10.26-10.26c.74-.74,1.65-1.29,2.66-1.59l8.95-2.72" fill="none" stroke="#231f20" stroke-miterlimit="10"></path>
      <path d="M584.19,310.5l5.92-2.28s2.28-.91,2.73-1.82" fill="none" stroke="#231f20" stroke-miterlimit="10"></path>
      <g>
        <path d="M632.68,340.18h-120.51c-1.25,0-2.43-.61-3.16-1.63l-12.43-17.48c-1.38-1.94,0-4.63,2.39-4.63h146.21c2.34,0,3.74,2.62,2.43,4.56l-11.72,17.46c-.72,1.07-1.92,1.71-3.22,1.71Z" fill="#fff" stroke="#231f20" stroke-miterlimit="10"></path>
        <rect x="532.95" y="340.5" width="79.01" height="6.69" fill="#fff" stroke="#231f20" stroke-miterlimit="10"></rect>
        <rect x="527.54" y="345.92" width="89.52" height="4.46" fill="#e3e4e5" stroke="#231f20" stroke-miterlimit="10"></rect>
        <path d="M632.68,341.78h-120.51c-1.25,0-2.43-.61-3.16-1.63l-12.43-17.48c-1.38-1.94,0-4.63,2.39-4.63h146.21c2.34,0,3.74,2.62,2.43,4.56l-11.72,17.46c-.72,1.07-1.92,1.71-3.22,1.71Z" fill="#0373b1" stroke="#231f20" stroke-miterlimit="10"></path>
      </g>
    </g>
    <g>
      <path d="M676.07,295.4h23.85c2.87,0,5.21,2.33,5.21,5.21v2.89h-34.27v-2.89c0-2.87,2.33-5.21,5.21-5.21Z" fill="#ff973f" stroke="#231f20" stroke-miterlimit="10"></path>
      <polygon points="705.05 305.27 704.58 313.21 702.84 342.89 702.43 349.9 672.75 349.9 672.38 342.89 670.83 313.21 670.42 305.34 705.05 305.27" fill="#fff" stroke="#231f20" stroke-miterlimit="10"></polygon>
      <polygon points="704.58 313.21 702.84 342.89 672.38 342.89 670.83 313.21 704.58 313.21" fill="#ff973f" stroke="#231f20" stroke-miterlimit="10"></polygon>
      <circle cx="687.45" cy="327.37" r="7.69" fill="#fff" stroke="#231f20" stroke-miterlimit="10"></circle>
      <rect x="666.95" y="301.74" width="42.63" height="3.51" rx="1.75" ry="1.75" fill="#fff" stroke="#231f20" stroke-miterlimit="10"></rect>
    </g>
    <path d="M690.29,292.7s-9.75-2.32-10.09-12.13c-.08-2.19,.55-4.37,1.89-6.09,.66-.84,1.53-1.65,2.69-2.2,.89-.42,1.74-.94,2.47-1.61,2.22-2.03,5.96-6.45,5.19-12.78,0,0,4.99,11.48-2.79,17.88-.98,.81-1.82,1.78-2.41,2.91-1.56,2.99-3.09,8.63,3.03,14.02Z" fill="#fff" stroke="#231f20" stroke-miterlimit="10"></path>
  </g>
  <path d="M472.42,17.34h-201.19c-4.48,0-8.12,3.64-8.12,8.12v107.47c0,4.48,3.64,8.12,8.12,8.12h135.29c15.81,11.98,64.64,46.86,64.64,46.86l-17.35-46.86h18.61c4.48,0,8.12-3.64,8.12-8.12V25.46c0-4.48-3.64-8.12-8.12-8.12Z" fill="#e3e4e5" stroke="#231f20" stroke-miterlimit="10"></path>
  <circle cx="93.17" cy="97.12" r="9.37" fill="#0373b1" stroke="#231f20" stroke-miterlimit="10"></circle>
  <rect x="151.27" y="242.38" width="20.62" height="5.62" fill="#fff" stroke="#231f20" stroke-miterlimit="10"></rect>
  <ellipse cx="197.19" cy="198.33" rx="36.55" ry="41.23" fill="#fff" stroke="#231f20" stroke-miterlimit="10"></ellipse>
  <circle cx="147.52" cy="245.19" r="7.5" fill="#0373b1" stroke="#231f20" stroke-miterlimit="10"></circle>
  <path d="M173.76,258.31h28.11l2.88-63.25c.48-10.47-7.88-19.21-18.36-19.21h0c-10.81,0-19.28,9.28-18.3,20.04l5.67,62.42Z" fill="#0373b1" stroke="#231f20" stroke-miterlimit="10"></path>
  <rect x="168.14" y="238.63" width="14.99" height="13.12" fill="#fff" stroke="#231f20" stroke-miterlimit="10"></rect>
  <rect x="198.13" y="238.63" width="7.5" height="13.12" fill="#fff" stroke="#231f20" stroke-miterlimit="10"></rect>
  <path d="M300.6,17.34v123.7h-29.37c-4.48,0-8.12-3.64-8.12-8.12V25.46c0-4.48,3.64-8.12,8.12-8.12h29.37Z" fill="#ff973f" stroke="#231f20" stroke-miterlimit="10"></path>
  <circle cx="281.86" cy="97.94" r="9.37" fill="#fff" stroke="#231f20" stroke-miterlimit="10"></circle>
  <circle cx="281.86" cy="122.3" r="9.37" fill="#fff" stroke="#231f20" stroke-miterlimit="10"></circle>
  <line x1="281.86" y1="96.06" x2="287.65" y2="90.38" fill="none" stroke="#231f20" stroke-linecap="round" stroke-linejoin="round"></line>
  <line x1="309.97" y1="107.31" x2="309.97" y2="137.3" fill="none" stroke="#231f20" stroke-linecap="round" stroke-linejoin="round"></line>
  <line x1="328.72" y1="107.31" x2="328.72" y2="137.3" fill="none" stroke="#231f20" stroke-linecap="round" stroke-linejoin="round"></line>
  <line x1="345.58" y1="107.31" x2="345.58" y2="137.3" fill="none" stroke="#231f20" stroke-linecap="round" stroke-linejoin="round"></line>
  <line x1="364.33" y1="107.31" x2="364.33" y2="137.3" fill="none" stroke="#231f20" stroke-linecap="round" stroke-linejoin="round"></line>
  <line x1="383.07" y1="107.31" x2="383.07" y2="137.3" fill="none" stroke="#231f20" stroke-linecap="round" stroke-linejoin="round"></line>
  <rect x="303.41" y="124.18" width="13.12" height="3.75" fill="#fff" stroke="#231f20" stroke-miterlimit="10"></rect>
  <rect x="322.16" y="112.93" width="13.12" height="3.75" fill="#fff" stroke="#231f20" stroke-miterlimit="10"></rect>
  <rect x="338.96" y="118.55" width="13.12" height="3.75" fill="#fff" stroke="#231f20" stroke-miterlimit="10"></rect>
  <rect x="357.77" y="124.18" width="13.12" height="3.75" fill="#fff" stroke="#231f20" stroke-miterlimit="10"></rect>
  <rect x="376.51" y="112.93" width="13.12" height="3.75" fill="#fff" stroke="#231f20" stroke-miterlimit="10"></rect>
  <rect x="407.44" y="111.06" width="73.1" height="22.49" fill="#fff" stroke="#231f20" stroke-miterlimit="10"></rect>
  <line x1="301.04" y1="95.04" x2="480.53" y2="95.04" fill="none" stroke="#231f20" stroke-linecap="round" stroke-linejoin="round"></line>
  <line x1="301.04" y1="65.19" x2="480.53" y2="65.19" fill="none" stroke="#231f20" stroke-linecap="round" stroke-linejoin="round"></line>
  <line x1="300.62" y1="35.34" x2="480.45" y2="35.34" fill="none" stroke="#231f20" stroke-linecap="round" stroke-linejoin="round"></line>
  <line x1="273.29" y1="120.21" x2="279.98" y2="122.3" fill="none" stroke="#231f20" stroke-linecap="round" stroke-linejoin="round"></line>
  <g>
    <line x1="310.22" y1="82.97" x2="310.22" y2="76.92" fill="none" stroke="#231f20" stroke-linecap="round" stroke-linejoin="round"></line>
    <line x1="313.44" y1="84.38" x2="313.44" y2="75.51" fill="none" stroke="#231f20" stroke-linecap="round" stroke-linejoin="round"></line>
    <line x1="317.07" y1="86.19" x2="317.07" y2="73.7" fill="none" stroke="#231f20" stroke-linecap="round" stroke-linejoin="round"></line>
    <line x1="320.29" y1="90.02" x2="320.29" y2="69.87" fill="none" stroke="#231f20" stroke-linecap="round" stroke-linejoin="round"></line>
    <line x1="323.71" y1="86.79" x2="323.71" y2="73.1" fill="none" stroke="#231f20" stroke-linecap="round" stroke-linejoin="round"></line>
    <line x1="327.34" y1="83.97" x2="327.34" y2="75.92" fill="none" stroke="#231f20" stroke-linecap="round" stroke-linejoin="round"></line>
    <line x1="329.96" y1="82.97" x2="329.96" y2="76.92" fill="none" stroke="#231f20" stroke-linecap="round" stroke-linejoin="round"></line>
    <line x1="333.18" y1="84.38" x2="333.18" y2="75.51" fill="none" stroke="#231f20" stroke-linecap="round" stroke-linejoin="round"></line>
    <line x1="336.81" y1="86.19" x2="336.81" y2="73.7" fill="none" stroke="#231f20" stroke-linecap="round" stroke-linejoin="round"></line>
    <line x1="340.03" y1="90.02" x2="340.03" y2="69.87" fill="none" stroke="#231f20" stroke-linecap="round" stroke-linejoin="round"></line>
    <line x1="343.45" y1="86.79" x2="343.45" y2="73.1" fill="none" stroke="#231f20" stroke-linecap="round" stroke-linejoin="round"></line>
    <line x1="347.08" y1="83.97" x2="347.08" y2="75.92" fill="none" stroke="#231f20" stroke-linecap="round" stroke-linejoin="round"></line>
    <line x1="350.3" y1="83.97" x2="350.3" y2="75.92" fill="none" stroke="#231f20" stroke-linecap="round" stroke-linejoin="round"></line>
    <line x1="352.92" y1="82.97" x2="352.92" y2="76.92" fill="none" stroke="#231f20" stroke-linecap="round" stroke-linejoin="round"></line>
    <line x1="356.14" y1="84.38" x2="356.14" y2="75.51" fill="none" stroke="#231f20" stroke-linecap="round" stroke-linejoin="round"></line>
    <line x1="359.77" y1="86.19" x2="359.77" y2="73.7" fill="none" stroke="#231f20" stroke-linecap="round" stroke-linejoin="round"></line>
    <line x1="362.99" y1="90.02" x2="362.99" y2="69.87" fill="none" stroke="#231f20" stroke-linecap="round" stroke-linejoin="round"></line>
    <line x1="366.42" y1="86.79" x2="366.42" y2="73.1" fill="none" stroke="#231f20" stroke-linecap="round" stroke-linejoin="round"></line>
    <line x1="370.04" y1="83.97" x2="370.04" y2="75.92" fill="none" stroke="#231f20" stroke-linecap="round" stroke-linejoin="round"></line>
  </g>
  <g>
    <line x1="410.22" y1="82.97" x2="410.22" y2="76.92" fill="none" stroke="#231f20" stroke-linecap="round" stroke-linejoin="round"></line>
    <line x1="413.44" y1="84.38" x2="413.44" y2="75.51" fill="none" stroke="#231f20" stroke-linecap="round" stroke-linejoin="round"></line>
    <line x1="417.07" y1="86.19" x2="417.07" y2="73.7" fill="none" stroke="#231f20" stroke-linecap="round" stroke-linejoin="round"></line>
    <line x1="420.29" y1="90.02" x2="420.29" y2="69.87" fill="none" stroke="#231f20" stroke-linecap="round" stroke-linejoin="round"></line>
    <line x1="423.71" y1="86.79" x2="423.71" y2="73.1" fill="none" stroke="#231f20" stroke-linecap="round" stroke-linejoin="round"></line>
    <line x1="427.34" y1="83.97" x2="427.34" y2="75.92" fill="none" stroke="#231f20" stroke-linecap="round" stroke-linejoin="round"></line>
    <line x1="429.96" y1="82.97" x2="429.96" y2="76.92" fill="none" stroke="#231f20" stroke-linecap="round" stroke-linejoin="round"></line>
    <line x1="433.18" y1="84.38" x2="433.18" y2="75.51" fill="none" stroke="#231f20" stroke-linecap="round" stroke-linejoin="round"></line>
    <line x1="436.81" y1="86.19" x2="436.81" y2="73.7" fill="none" stroke="#231f20" stroke-linecap="round" stroke-linejoin="round"></line>
    <line x1="440.03" y1="90.02" x2="440.03" y2="69.87" fill="none" stroke="#231f20" stroke-linecap="round" stroke-linejoin="round"></line>
    <line x1="443.45" y1="86.79" x2="443.45" y2="73.1" fill="none" stroke="#231f20" stroke-linecap="round" stroke-linejoin="round"></line>
    <line x1="447.08" y1="83.97" x2="447.08" y2="75.92" fill="none" stroke="#231f20" stroke-linecap="round" stroke-linejoin="round"></line>
    <line x1="450.3" y1="83.97" x2="450.3" y2="75.92" fill="none" stroke="#231f20" stroke-linecap="round" stroke-linejoin="round"></line>
    <line x1="452.92" y1="82.97" x2="452.92" y2="76.92" fill="none" stroke="#231f20" stroke-linecap="round" stroke-linejoin="round"></line>
    <line x1="456.14" y1="84.38" x2="456.14" y2="75.51" fill="none" stroke="#231f20" stroke-linecap="round" stroke-linejoin="round"></line>
    <line x1="459.77" y1="86.19" x2="459.77" y2="73.7" fill="none" stroke="#231f20" stroke-linecap="round" stroke-linejoin="round"></line>
    <line x1="462.99" y1="90.02" x2="462.99" y2="69.87" fill="none" stroke="#231f20" stroke-linecap="round" stroke-linejoin="round"></line>
    <line x1="466.42" y1="86.79" x2="466.42" y2="73.1" fill="none" stroke="#231f20" stroke-linecap="round" stroke-linejoin="round"></line>
    <line x1="470.04" y1="83.97" x2="470.04" y2="75.92" fill="none" stroke="#231f20" stroke-linecap="round" stroke-linejoin="round"></line>
  </g>
  <g>
    <line x1="361.22" y1="52.97" x2="361.22" y2="46.92" fill="none" stroke="#231f20" stroke-linecap="round" stroke-linejoin="round"></line>
    <line x1="364.44" y1="54.38" x2="364.44" y2="45.51" fill="none" stroke="#231f20" stroke-linecap="round" stroke-linejoin="round"></line>
    <line x1="368.07" y1="56.19" x2="368.07" y2="43.7" fill="none" stroke="#231f20" stroke-linecap="round" stroke-linejoin="round"></line>
    <line x1="371.29" y1="60.02" x2="371.29" y2="39.87" fill="none" stroke="#231f20" stroke-linecap="round" stroke-linejoin="round"></line>
    <line x1="374.71" y1="56.79" x2="374.71" y2="43.1" fill="none" stroke="#231f20" stroke-linecap="round" stroke-linejoin="round"></line>
    <line x1="378.34" y1="53.97" x2="378.34" y2="45.92" fill="none" stroke="#231f20" stroke-linecap="round" stroke-linejoin="round"></line>
    <line x1="380.96" y1="52.97" x2="380.96" y2="46.92" fill="none" stroke="#231f20" stroke-linecap="round" stroke-linejoin="round"></line>
    <line x1="384.18" y1="54.38" x2="384.18" y2="45.51" fill="none" stroke="#231f20" stroke-linecap="round" stroke-linejoin="round"></line>
    <line x1="387.81" y1="56.19" x2="387.81" y2="43.7" fill="none" stroke="#231f20" stroke-linecap="round" stroke-linejoin="round"></line>
    <line x1="391.03" y1="60.02" x2="391.03" y2="39.87" fill="none" stroke="#231f20" stroke-linecap="round" stroke-linejoin="round"></line>
    <line x1="394.45" y1="56.79" x2="394.45" y2="43.1" fill="none" stroke="#231f20" stroke-linecap="round" stroke-linejoin="round"></line>
    <line x1="398.08" y1="53.97" x2="398.08" y2="45.92" fill="none" stroke="#231f20" stroke-linecap="round" stroke-linejoin="round"></line>
    <line x1="401.3" y1="53.97" x2="401.3" y2="45.92" fill="none" stroke="#231f20" stroke-linecap="round" stroke-linejoin="round"></line>
    <line x1="403.92" y1="52.97" x2="403.92" y2="46.92" fill="none" stroke="#231f20" stroke-linecap="round" stroke-linejoin="round"></line>
    <line x1="407.14" y1="54.38" x2="407.14" y2="45.51" fill="none" stroke="#231f20" stroke-linecap="round" stroke-linejoin="round"></line>
    <line x1="410.77" y1="56.19" x2="410.77" y2="43.7" fill="none" stroke="#231f20" stroke-linecap="round" stroke-linejoin="round"></line>
    <line x1="413.99" y1="60.02" x2="413.99" y2="39.87" fill="none" stroke="#231f20" stroke-linecap="round" stroke-linejoin="round"></line>
    <line x1="417.42" y1="56.79" x2="417.42" y2="43.1" fill="none" stroke="#231f20" stroke-linecap="round" stroke-linejoin="round"></line>
    <line x1="421.04" y1="53.97" x2="421.04" y2="45.92" fill="none" stroke="#231f20" stroke-linecap="round" stroke-linejoin="round"></line>
  </g>
  <g>
    <path d="M311.69,23.81h-3.54s-.04,.01-.04,.04v2.15s.01,.04,.04,.04h2.43c.07,0,.1,.03,.1,.1v.63c0,.07-.03,.1-.1,.1h-2.43s-.04,.01-.04,.04v2.97c0,.07-.03,.1-.1,.1h-.76c-.07,0-.1-.03-.1-.1v-6.8c0-.07,.03-.1,.1-.1h4.44c.07,0,.1,.03,.1,.1v.63c0,.07-.03,.1-.1,.1Z" fill="#231f20"></path>
    <path d="M312.8,23.91c-.12-.12-.18-.27-.18-.46s.06-.34,.18-.46c.12-.12,.27-.18,.46-.18s.34,.06,.46,.18c.12,.12,.18,.27,.18,.46s-.06,.34-.18,.46c-.12,.12-.27,.18-.46,.18s-.34-.06-.46-.18Zm-.04,5.96v-4.88c0-.07,.03-.1,.1-.1h.76c.07,0,.1,.03,.1,.1v4.88c0,.07-.03,.1-.1,.1h-.76c-.07,0-.1-.03-.1-.1Z" fill="#231f20"></path>
    <path d="M318.8,25.29c.32,.32,.48,.75,.48,1.29v3.3c0,.07-.03,.1-.1,.1h-.76c-.07,0-.1-.03-.1-.1v-3.11c0-.33-.1-.6-.29-.81s-.45-.31-.77-.31-.57,.1-.77,.31-.3,.47-.3,.8v3.12c0,.07-.03,.1-.1,.1h-.76c-.07,0-.1-.03-.1-.1v-4.89c0-.07,.03-.1,.1-.1h.76c.07,0,.1,.03,.1,.1v.36s0,.02,.01,.03c.01,0,.02,0,.03,0,.29-.37,.71-.55,1.27-.55s.98,.16,1.3,.48Z" fill="#231f20"></path>
    <path d="M323.57,25.02c.3,.14,.54,.34,.7,.6,.16,.26,.25,.55,.25,.88v3.38c0,.07-.03,.1-.1,.1h-.76c-.07,0-.1-.03-.1-.1v-.36s-.02-.04-.05-.02c-.17,.18-.39,.32-.64,.42s-.53,.15-.83,.15c-.49,0-.9-.12-1.22-.38-.32-.25-.49-.63-.49-1.14s.18-.93,.54-1.22c.36-.3,.87-.45,1.53-.45h1.12s.04-.01,.04-.04v-.27c0-.29-.08-.52-.25-.69-.17-.16-.43-.24-.78-.24-.28,0-.51,.05-.69,.17-.18,.11-.29,.26-.32,.44-.02,.07-.06,.1-.12,.09l-.81-.11c-.07-.01-.1-.04-.09-.08,.05-.39,.26-.71,.63-.96,.37-.25,.83-.38,1.38-.38,.41,0,.76,.07,1.06,.21Zm-.4,3.95c.26-.19,.39-.42,.39-.71v-.59s-.01-.04-.04-.04h-.94c-.39,0-.71,.08-.94,.23-.23,.15-.35,.37-.35,.64,0,.25,.09,.43,.27,.56,.18,.13,.41,.19,.69,.19,.35,0,.66-.09,.92-.28Z" fill="#231f20"></path>
    <path d="M325.82,29.88v-6.8c0-.07,.03-.1,.1-.1h.76c.07,0,.1,.03,.1,.1v6.8c0,.07-.03,.1-.1,.1h-.76c-.07,0-.1-.03-.1-.1Z" fill="#231f20"></path>
    <path d="M334.1,23.22c.31,.17,.55,.41,.72,.71s.25,.66,.25,1.06-.09,.75-.26,1.05c-.17,.3-.42,.53-.74,.7s-.68,.25-1.09,.25h-1.76s-.04,.01-.04,.04v2.84c0,.07-.03,.1-.1,.1h-.76c-.07,0-.1-.03-.1-.1v-6.81c0-.07,.03-.1,.1-.1h2.7c.41,0,.77,.08,1.07,.25Zm-.32,2.67c.22-.22,.33-.51,.33-.87s-.11-.66-.33-.89c-.22-.22-.52-.33-.88-.33h-1.67s-.04,.01-.04,.04v2.34s.01,.04,.04,.04h1.67c.37,0,.66-.11,.88-.33Z" fill="#231f20"></path>
    <path d="M336.67,29.68c-.37-.25-.62-.6-.77-1.04-.12-.36-.18-.77-.18-1.22s.06-.87,.17-1.2c.15-.44,.4-.79,.77-1.04s.8-.38,1.31-.38,.9,.12,1.26,.38c.36,.25,.61,.59,.76,1.02,.12,.34,.18,.74,.18,1.2s-.06,.88-.18,1.23c-.15,.45-.4,.79-.76,1.04-.36,.25-.78,.38-1.27,.38s-.92-.12-1.29-.38Zm1.99-.68c.2-.15,.34-.36,.43-.63,.07-.25,.11-.57,.11-.94s-.03-.68-.1-.93c-.09-.27-.23-.48-.43-.64-.2-.15-.44-.22-.73-.22s-.51,.07-.71,.22c-.2,.15-.34,.36-.43,.64-.07,.23-.11,.54-.11,.93s.04,.7,.11,.94c.08,.27,.22,.48,.43,.63s.45,.23,.73,.23c.27,0,.5-.08,.7-.23Z" fill="#231f20"></path>
    <path d="M344.69,22.98h.76c.07,0,.1,.03,.1,.1v6.8c0,.07-.03,.1-.1,.1h-.76c-.07,0-.1-.03-.1-.1v-.33s0-.02-.01-.03-.02,0-.04,0c-.15,.17-.32,.3-.52,.39-.2,.09-.42,.14-.65,.14-.48,0-.88-.12-1.2-.35s-.55-.57-.7-1c-.13-.35-.19-.78-.19-1.28,0-.47,.05-.87,.16-1.21,.14-.44,.37-.78,.69-1.03s.73-.37,1.23-.37c.23,0,.44,.04,.64,.13,.2,.09,.38,.22,.53,.39,.01,.01,.03,.02,.04,0,0,0,.01-.02,.01-.03v-2.23c0-.07,.03-.1,.1-.1Zm-.12,4.45c0-.56-.08-.99-.25-1.28-.19-.34-.48-.51-.85-.51-.4,0-.7,.16-.89,.48-.21,.33-.32,.77-.32,1.32,0,.51,.08,.93,.25,1.24,.19,.37,.51,.55,.95,.55,.39,0,.68-.18,.88-.54,.15-.28,.23-.7,.23-1.26Z" fill="#231f20"></path>
    <path d="M347.7,29.67c-.36-.26-.61-.6-.74-1.04-.1-.31-.15-.71-.15-1.21,0-.46,.05-.86,.15-1.21,.13-.43,.38-.77,.74-1.02s.8-.38,1.3-.38,.94,.13,1.31,.38,.62,.57,.73,.96c.04,.11,.07,.22,.08,.33,0,.05-.03,.09-.09,.1l-.75,.11h-.02s-.08-.03-.1-.09l-.03-.16c-.05-.23-.18-.42-.39-.57-.21-.15-.46-.23-.75-.23s-.53,.08-.73,.23-.33,.36-.39,.61c-.06,.24-.09,.56-.09,.95s.03,.7,.09,.94c.07,.27,.2,.48,.39,.63s.44,.23,.72,.23,.54-.08,.76-.23c.21-.15,.34-.35,.39-.6,0,0,0-.02,0-.02,0-.01,0-.02,0-.02v-.04c.02-.05,.06-.07,.11-.06l.75,.12c.05,.01,.08,.04,.08,.08v.04c0,.06-.02,.13-.05,.22-.11,.41-.36,.73-.73,.98s-.81,.37-1.31,.37-.94-.13-1.3-.39Z" fill="#231f20"></path>
    <path d="M355.14,25.02c.3,.14,.54,.34,.7,.6,.16,.26,.24,.55,.24,.88v3.38c0,.07-.03,.1-.1,.1h-.76c-.07,0-.1-.03-.1-.1v-.36s-.02-.04-.05-.02c-.17,.18-.38,.32-.63,.42s-.53,.15-.83,.15c-.49,0-.9-.12-1.22-.38s-.49-.63-.49-1.14,.18-.93,.54-1.22c.36-.3,.87-.45,1.53-.45h1.12s.04-.01,.04-.04v-.27c0-.29-.09-.52-.26-.69-.17-.16-.43-.24-.77-.24-.28,0-.51,.05-.68,.17-.18,.11-.29,.26-.33,.44-.02,.07-.06,.1-.12,.09l-.81-.11c-.07-.01-.1-.04-.09-.08,.05-.39,.26-.71,.63-.96,.37-.25,.83-.38,1.38-.38,.41,0,.76,.07,1.07,.21Zm-.41,3.95c.26-.19,.39-.42,.39-.71v-.59s-.01-.04-.04-.04h-.94c-.39,0-.71,.08-.94,.23-.23,.15-.35,.37-.35,.64,0,.25,.09,.43,.26,.56,.18,.13,.41,.19,.7,.19,.35,0,.66-.09,.92-.28Z" fill="#231f20"></path>
    <path d="M358.12,29.86c-.3-.12-.54-.28-.71-.5-.17-.21-.25-.44-.25-.69v-.11c0-.07,.03-.1,.1-.1h.72c.07,0,.1,.03,.1,.1v.05c0,.19,.1,.35,.31,.49,.2,.14,.46,.21,.77,.21s.54-.06,.73-.2c.19-.13,.28-.29,.28-.49s-.09-.34-.26-.44-.45-.2-.84-.31c-.38-.11-.7-.21-.96-.32-.26-.11-.47-.27-.65-.47-.18-.2-.27-.46-.27-.79,0-.45,.17-.8,.53-1.06,.35-.26,.81-.4,1.39-.4,.39,0,.73,.06,1.03,.19,.3,.12,.53,.29,.68,.52,.16,.22,.24,.47,.24,.74v.03c0,.07-.03,.1-.1,.1h-.7c-.07,0-.1-.03-.1-.1v-.03c0-.19-.1-.35-.29-.48-.19-.13-.45-.19-.78-.19-.29,0-.53,.06-.71,.17s-.28,.27-.28,.46,.09,.34,.27,.44c.18,.1,.46,.21,.85,.32,.39,.11,.71,.21,.96,.32,.26,.1,.48,.26,.66,.46,.18,.2,.27,.47,.27,.79,0,.45-.18,.81-.54,1.08-.36,.27-.83,.4-1.42,.4-.4,0-.75-.06-1.06-.18Z" fill="#231f20"></path>
    <path d="M364.66,25.68h-1.08s-.04,.01-.04,.04v2.65c0,.28,.06,.48,.19,.6s.32,.19,.59,.19h.29c.07,0,.1,.03,.1,.1v.62c0,.07-.03,.1-.1,.1-.21,.01-.37,.02-.46,.02-.51,0-.89-.09-1.14-.27-.26-.18-.38-.52-.38-1.02v-2.99s-.01-.04-.04-.04h-.61c-.07,0-.1-.03-.1-.1v-.59c0-.07,.03-.1,.1-.1h.61s.04-.01,.04-.04v-1.18c0-.07,.03-.1,.1-.1h.72c.07,0,.1,.03,.1,.1v1.18s.01,.04,.04,.04h1.08c.07,0,.1,.03,.1,.1v.59c0,.07-.03,.1-.1,.1Z" fill="#231f20"></path>
    <path d="M366.13,29.8c-.12-.12-.18-.27-.18-.46s.06-.34,.18-.46c.12-.12,.27-.18,.46-.18s.34,.06,.46,.18,.18,.27,.18,.46-.06,.34-.18,.46c-.12,.12-.27,.18-.46,.18s-.34-.06-.46-.18Z" fill="#231f20"></path>
    <path d="M368.25,29.94s0-.05,.01-.08l1.66-2.39s.01-.04,0-.06l-1.66-2.4-.02-.05s.03-.07,.09-.07h.81c.05,0,.09,.02,.12,.06l1.17,1.71s.02,0,.03,0,.02,0,.03,0l1.16-1.71s.07-.06,.12-.06h.87s.07,.01,.08,.03c.01,.02,0,.05,0,.08l-1.66,2.4s0,.04,0,.06l1.66,2.39,.02,.05s-.03,.07-.09,.07h-.82c-.05,0-.09-.02-.12-.06l-1.16-1.71s-.02-.02-.03-.02c-.01,0-.02,0-.03,.02l-1.17,1.71s-.07,.06-.12,.06h-.86s-.07-.01-.08-.04Z" fill="#231f20"></path>
    <path d="M373.46,31.87v-.59c0-.07,.03-.1,.1-.1h.02c.27,0,.48-.04,.63-.1,.15-.06,.28-.17,.38-.33,.1-.16,.2-.41,.29-.74,0,0,0-.03,0-.06l-1.67-4.95v-.04s.02-.07,.08-.07h.81c.06,0,.1,.03,.12,.08l1.13,3.77s.02,.02,.03,.02c.01,0,.02,0,.03-.02l1.12-3.77c.02-.05,.06-.08,.12-.08h.79c.07,0,.1,.04,.08,.11l-1.82,5.33c-.15,.46-.31,.8-.46,1.02-.15,.22-.35,.38-.6,.48-.25,.09-.59,.14-1.04,.14h-.07s-.07-.03-.07-.1Z" fill="#231f20"></path>
    <path d="M378.04,29.88v-.7s.01-.09,.04-.12l2.65-3.24s.02-.02,0-.03c0-.01-.02-.02-.03-.02h-2.52c-.07,0-.1-.03-.1-.1v-.68c0-.07,.03-.1,.1-.1h3.61c.07,0,.1,.03,.1,.1v.71s-.01,.09-.04,.12l-2.69,3.24s-.02,.02-.01,.04c0,0,.02,.01,.03,.01h2.62c.07,0,.1,.03,.1,.1v.67c0,.07-.03,.1-.1,.1h-3.67c-.07,0-.1-.03-.1-.1Z" fill="#231f20"></path>
  </g>
  <g>
    <path d="M123.87,422.5c1.9-9.15,9.35-16.16,18.59-18.55,13.08-3.38,34.56-2.89,52.11,26.48,0,0,16.4,25.97,6.79,63.62,0,0-1.97-19.12-32.86-32.8-3.41-1.51-6.94-2.75-10.51-3.83-9.65-2.92-38.56-13.54-34.12-34.92Z" fill="#56c96e" stroke="#231f20" stroke-miterlimit="10"></path>
    <path d="M234.62,390.52c-4.18,.78-8.01,2.92-10.56,6.25-4.97,6.49-8.73,20.08,4.05,47.35,0,0,18.85,38.88-11.97,85.28,0,0,49.72-21.67,62.27-67.54,4.34-15.87,3.09-32.81-3.9-47.76-6.33-13.52-18.23-27.63-39.89-23.59Z" fill="#56c96e" stroke="#231f20" stroke-miterlimit="10"></path>
    <path d="M206.8,591.54s-24.11-34.77,17.5-69.93c.94-.79,1.9-1.54,2.87-2.29,7.85-6.08,55.2-46.06,22.6-102.03" fill="none" stroke="#231f20" stroke-linecap="round" stroke-linejoin="round"></path>
    <path d="M171.97,430.99s44.03,28.47,24.93,78.76c0,0-21.25,51.35,1.31,80.74" fill="none" stroke="#231f20" stroke-linecap="round" stroke-linejoin="round"></path>
    <path d="M114,511.69c.05-5.8,3.76-10.94,9.11-13.43,7.55-3.52,20.69-5.64,34.8,10.31,0,0,12.79,13.76,11.55,37.39,0,.12-.17,.15-.22,.04-.93-2.25-5.78-11.52-23.62-15.81-2.25-.54-4.53-.9-6.83-1.16-6.19-.7-24.92-3.94-24.81-17.34Z" fill="#56c96e" stroke="#231f20" stroke-miterlimit="10"></path>
    <path d="M245.48,540.11s30.1-23.44,61.78-.7c0,0,14.65,10.79,10.78,22.24-1.54,4.57-5.77,7.72-10.63,8.52-6.32,1.04-17.08,.72-28.65-8.78,0,0-25.71-19.25-33.29-21.28Z" fill="#56c96e" stroke="#231f20" stroke-miterlimit="10"></path>
    <path d="M213.79,591.02s4.3-72.43,75.2-49.34" fill="none" stroke="#231f20" stroke-linecap="round" stroke-linejoin="round"></path>
    <polygon points="233.12 665.55 166.52 665.55 162.22 588.92 237.42 588.92 233.12 665.55" fill="#fff" stroke="#231f20" stroke-miterlimit="10"></polygon>
    <path d="M164.37,619.89c4.36-2.04,10.9-4.36,18.8-4.2,7.71,.16,12.58,2.59,17.74,4.2,7.42,2.31,18.56,3.88,34.37,0" fill="none" stroke="#231f20" stroke-linecap="round" stroke-linejoin="round"></path>
    <path d="M164.37,629.33c4.36-2.04,10.9-4.36,18.8-4.2,7.71,.16,12.58,2.59,17.74,4.2,7.42,2.31,18.56,3.88,34.37,0" fill="none" stroke="#231f20" stroke-linecap="round" stroke-linejoin="round"></path>
    <path d="M143.96,515.44s29.01,11.55,36.53,73.48" fill="none" stroke="#231f20" stroke-linecap="round" stroke-linejoin="round"></path>
  </g>
</svg>
