<svg id="fbb0e1c9-478e-495c-81c1-88744213927a" data-name="Layer 1" xmlns="http://www.w3.org/2000/svg" width="865.76" height="682.89" viewBox="0 0 865.76 682.89"><path d="M153.88,477.08H279.41a6.84,6.84,0,0,1,6.84,6.84v3.6l15.29-4.75a.86.86,0,0,1,.44,1.61l-15.73,18.87v51a7.17,7.17,0,0,1-7.17,7.17H153.88a7.17,7.17,0,0,1-7.17-7.17v-70A7.17,7.17,0,0,1,153.88,477.08Z" fill="#ccc"/><path d="M729.34,412.1H603.81a6.84,6.84,0,0,0-6.84,6.84v22.25H573.66a.87.87,0,0,0-.45,1.61L597,456.92v32.34a7.17,7.17,0,0,0,7.17,7.17h125.2a7.17,7.17,0,0,0,7.17-7.17v-70A7.17,7.17,0,0,0,729.34,412.1Z" fill="#ccc"/><path d="M522.38,563.26l-143.86-.08a31.33,31.33,0,0,1-31.31-31.35l.07-360.65a31.33,31.33,0,0,1,31.35-31.33l143.86.09a31.34,31.34,0,0,1,31.32,31.34l-.08,360.65A31.33,31.33,0,0,1,522.38,563.26Z" fill="#2f2e41"/><path d="M522.34,152.69h-27.9a6.91,6.91,0,0,0-6.77,7.07v5.06a6.94,6.94,0,0,1-6.78,7.08l-54.36,0a6.94,6.94,0,0,1-6.77-7.09v-5.06a6.93,6.93,0,0,0-6.77-7.08H378.77a21.94,21.94,0,0,0-22,21.94l-.07,352a21.94,21.94,0,0,0,21.93,21.95l143.57.09a22,22,0,0,0,22-21.94l.07-352A22,22,0,0,0,522.34,152.69Z" fill="#fff"/><path d="M524.44,181.29c0,.09-3.63.2-8.1.24s-8.11,0-8.11-.11,3.63-.2,8.1-.23S524.43,181.2,524.44,181.29Z" fill="#2f2e41"/><path d="M524.47,185.44c0,.09-3.63.2-8.1.23s-8.1,0-8.1-.1,3.62-.2,8.1-.24S524.47,185.34,524.47,185.44Z" fill="#2f2e41"/><path d="M524.5,189.58c0,.1-3.62.2-8.1.24s-8.1,0-8.1-.1,3.63-.2,8.1-.24S524.5,189.49,524.5,189.58Z" fill="#2f2e41"/><path d="M371.88,193.63l.43,0,1.18,0,4.36-.11-.12.13c0-1,0-2-.05-3.16,0-.59-.05-1.15,0-1.82a1.69,1.69,0,0,1,1.47-1.35c.7,0,1.32,0,2.08,0a1.69,1.69,0,0,1,1.43,1.68c0,1.48,0,3,0,4.62l-.2-.2,5.5-.06-.21.21c0-2.21,0-4.5-.06-6.85,0-.59,0-1.17,0-1.74a1.79,1.79,0,0,0-.78-1.3q-1.21-1.22-2.4-2.37c-.79-.78-1.56-1.55-2.32-2.29l-1.13-1.11A2.53,2.53,0,0,0,380,177a1.47,1.47,0,0,0-1.27.24c-.33.28-.68.68-1,1l-2,2c-1.24,1.28-2.54,2.46-3.48,3.58a3.85,3.85,0,0,0-.27,2c0,.68,0,1.33,0,1.94,0,1.19,0,2.23,0,3.12s0,1.46,0,2,0,.7,0,.72a5.37,5.37,0,0,1,0-.67c0-.53,0-1.18-.06-2s0-1.95-.07-3.15c0-.62,0-1.28,0-2,0-.36,0-.72,0-1.09a2.18,2.18,0,0,1,.3-1.15c1-1.24,2.23-2.35,3.48-3.67l2-2c.35-.35.64-.69,1.06-1.05a1.9,1.9,0,0,1,1.6-.32,3,3,0,0,1,1.32.95l1.13,1.1,2.32,2.28,2.41,2.37a4.06,4.06,0,0,1,.62.67,1.76,1.76,0,0,1,.29.92c0,.58,0,1.17,0,1.76,0,2.34,0,4.64.05,6.85v.21H388l-5.5,0h-.2v-.2c0-1.6,0-3.14,0-4.61a1.34,1.34,0,0,0-1.11-1.34c-.64,0-1.38,0-2,0a1.36,1.36,0,0,0-1.19,1.07c-.05.55,0,1.19,0,1.75v3.29h-.12l-4.43,0-1.16,0Z" fill="#2f2e41"/><path d="M466.78,468.7a9,9,0,0,1-1.51.1l-4.11.09c-3.47.05-8.26.08-13.56.08s-10.09,0-13.56-.08l-4.11-.09a9.19,9.19,0,0,1-1.51-.1,7.34,7.34,0,0,1,1.51-.11l4.11-.09c3.47,0,8.27-.07,13.56-.07s10.09,0,13.56.07l4.11.09A7.23,7.23,0,0,1,466.78,468.7Z" fill="#2f2e41"/><path d="M527.08,478.13c0,.15-22.09.28-49.33.28s-49.33-.13-49.33-.28,22.08-.27,49.33-.27S527.08,478,527.08,478.13Z" fill="#2f2e41"/><path d="M496.25,487c0,.15-15.19.27-33.91.27s-33.92-.12-33.92-.27,15.18-.27,33.92-.27S496.25,486.86,496.25,487Z" fill="#2f2e41"/><path d="M529,504.29,526,501.22,523,504.13l0-8.8h6ZM526,500.84l.1.09,2.7,2.71v-8h-5.44l0,7.88Z" fill="#2f2e41"/><path d="M447.41,503.15l-1.08-.48a3.06,3.06,0,0,1-1.41.42,3,3,0,1,1,2.24-1Zm-2.53-5.86a2.8,2.8,0,0,0,0,5.6,3,3,0,0,0,1.35-.43l.05,0,.79.35-.18-.78,0,0a2.8,2.8,0,0,0-2.09-4.68Z" fill="#3f3d56"/><path d="M454.36,502.69l-1.24-3-2.32-2.12,5.63,0Zm-3-4.95,2,1.82,1.06,2.58,1.77-4.44Z" fill="#2f2e41"/><rect x="453.01" y="498.48" width="3.67" height="0.21" transform="translate(-198.33 328.78) rotate(-33.05)" fill="#2f2e41"/><path d="M438.53,498.17a3.85,3.85,0,0,1-5.12-1.37,1.81,1.81,0,0,0-1.76,1.43,2.42,2.42,0,0,0,.43,1.7,7.56,7.56,0,0,0,1.24,1.29l1.83,1.63c.62-.56,1.15-1.09,1.77-1.66a6.82,6.82,0,0,0,1.21-1.31A2.34,2.34,0,0,0,438.53,498.17Z" fill="#3f3d56"/><path d="M535.31,512.08s0-.34,0-1,0-1.61,0-2.86c0-2.51,0-6.22,0-11,0-9.59-.06-23.54-.1-41l.18.18-166.84.09h0l.27-.27c0,19.42,0,38.26,0,55.89l-.26-.26,119.39.12,34.85.07,9.35,0h2.42l.84,0-.8,0h-2.4l-9.29,0-34.79.07-119.57.12h-.27V455.92h.28l166.84.09h.18v.18c0,17.54-.08,31.53-.1,41.14,0,4.78,0,8.47,0,11,0,1.23,0,2.18,0,2.82S535.31,512.08,535.31,512.08Z" fill="#2f2e41"/><rect x="379.92" y="461.03" width="36.95" height="46.22" transform="translate(-87.99 879.78) rotate(-89.67)" fill="#ececec"/><path d="M421.61,465.79h-.88l-2.53,0h-9.47l-33.34-.07.25-.24c-.05,11-.12,23.61-.18,36.94.05.07-.51-.51-.26-.26h3.18l3.16,0,6.23,0,12,.08,21.64.15-.22.23c.11-11.1.2-20.3.27-26.76,0-3.22.07-5.75.1-7.51,0-.84,0-1.5,0-2s0-.7,0-.7,0,.21,0,.65,0,1.11,0,1.94c0,1.75,0,4.26,0,7.46,0,6.49,0,15.75,0,26.9V503h-.23l-21.64-.09-12-.06-6.22,0h-6.35l-.28-.28c.09-13.34.17-25.94.24-36.94v-.25h.25l33.49.32,9.42.11,2.47.05.63,0Z" fill="#2f2e41"/><rect x="382.22" y="462.65" width="32.3" height="42.97" transform="translate(-88.02 879.75) rotate(-89.67)" fill="#ccc"/><polygon points="376.79 500.16 391.92 480.17 401.14 492.78 407.48 486.1 419.76 500.4 376.79 500.16" fill="#f5f5f5"/><path d="M405.17,477.79a3.38,3.38,0,1,1-3.36-3.41A3.38,3.38,0,0,1,405.17,477.79Z" fill="#f5f5f5"/><path d="M453.33,226.1a2.75,2.75,0,0,1-.49.05l-1.42,0-5.2.09c-4.4.05-10.47.08-17.18.08s-12.78,0-17.17-.08l-5.21-.09-1.41,0a2.75,2.75,0,0,1-.49-.05,1.61,1.61,0,0,1,.49-.06l1.41,0,5.21-.09c4.39-.05,10.47-.08,17.17-.08s12.78,0,17.18.08l5.2.09,1.42,0A1.61,1.61,0,0,1,453.33,226.1Z" fill="#2f2e41"/><path d="M521.61,430.35l-4.55-4.57-4.34,4.33,0-13.08h8.89Zm-4.55-5.14.14.15,4,4,0-11.93-8.09,0,0,11.71Z" fill="#2f2e41"/><path d="M406,429l-2.13-1a6.09,6.09,0,0,1-2.75.84,5.93,5.93,0,1,1,4.39-2Zm-5-11.54a5.51,5.51,0,0,0,.09,11,5.72,5.72,0,0,0,2.66-.84l.08-.05,1.57.71-.35-1.55.07-.08a5.5,5.5,0,0,0-4.12-9.21Z" fill="#2f2e41"/><path d="M419.64,428.06l-2.44-5.95-4.58-4.17,11.1-.09Zm-6-9.73,3.9,3.58,2.08,5.07,3.48-8.72Z" fill="#2f2e41"/><rect x="416.98" y="419.78" width="7.22" height="0.41" transform="matrix(0.84, -0.55, 0.55, 0.84, -160.99, 297.31)" fill="#1a2e35"/><path d="M388.49,419.18a3.43,3.43,0,0,0-6.77.23,3.44,3.44,0,0,0-6.78-.12,4.63,4.63,0,0,0,.85,3.34,13.64,13.64,0,0,0,2.43,2.55l3.61,3.21c1.22-1.11,2.26-2.15,3.48-3.27a13.65,13.65,0,0,0,2.39-2.59A4.61,4.61,0,0,0,388.49,419.18Z" fill="#8ecb64"/><circle cx="387.47" cy="226.1" r="7.53" fill="#ccc"/><path d="M518.77,387.16c0,.15-31.57.27-70.51.27s-70.51-.12-70.51-.27,31.56-.27,70.51-.27S518.77,387,518.77,387.16Z" fill="#2f2e41"/><path d="M518.77,375.42c0,.15-31.57.27-70.51.27s-70.51-.12-70.51-.27,31.56-.27,70.51-.27S518.77,375.27,518.77,375.42Z" fill="#2f2e41"/><path d="M454.51,399.06c0,.15-17.19.27-38.38.27s-38.38-.12-38.38-.27,17.18-.27,38.38-.27S454.51,398.91,454.51,399.06Z" fill="#2f2e41"/><path d="M445,527a3,3,0,1,1-3-3A3,3,0,0,1,445,527Z" fill="#2f2e41"/><path d="M454.32,527a3,3,0,1,1-3-3A3,3,0,0,1,454.32,527Z" fill="#2f2e41"/><path d="M463.6,527.09a3,3,0,1,1-3-3.06A3,3,0,0,1,463.6,527.09Z" fill="#2f2e41"/><rect x="369.46" y="241" width="166.85" height="102.04" fill="#ccc"/><polygon points="384.86 343.05 432.67 279.06 462.31 319.08 482.4 297.67 521.8 343.01 384.86 343.05" fill="#f5f5f5"/><path d="M474.88,271.21a10.79,10.79,0,1,1-10.79-10.78A10.78,10.78,0,0,1,474.88,271.21Z" fill="#f5f5f5"/><path d="M535.86,437.86c0-2.18-.1-94.36-.25-230.81l.25.24-166.83,0h0l.27-.27c0,86.32,0,166.2,0,230.81l-.22-.22,166.85.22L369,438.09h-.22v-.23c0-64.61,0-144.49-.05-230.81v-.28H369l166.83,0h.25v.25c-.05,68.29-.1,126-.13,166.69,0,20.3-.05,36.34-.06,47.31,0,5.47,0,9.68,0,12.52,0,1.42,0,2.49,0,3.22S535.86,437.86,535.86,437.86Z" fill="#2f2e41"/><path d="M457.46,466.5l3.69-12.41c.64-2.69,1.5-5.86,2.65-9.48,1-3.25,3.69-6.67,6.11-9.13,3.77-3.83,5.56-3.86,8.09-5.89.23-.15.49-.36.71-.48a4,4,0,0,0,1.23-1.07c2.18-2.36.09-6-4.35-5.66-3.33.26-8.78,1.21-17.62,10.34-.11.14-.23.26-.34.4-4.64,6-9-11.2-9.79-17.61a6.73,6.73,0,0,0-9.09-5.22L417.2,420.38a10,10,0,0,0-6.3.21,6.4,6.4,0,0,0-4.1,7.6l8.74,34.9-25.68,85.44h55.35Z" fill="#f9b499"/><path d="M500,388l-17.11,33.52-8.56-2.38-43,35a8.71,8.71,0,0,1-12.1-1.07l-16.37-19s33-14.22,39.12-26-.95-14.44-.95-14.44L456.55,376Z" fill="#0071f2"/><path d="M477.79,319.54S452.74,314,417.5,280.12s-51.8-78.9-56.11-78.68-23.15-8.52-59,69.4-21.72,96-14.59,95.88,55.53-13.64,85.77-10.2,69.09,19.19,69.09,19.19Z" fill="#0071f2"/><path d="M531,362l-8.55,16.24-3.82,7.28A21.21,21.21,0,0,1,491,394.93L437.3,376.22l31.26-71.36,53.63,28.58A21.2,21.2,0,0,1,531,362Z" fill="#0071f2"/><g opacity="0.4"><path d="M531,362l-8.55,16.24-3.82,7.28A21.21,21.21,0,0,1,491,394.93L437.3,376.22l31.26-71.36,53.63,28.58A21.2,21.2,0,0,1,531,362Z"/></g><path d="M305.31,272.26c-19.06,42.21-27,79.83-17.72,84s32.24-26.64,51.31-68.85,27-79.83,17.73-84S324.38,230.05,305.31,272.26Z" fill="#0071f2"/><g opacity="0.5"><path d="M305.31,272.26c-19.06,42.21-27,79.83-17.72,84s32.24-26.64,51.31-68.85,27-79.83,17.73-84S324.38,230.05,305.31,272.26Z"/></g><polygon points="535.59 385.49 521.04 380.92 530.05 363.8 540.96 370.58 535.59 385.49" fill="#0071f2"/><g opacity="0.2"><polygon points="530.05 363.8 521.04 380.92 524.03 381.86 531.35 364.61 530.05 363.8"/></g><path d="M519.83,368c-.22.47-7.43-2.47-16.11-6.55s-15.55-7.79-15.32-8.25,7.43,2.47,16.11,6.56S520.05,367.5,519.83,368Z" fill="#0071f2"/><path d="M524.47,357.84c-.24.46-6.77-2.41-14.58-6.41s-14-7.62-13.73-8.08,6.76,2.41,14.58,6.41S524.7,357.38,524.47,357.84Z" fill="#0071f2"/><path d="M514.38,378.44c-.08.25-1.81-.15-4.56-1-1.38-.42-3-1-4.82-1.59s-3.65-1.59-5.65-2.49c-8-3.7-14-7.31-13.84-7.74s6.74,2.38,14.62,6c2,.9,3.81,1.88,5.54,2.61s3.3,1.35,4.6,1.93C512.87,377.36,514.45,378.2,514.38,378.44Z" fill="#0071f2"/><path d="M344.18,262.88s-21.77-13.5-33.68,15.91,11,34.24,11,34.24A196.08,196.08,0,0,0,344.18,262.88Z" fill="#0071f2"/><g opacity="0.5"><path d="M367.33,227.83c.13,0-.18,2-.85,5.62s-1.67,8.81-3.06,15.21c-.92,3.16-1.93,6.6-3,10.29-.54,1.85-1.11,3.76-1.69,5.73-.29,1-.59,2-.89,3s-.75,2-1.12,3l-4.92,12.68-1.3,3.33c-.42,1.12-1,2.18-1.53,3.29l-3.23,6.67-3.25,6.67c-.55,1.08-1,2.21-1.63,3.23L339,309.64c-2.4,4.06-4.72,8-6.94,11.71-.56.93-1.07,1.87-1.66,2.75l-1.81,2.55-3.47,4.88-6.24,8.74c-4.16,5-7.65,9-10.05,11.78s-3.79,4.23-3.89,4.15,1.09-1.72,3.33-4.61l9.59-12.16,6-8.8,3.35-4.89,1.76-2.55c.57-.88,1.07-1.83,1.62-2.75l6.8-11.69,1.79-3.06c.61-1,1.07-2.14,1.62-3.22q1.57-3.27,3.21-6.63l3.22-6.62c.51-1.09,1.11-2.14,1.53-3.26s.87-2.2,1.3-3.29l5-12.57c.38-1,.82-2,1.15-3l.92-3,1.77-5.67,3.21-10.17c1.51-6.28,2.74-11.39,3.62-15S367.2,227.81,367.33,227.83Z"/></g><g opacity="0.4"><path d="M408.06,431.72c2,3.6,4,7.26,6.95,10.14s7,4.92,11.07,4.51,8-3.81,8-7.93c2,1.48,5,.68,6.61-1.16s2.16-4.4,2.35-6.85c2.67,1.57,6.38.32,8.16-2.21s1.89-6,1-8.93a31.06,31.06,0,0,0-4.28-8.21c2.05.17,4.23.31,6.07-.62s3.08-3.36,2-5.12a5,5,0,0,0-3-1.91c-3.22-1-5.48-1.82-8.83-1.43-.78,0,1.34,8.85-19.7,20.93C412.08,430.06,408.06,431.72,408.06,431.72Z"/></g><path d="M455.45,444.48c0,.1-1.42-.17-3.69-.11a20.82,20.82,0,0,0-15.47,7.42c-1.46,1.73-2.13,3-2.22,2.94a3.29,3.29,0,0,1,.41-.91,17.72,17.72,0,0,1,1.52-2.28A19.66,19.66,0,0,1,451.76,444a16.91,16.91,0,0,1,2.72.24A3.72,3.72,0,0,1,455.45,444.48Z" fill="#ff9a6c"/><path d="M409.43,426.11c3.39,3.26,5.71,6.85,9.26,10.13,1.62,1.49,4.13,4.32,6.29,4.69s3.56.09,4.41-1.93c.7-1.64-.55-3.88-1.41-5.23-2.26-3.56-4.43-6.33-6.13-9.1-.79-1.29.24-1.56.61-1,1.64,1.69,4.07,3.16,5.53,5,2,2.52,2.36,5.86,7.6,4.8a4.82,4.82,0,0,0,1.94-.8c2-1.51,2.06-4.14,1.23-6.24a17.08,17.08,0,0,0-2.92-4.41c2.23,2.52,4.66,5.17,8.21,5.46a4.89,4.89,0,0,0,5-2.69c1.05-2.38-.45-4.68-2-6.54a68.27,68.27,0,0,0-8.9-9.09,6.76,6.76,0,0,0-4.33-1.61c-1.83,0-4.12.34-5.26,1.93a7.13,7.13,0,0,0-1.42,5.45s-4.6-2.33-8.29.11a11.75,11.75,0,0,0-4.61,6.63Z" fill="#f9b499"/><path d="M433.89,406.58a5.5,5.5,0,0,1-.65-6.21c.78-1.54,1.77-3,2.77-3.36,4.37-1.48,23.47,1.83,23.3,6.07s-1.57,6.27-11.94,4.77c-1.82-.26-4.68-.62-4.68-.62l-2.5,3.75Z" fill="#ffbe9d"/><path d="M437.31,424.34a33.76,33.76,0,0,0-4.57-5.54,34.33,34.33,0,0,0-6-4,6.27,6.27,0,0,1,2,.71,18.49,18.49,0,0,1,4.29,2.9,17.75,17.75,0,0,1,3.3,4A5.84,5.84,0,0,1,437.31,424.34Z" fill="#ff9a6c"/><path d="M440.53,411.31c-.1.09-1.36-.94-3.08-2a22.36,22.36,0,0,0-2.24-1.24c-.59-.28-1-.35-1-.44s.45-.12,1.11.08a10.46,10.46,0,0,1,2.4,1.13C439.5,409.93,440.65,411.19,440.53,411.31Z" fill="#ff9a6c"/><path d="M443.73,407.37a8.35,8.35,0,0,1-3.68-.42,6.69,6.69,0,0,1-2.35-1.23c-.53-.45-.74-.82-.69-.87a15.15,15.15,0,0,0,3.2,1.58C442.11,407,443.76,407.19,443.73,407.37Z" fill="#ff9a6c"/><path d="M425.17,429.59a13.76,13.76,0,0,1-1.75-2.27,20.62,20.62,0,0,0-4.45-5.07,9,9,0,0,0-6.32-1.67,11.45,11.45,0,0,0-2.66.85s.18-.22.61-.49a6,6,0,0,1,2-.74,8.9,8.9,0,0,1,6.69,1.61,18.35,18.35,0,0,1,4.47,5.3A16.59,16.59,0,0,1,425.17,429.59Z" fill="#ff9a6c"/><path d="M439.78,471.84a114.68,114.68,0,0,1-15.67,1.7,114.22,114.22,0,0,1,15.67-1.7Z" fill="#ff9a6c"/><path d="M565.92,217.82l3.26-5a21,21,0,0,0,3.43-11.49V135.22a7.17,7.17,0,0,1,7.17-7.17H705a7.17,7.17,0,0,1,7.18,7.17v70a7.17,7.17,0,0,1-7.18,7.18H583a12.53,12.53,0,0,0-5.63,1.33l-10.43,5.21A.77.77,0,0,1,565.92,217.82Z" fill="#ccc"/><path d="M275.49,293.59l-3.27-5a21,21,0,0,1-3.42-11.48V211a7.17,7.17,0,0,0-7.18-7.17H136.42a7.17,7.17,0,0,0-7.17,7.17v70a7.17,7.17,0,0,0,7.17,7.18h122a12.54,12.54,0,0,1,5.64,1.33l10.43,5.21A.77.77,0,0,0,275.49,293.59Z" fill="#ccc"/><rect x="586.07" y="148.14" width="37.71" height="43.86" opacity="0.2"/><rect x="629.1" y="148.14" width="68.45" height="6.56" opacity="0.2"/><rect x="629.1" y="160.84" width="68.45" height="6.56" opacity="0.2"/><rect x="629.1" y="172.11" width="68.45" height="6.56" opacity="0.2"/><rect x="629.1" y="184.82" width="48.36" height="6.56" opacity="0.2"/><path d="M600,180.67a2.88,2.88,0,1,1-2.68-3.43h10.63a.91.91,0,0,0,1-.52,13.28,13.28,0,0,0,.36-1.29H595.9c-.65,0-1-.2-1.09-.74l-2.43-10.2a.87.87,0,0,1,.57-1.09,2.69,2.69,0,0,1,.7-.06q9,0,18,0c.33,0,.51-.06.56-.43a14.9,14.9,0,0,1,.36-1.5,2.49,2.49,0,0,1,2.41-1.88c1,0,2,0,3,0a.92.92,0,0,1,1,.88.91.91,0,0,1-1,.9h-2.77c-.58,0-.77.14-.91.72-.72,3-1.43,6-2.15,9-.52,2.2-1.05,4.4-1.59,6.63,1.41,1.22,1.77,2.55,1,3.89a2.89,2.89,0,0,1-3.37,1.38,2.82,2.82,0,0,1-1.56-1.15,3,3,0,0,1-.3-2.72H600A11.19,11.19,0,0,1,600,180.67Zm5.09-12.2.27-3.34h-4.6l.27,3.34Zm5.63,0a.37.37,0,0,0,.24-.22c.26-1,.5-2,.75-3.13h-4.56l-.28,3.36Zm-11.75-3.36h-4.55c.08.35.15.68.23,1,.16.69.31,1.37.49,2,0,.12.17.3.27.3,1.26,0,2.53,0,3.84,0Zm5.71,8.51.26-3.34h-3.76l.26,3.34Zm-5.29-3.35H595.6l.22.9c.16.72.31,1.43.51,2.14a.51.51,0,0,0,.35.32c1,0,1.9,0,2.94,0Zm11.1,0c-1.22,0-2.37,0-3.53,0a.37.37,0,0,0-.25.24c-.09,1-.16,2.05-.23,3.11h3.21Zm-.32,9.89a1.13,1.13,0,1,0-1.12,1.09A1.12,1.12,0,0,0,610.13,180.15Zm-13,1.09a1.12,1.12,0,0,0,1.15-1.1,1.12,1.12,0,1,0-2.24,0A1.12,1.12,0,0,0,597.11,181.24Z" fill="#ccc"/><rect x="139.77" y="224.51" width="37.71" height="43.86" opacity="0.2"/><rect x="182.8" y="224.51" width="68.45" height="6.56" opacity="0.2"/><rect x="182.8" y="237.21" width="68.45" height="6.56" opacity="0.2"/><rect x="182.8" y="248.49" width="68.45" height="6.56" opacity="0.2"/><rect x="182.8" y="261.19" width="48.36" height="6.56" opacity="0.2"/><path d="M153.66,257a2.88,2.88,0,1,1-2.68-3.43c2.46,0,4.92,0,7.38,0,1.08,0,2.16,0,3.24,0a.94.94,0,0,0,1-.53,10.29,10.29,0,0,0,.35-1.28H149.59c-.64,0-1-.2-1.08-.74q-1.23-5.12-2.43-10.21a.87.87,0,0,1,.57-1.09,2.65,2.65,0,0,1,.69-.06h18c.33,0,.5-.07.56-.44s.23-1,.36-1.5a2.46,2.46,0,0,1,2.41-1.87c1,0,2,0,3,0a.92.92,0,0,1,1,.87.93.93,0,0,1-1,.91h-2.78c-.58,0-.77.15-.91.72-.71,3-1.43,6-2.14,9-.53,2.19-1.06,4.39-1.59,6.62,1.41,1.22,1.77,2.55,1,3.9a2.9,2.9,0,0,1-3.38,1.37,2.83,2.83,0,0,1-1.55-1.15,3,3,0,0,1-.31-2.72h-6.33A12.77,12.77,0,0,1,153.66,257Zm5.08-12.2.28-3.34h-4.6l.27,3.34Zm5.63,0c.09,0,.22-.13.25-.22.25-1,.49-2,.75-3.13H160.8l-.27,3.36Zm-11.74-3.36h-4.55c.08.35.15.68.22,1,.16.69.32,1.37.49,2,0,.12.18.3.27.31,1.27,0,2.53,0,3.85,0Zm5.71,8.52.26-3.34h-3.77l.27,3.34Zm-5.3-3.36H149.3c.08.32.15.61.21.91.17.71.32,1.43.51,2.13a.5.5,0,0,0,.35.32c.95,0,1.91,0,2.94,0Zm11.11,0h-3.53a.36.36,0,0,0-.25.24c-.09,1-.16,2.06-.24,3.11h3.22Zm-.33,9.89a1.14,1.14,0,0,0-1.12-1.14,1.16,1.16,0,0,0-1.12,1.11,1.12,1.12,0,0,0,2.24,0Zm-13,1.1a1.14,1.14,0,0,0,1.15-1.11,1.16,1.16,0,0,0-1.14-1.13,1.12,1.12,0,0,0,0,2.24Z" fill="#ccc"/><rect x="159.4" y="497.32" width="37.71" height="43.86" opacity="0.2"/><rect x="202.44" y="497.32" width="68.45" height="6.56" opacity="0.2"/><rect x="202.44" y="510.02" width="68.45" height="6.56" opacity="0.2"/><rect x="202.44" y="521.3" width="68.45" height="6.56" opacity="0.2"/><rect x="202.44" y="534" width="48.36" height="6.56" opacity="0.2"/><path d="M173.3,529.85a2.88,2.88,0,1,1-2.68-3.43h10.62a1,1,0,0,0,1-.53,10.29,10.29,0,0,0,.35-1.28H169.23c-.65,0-.95-.2-1.08-.75q-1.23-5.1-2.44-10.2a.88.88,0,0,1,.57-1.09,2.76,2.76,0,0,1,.7-.06h18c.34,0,.51-.07.57-.44s.22-1,.35-1.5a2.47,2.47,0,0,1,2.41-1.87h3a.91.91,0,0,1,1,.87c0,.53-.4.9-1,.91h-2.77c-.58,0-.77.15-.91.72q-1.08,4.49-2.14,9c-.53,2.2-1.06,4.4-1.59,6.63,1.4,1.22,1.76,2.55,1,3.9a2.88,2.88,0,0,1-3.37,1.37,2.8,2.8,0,0,1-1.55-1.15,3,3,0,0,1-.31-2.72h-6.33A12.77,12.77,0,0,1,173.3,529.85Zm5.08-12.2.28-3.34h-4.6l.26,3.34Zm5.63,0a.35.35,0,0,0,.24-.22c.26-1,.5-2.05.75-3.13h-4.56l-.28,3.36Zm-11.74-3.36h-4.55c.07.35.14.68.22,1,.16.69.31,1.37.49,2.05,0,.12.18.3.27.3,1.26,0,2.53,0,3.85,0Zm5.71,8.52.26-3.34h-3.77l.26,3.34Zm-5.3-3.36h-3.74c.07.32.14.61.21.91.17.71.32,1.43.51,2.13a.53.53,0,0,0,.35.32c1,0,1.9,0,2.94,0Zm11.1,0h-3.52a.34.34,0,0,0-.25.24c-.09,1-.16,2.06-.24,3.11H183Zm-.32,9.89a1.12,1.12,0,1,0-1.11,1.1A1.13,1.13,0,0,0,183.46,529.33Zm-13,1.1a1.15,1.15,0,0,0,1.16-1.11,1.17,1.17,0,0,0-1.15-1.13,1.13,1.13,0,0,0-1.09,1.12A1.12,1.12,0,0,0,170.44,530.43Z" fill="#ccc"/><rect x="610.42" y="432.72" width="37.71" height="43.86" opacity="0.2"/><rect x="653.46" y="432.72" width="68.45" height="6.56" opacity="0.2"/><rect x="653.46" y="445.43" width="68.45" height="6.56" opacity="0.2"/><rect x="653.46" y="456.7" width="68.45" height="6.56" opacity="0.2"/><rect x="653.46" y="469.41" width="48.36" height="6.56" opacity="0.2"/><path d="M624.32,465.26a2.88,2.88,0,0,1-3.23,2.33,2.9,2.9,0,0,1,.55-5.77h10.62a.93.93,0,0,0,1-.53,10.29,10.29,0,0,0,.35-1.28H620.25c-.64,0-1-.2-1.08-.74q-1.23-5.1-2.43-10.2a.86.86,0,0,1,.57-1.09,2.65,2.65,0,0,1,.69-.06h18c.33,0,.5-.07.56-.43a13.25,13.25,0,0,1,.36-1.51,2.46,2.46,0,0,1,2.41-1.87h3a.9.9,0,1,1,0,1.78h-2.78c-.58,0-.77.15-.91.73-.71,3-1.43,6-2.14,9-.53,2.2-1.06,4.4-1.59,6.62,1.41,1.23,1.77,2.55,1,3.9a2.9,2.9,0,0,1-3.38,1.38,2.83,2.83,0,0,1-1.55-1.15,3,3,0,0,1-.31-2.72h-6.33A12.79,12.79,0,0,1,624.32,465.26Zm5.08-12.2.28-3.34h-4.6l.27,3.34Zm5.63,0a.32.32,0,0,0,.24-.21c.26-1,.5-2.06.76-3.13h-4.57l-.27,3.35C632.5,453.07,633.77,453.08,635,453.06Zm-11.74-3.35h-4.55c.08.35.15.67.22,1,.16.68.31,1.37.49,2.05,0,.12.18.3.27.3,1.27,0,2.53,0,3.85,0Zm5.71,8.51.26-3.34h-3.77l.26,3.34Zm-5.3-3.36H620c.08.33.15.62.21.91.17.71.32,1.43.51,2.14a.51.51,0,0,0,.35.31c1,0,1.91,0,2.94,0Zm11.11,0c-1.22,0-2.38,0-3.53,0a.36.36,0,0,0-.25.24c-.09,1-.16,2-.24,3.11H634Zm-.33,9.88a1.12,1.12,0,1,0-1.11,1.1A1.13,1.13,0,0,0,634.48,464.73Zm-13,1.1a1.14,1.14,0,0,0,1.15-1.11,1.15,1.15,0,0,0-1.14-1.12,1.13,1.13,0,0,0-1.1,1.11A1.11,1.11,0,0,0,621.47,465.83Z" fill="#ccc"/><polygon points="223.51 310.01 225.78 314.17 229.95 316.45 225.78 318.73 223.51 322.89 221.23 318.73 217.07 316.45 221.23 314.17 223.51 310.01" fill="#e1e1e1"/><path d="M706,242.81a7.9,7.9,0,0,0-15.59.46,7.9,7.9,0,0,0-15.59-.32,10.66,10.66,0,0,0,1.92,7.69,31.7,31.7,0,0,0,5.57,5.89c2.84,2.53,5.46,4.9,8.3,7.43,2.81-2.55,5.21-4.95,8-7.5a31.69,31.69,0,0,0,5.52-5.94A10.67,10.67,0,0,0,706,242.81Z" fill="#2f2e41"/><path d="M699.45,373.51l2-.4,3.17-7-.79-4s3.07-.81,3.74,4.52.81,3.91.81,3.91,6.61-1.28,7.27-.82c.48.34,2,6.86,2.74,10.4a3.92,3.92,0,0,1-2,4.42,3.15,3.15,0,0,1-.69.24c-1.65.33-10.33.66-10.33.66l-3.47.69Z" fill="#e1e1e1"/><polygon points="693.48 373.55 697.44 387.06 700.89 386.38 698.22 372.9 693.48 373.55" fill="#e1e1e1"/><path d="M691.39,97.83h0a20.86,20.86,0,0,1-27.88-9.63h0a20.86,20.86,0,0,1,9.64-27.88h0A20.85,20.85,0,0,1,701,70h0A20.86,20.86,0,0,1,691.39,97.83Z" fill="#8ecb64"/><path d="M677.12,83.74a.5.5,0,0,0,.48-.64c-.05-.25-.18-.88-.24-1.15s-.15-.46-.53-.62a4.12,4.12,0,0,1-2.06-2.1A6.74,6.74,0,0,1,678.09,70c3.43-1.68,6.34-.49,7.71,2.31,1.79,3.69,1.67,7.6-.75,8.78a2.2,2.2,0,0,1-3.22-1.49c-.4-1.8-.51-3.92-1.08-5.09a1.91,1.91,0,0,0-2.66-1.08c-1.37.67-1.78,2.62-.86,4.51a5.49,5.49,0,0,0,1.4,1.83s1.48,6.62,1.74,7.77a16.06,16.06,0,0,0,2.33,4.89.19.19,0,0,0,.34-.08,15,15,0,0,0,.27-5.31c-.12-.65-.81-4-.81-4a4.06,4.06,0,0,0,3.9.08c4.12-2,5.08-7.11,2.64-12.13-1.84-3.79-6.78-5.77-11.66-3.39-6.08,3-7,8.81-5.26,12.44C673.19,82.32,675,83.88,677.12,83.74Z" fill="#fff"/><path d="M341.58,94.19h0a23.34,23.34,0,0,1-13.47-30.13h0a23.34,23.34,0,0,1,30.13-13.47h0a23.34,23.34,0,0,1,13.47,30.13h0A23.34,23.34,0,0,1,341.58,94.19Z" fill="#8ecb64"/><path d="M362.09,76.35a12.57,12.57,0,0,0-23.38-9.18l-.21.51a12.43,12.43,0,0,0-.62,6.66l-4.5,5.44,7.29.42a12.67,12.67,0,0,0,5.12,3.62A12.52,12.52,0,0,0,362,76.65C362,76.55,362.06,76.45,362.09,76.35ZM346.5,82a10.5,10.5,0,0,1-4.81-3.7L337.43,78l2.62-3.17a10.4,10.4,0,0,1,.32-6.46,9.7,9.7,0,0,1,.41-.93,10.57,10.57,0,0,1,19.59,7.7,7.92,7.92,0,0,1-.26.78A10.53,10.53,0,0,1,346.5,82Z" fill="#fff" fill-rule="evenodd"/><path d="M354.72,76.57c-.23-.25-1.38-1.48-1.61-1.68s-.4-.31-.7-.1-1.11.64-1.34.76-.42.09-.66-.16a8.66,8.66,0,0,1-1.77-2.31,8.91,8.91,0,0,1-.84-2.58c-.06-.35.15-.45.35-.53l.62-.34.16-.1.31-.27a.55.55,0,0,0,.17-.51c0-.17-.06-1.79-.08-2.46s-.3-.65-.47-.72-.35-.16-.54-.24a1.13,1.13,0,0,0-.9.07,3.38,3.38,0,0,0-1.92,2,3.65,3.65,0,0,0-.22,1,6.65,6.65,0,0,0,.27,2.37A12.63,12.63,0,0,0,348.81,77c2.5,2.26,2.64,1.88,3.19,2a3,3,0,0,0,2.46-.62,2.61,2.61,0,0,0,.69-1.29C355.12,77,355,76.82,354.72,76.57Z" fill="#fff" fill-rule="evenodd"/><path d="M620.4,592.39h0a30.66,30.66,0,0,1-30.66-30.65h0a30.66,30.66,0,0,1,30.66-30.65h0a30.65,30.65,0,0,1,30.65,30.65h0A30.65,30.65,0,0,1,620.4,592.39Z" fill="#8ecb64"/><path d="M604.06,572a19,19,0,0,0,10.28,3c12.44,0,19.47-10.5,19-19.93a13.65,13.65,0,0,0,3.35-3.47,13.46,13.46,0,0,1-3.85,1,6.69,6.69,0,0,0,2.94-3.7,13.24,13.24,0,0,1-4.25,1.62,6.71,6.71,0,0,0-11.42,6.12,19,19,0,0,1-13.81-7,6.71,6.71,0,0,0,2.07,8.95,6.6,6.6,0,0,1-3-.84,6.7,6.7,0,0,0,5.37,6.66,6.65,6.65,0,0,1-3,.11,6.7,6.7,0,0,0,6.25,4.66A13.44,13.44,0,0,1,604.06,572Z" fill="#fff"/><path d="M609,355.71h0a30.65,30.65,0,0,1-30.65-30.65h0A30.65,30.65,0,0,1,609,294.41h0a30.66,30.66,0,0,1,30.66,30.65h0A30.66,30.66,0,0,1,609,355.71Z" fill="#8ecb64"/><path d="M611.6,341.83a16.85,16.85,0,0,1-2.15-.52,7.85,7.85,0,0,1-5.14-6.38,8.69,8.69,0,0,1-.1-1.45c0-3.43,0-6.86,0-10.3v-.44h-3.89a1,1,0,0,1-1.14-1.13V316a1,1,0,0,1,1.12-1.11h.82a2.93,2.93,0,0,0,3.09-3c0-.47,0-.93,0-1.39a1,1,0,0,1,1.12-1.11h5.61a1,1,0,0,1,1.11,1.11v4.41h3.88c.78,0,1.14.36,1.14,1.15,0,1.86,0,3.71,0,5.57a1,1,0,0,1-1.12,1.13h-3.9v10.8c0,.45.06.51.5.37a1.74,1.74,0,0,0,.47-.24l1.51-1a.94.94,0,0,1,1.44.3q1.57,2.41,3.14,4.83a.91.91,0,0,1-.22,1.37,15.72,15.72,0,0,1-3.67,2.1c-.69.23-1.43.34-2.14.51l-.22.05Z" fill="#fff"/><path d="M249.54,398.9h0a30.81,30.81,0,0,1-37.11-22.83h0A30.8,30.8,0,0,1,235.26,339h0a30.8,30.8,0,0,1,37.11,22.83h0A30.81,30.81,0,0,1,249.54,398.9Z" fill="#8ecb64"/><path d="M239.19,355.46c4.39-1,4.91-1.16,6.66-1.49a9.25,9.25,0,0,1,3.19-.16,5.59,5.59,0,0,1,3.86,2.38,9.25,9.25,0,0,1,1.29,2.91c.49,1.72.64,2.23,1.68,6.62s1.15,4.91,1.49,6.66a9.25,9.25,0,0,1,.16,3.19,5.59,5.59,0,0,1-2.38,3.86,9.25,9.25,0,0,1-2.91,1.29c-1.72.5-2.23.64-6.62,1.68s-4.91,1.15-6.67,1.49a9.19,9.19,0,0,1-3.18.16,5.24,5.24,0,0,1-2.18-.78,5.14,5.14,0,0,1-1.68-1.6,9.2,9.2,0,0,1-1.3-2.91c-.49-1.72-.63-2.23-1.67-6.62s-1.16-4.91-1.49-6.66a9.25,9.25,0,0,1-.16-3.19,5.11,5.11,0,0,1,.78-2.18,5.21,5.21,0,0,1,1.59-1.68,9.41,9.41,0,0,1,2.92-1.3c1.72-.49,2.23-.63,6.62-1.67m-.71-3c-4.46,1.06-5,1.21-6.75,1.71a12.66,12.66,0,0,0-3.81,1.71,8.24,8.24,0,0,0-2.45,2.59,8.34,8.34,0,0,0-1.21,3.36,12.57,12.57,0,0,0,.19,4.18c.34,1.77.45,2.33,1.52,6.79s1.21,5,1.71,6.76a12.34,12.34,0,0,0,1.71,3.8,8.27,8.27,0,0,0,2.59,2.46,8.17,8.17,0,0,0,3.36,1.2,12.46,12.46,0,0,0,4.17-.18c1.78-.34,2.34-.45,6.8-1.52s5-1.21,6.76-1.71a12.58,12.58,0,0,0,3.8-1.71,8.62,8.62,0,0,0,3.66-6,12.48,12.48,0,0,0-.18-4.17c-.34-1.77-.46-2.33-1.52-6.8s-1.21-5-1.71-6.75a12.22,12.22,0,0,0-1.72-3.8,8.13,8.13,0,0,0-2.58-2.46,8.43,8.43,0,0,0-3.37-1.21,12.52,12.52,0,0,0-4.17.19c-1.77.34-2.33.45-6.8,1.52" fill="#fff"/><path d="M240.39,360.49a8.68,8.68,0,1,0,10.45,6.43,8.68,8.68,0,0,0-10.45-6.43m3.31,13.92a5.63,5.63,0,1,1,4.18-6.79,5.63,5.63,0,0,1-4.18,6.79" fill="#fff"/><path d="M251.05,357.6a2,2,0,1,1-2.44-1.5,2,2,0,0,1,2.44,1.5" fill="#fff"/><path d="M362.49,624.73h0a18.24,18.24,0,0,1-18.24-18.24h0a18.24,18.24,0,0,1,18.24-18.24h0a18.24,18.24,0,0,1,18.24,18.24h0A18.24,18.24,0,0,1,362.49,624.73Z" fill="#0071f2"/><path d="M359.71,617.51h4.44V606.39h3.1l.33-3.72h-3.43v-2.12c0-.88.18-1.22,1-1.22h2.41v-3.87H364.5c-3.3,0-4.79,1.46-4.79,4.24v3H357.4v3.77h2.31Z" fill="#fff"/><polygon points="574.22 57.09 575.84 60.05 578.8 61.67 575.84 63.29 574.22 66.25 572.6 63.29 569.64 61.67 572.6 60.05 574.22 57.09" fill="#2f2e41"/><polygon points="422.67 84.38 424.29 87.34 427.25 88.96 424.29 90.58 422.67 93.54 421.05 90.58 418.09 88.96 421.05 87.34 422.67 84.38" fill="#2f2e41"/><polygon points="260.63 437.53 263.43 442.64 268.53 445.43 263.43 448.22 260.63 453.33 257.84 448.22 252.74 445.43 257.84 442.64 260.63 437.53" fill="#2f2e41"/><polygon points="246.36 72.08 250.1 78.92 256.93 82.66 250.1 86.4 246.36 93.24 242.62 86.4 235.78 82.66 242.62 78.92 246.36 72.08" fill="#2f2e41"/><polygon points="432.98 614.17 436.72 621 443.54 624.73 436.72 628.46 432.98 635.28 429.25 628.46 422.43 624.73 429.25 621 432.98 614.17" fill="#2f2e41"/><polygon points="677.64 526.38 681.37 533.2 688.2 536.93 681.37 540.66 677.64 547.49 673.91 540.66 667.09 536.93 673.91 533.2 677.64 526.38" fill="#2f2e41"/><circle cx="508.35" cy="74.41" r="26.8" fill="#0071f2"/><path d="M510.29,72.87A8.43,8.43,0,0,0,515.22,65a7.93,7.93,0,1,0-15.83.13,8.41,8.41,0,0,0,5.15,7.81c-12.16,2-11.43,15.23-11.43,15.23l28.8-.24S522.39,74.54,510.29,72.87Z" fill="#fff"/><circle cx="703.13" cy="322.52" r="13.56" fill="#0071f2"/><path d="M704.12,321.74a4.26,4.26,0,0,0,2.49-4,4,4,0,1,0-8,.07,4.26,4.26,0,0,0,2.61,3.95c-6.15,1-5.79,7.71-5.79,7.71l14.57-.12S710.24,322.58,704.12,321.74Z" fill="#fff"/></svg>