<?xml version="1.0" encoding="UTF-8"?>
<svg xmlns="http://www.w3.org/2000/svg" id="a" width="865.76" height="682.89" viewBox="0 0 865.76 682.89">
  <g>
    <g>
      <path d="M505.49,53.38h-58.6l-8.57,9.53h-80.08l-6.81-9.53h-62c-12.87,0-23.3,10.42-23.31,23.29h0V476.78c0,12.87,10.44,23.3,23.31,23.29h216.1c12.86,0,23.29-10.43,23.3-23.29V76.67c0-12.87-10.44-23.3-23.31-23.29-.01,0-.02,0-.03,0Z" fill="#fff"></path>
      <path d="M289.42,500.57c-6.35,0-12.33-2.47-16.82-6.96-4.5-4.49-6.98-10.47-6.98-16.83V76.67c0-6.36,2.48-12.33,6.98-16.83,4.49-4.49,10.47-6.96,16.82-6.96h62.27l6.81,9.53h79.6l8.57-9.53h58.86c6.35,0,12.33,2.47,16.82,6.96,4.5,4.49,6.98,10.47,6.98,16.83V476.78c0,13.12-10.68,23.79-23.8,23.79h-216.11Zm0-446.69c-6.09,0-11.81,2.37-16.11,6.67-4.31,4.3-6.68,10.03-6.69,16.12V476.78c0,6.09,2.38,11.81,6.68,16.12,4.31,4.3,10.03,6.67,16.11,6.67h216.11c12.57,0,22.79-10.22,22.8-22.79V76.67c0-6.09-2.38-11.81-6.69-16.12-4.31-4.3-10.03-6.67-16.11-6.67h-58.42l-8.57,9.53h-80.56l-6.81-9.53h-61.75Z" fill="#002346"></path>
    </g>
    <g>
      <path d="M685.93,635.13c-.55,5.78-12,6-18.61,5.59-2.37-.16-4.7-.71-6.88-1.65-3.43-1.41-5,.13-5,.13-8.79,4.45-17.51,0-17.51,0-13.93-7.41-13.16-14.08-13.16-14.08,2.71-12.6,17.41-7.78,17.41-7.78,7.74,1.85,7.69-8.18,7.69-8.18-.3-3.9,.23-6.19,1-7.52h0c1.42-2.34,2.55-1.34,2.55-1.34,0,0,25.94,21.12,26.31,7.78,1.19,.73,4,3.51,4.59,5.67,2.32,7.63,1.61,21.38,1.61,21.38Z" fill="#f69074"></path>
      <path d="M646.97,641.69c-5.16,0-9.02-1.93-9.26-2.05-14.08-7.49-13.46-14.3-13.43-14.58,.75-3.52,2.46-6.04,5.07-7.54,5.39-3.1,12.69-.76,12.99-.66,1.79,.43,3.29,.19,4.42-.71,2.61-2.07,2.61-6.94,2.61-6.99-.27-3.46,.09-6.09,1.07-7.77,.65-1.07,1.35-1.67,2.1-1.78,.71-.11,1.17,.27,1.22,.32,.16,.13,17.84,14.44,23.7,11.75,1.14-.52,1.72-1.71,1.78-3.61l.02-.87,.74,.45c1.35,.83,4.2,3.72,4.81,5.96,2.31,7.61,1.66,20.97,1.63,21.54v.02c-.6,6.25-12.25,6.47-19.14,6.04-2.44-.16-4.81-.73-7.05-1.69-3.04-1.25-4.4-.02-4.46,.03l-.12,.08c-3.03,1.54-6.04,2.05-8.7,2.05Zm-10.91-24.75c-2.04,0-4.28,.34-6.22,1.45-2.35,1.35-3.89,3.65-4.58,6.83,0,.01-.48,6.42,12.91,13.53,.08,.04,8.56,4.26,16.99,.02,.36-.3,2.13-1.55,5.47-.17,2.14,.92,4.4,1.46,6.72,1.61,5.26,.33,17.53,.48,18.08-5.13,.02-.46,.65-13.83-1.59-21.2-.46-1.67-2.41-3.81-3.68-4.87-.23,1.78-1,2.97-2.29,3.57-6.42,2.94-24.02-11.29-24.77-11.9-.01,0-.18-.14-.44-.09-.42,.08-.9,.54-1.37,1.3-.87,1.5-1.18,3.93-.93,7.22,0,.26,0,5.45-2.99,7.81-1.39,1.1-3.18,1.4-5.32,.89-.07-.02-2.77-.89-6.01-.89Z" fill="#002346"></path>
    </g>
    <g>
      <path d="M685.43,642.82c-.8,1.68-2.52,2.71-4.38,2.62l-53.93-1.44c-4.64-.37-3.48-11.86-3.48-11.86,0-9.26,1.16-7,1.16-7,0,0-.79,6.65,13.21,14.06,0,0,8.72,4.45,17.51,0,0,0,1.54-1.54,5-.13,2.18,.94,4.51,1.49,6.88,1.65,6.61,.38,18.06,.19,18.61-5.59,.61,3.63,.15,6.09-.58,7.69Z" fill="#fff"></path>
      <path d="M681.28,645.94c-.08,0-.17,0-.25,0l-53.92-1.44c-.9-.07-1.64-.47-2.25-1.2-2.51-3.01-1.75-10.88-1.72-11.21,0-7.38,.73-7.56,1.21-7.67,.42-.1,.75,.2,.9,.5l.07,.14-.02,.15c0,.06-.5,6.44,12.95,13.56,.08,.04,8.56,4.25,16.99,.03,.36-.31,2.11-1.55,5.47-.18,2.14,.92,4.4,1.46,6.72,1.61,5.26,.31,17.55,.41,18.08-5.14l.36-3.79,.63,3.75c.54,3.21,.33,5.9-.62,7.98h0c-.85,1.8-2.64,2.92-4.6,2.92Zm-56.87-19.51c-.14,.93-.27,2.63-.27,5.7-.01,.13-.76,7.83,1.49,10.52,.43,.52,.93,.79,1.53,.84l53.9,1.44c1.68,.09,3.2-.83,3.91-2.33,.65-1.42,.91-3.23,.78-5.32-2.77,4.12-12.38,4.28-18.39,3.93-2.44-.16-4.81-.73-7.05-1.69-3.06-1.25-4.4-.02-4.45,.03l-.12,.09c-8.92,4.51-17.6,.19-17.96,0-10.59-5.61-12.9-10.82-13.37-13.21Z" fill="#002346"></path>
    </g>
    <path d="M644.5,626.72c-.05,.15-.19,.26-.35,.26h-.12c-5.28-1.79-6.21-7.42-6.31-10.46l.74,.08c.11,2.88,1,8,5.81,9.67,.18,.07,.28,.26,.23,.45Z" fill="#fff"></path>
    <g>
      <path d="M682.01,495.07v44.46c-13.71,7.41-28.9,.16-28.9,.16v-21.38c0-1.04-.85-1.89-1.89-1.89h-.21c-.95,.12-1.66,.92-1.66,1.88v24.7c-3.78,6-30,0-30,0v-44.75c8.3,1.66,19.68,2.48,34.73,.8h0c.78-.08,1.57-.18,2.37-.28-.01,0,13.69-2.56,25.56-3.7Z" fill="#fbe493"></path>
      <path d="M639.75,546.15c-8.72,0-19.81-2.5-20.52-2.66l-.39-.09v-45.76l.6,.12c9.91,1.98,21.54,2.25,34.58,.79,.7-.07,1.4-.16,2.11-.25l.25-.03v.04c.77-.26,2.83-.58,8.31-1.46,4.48-.71,11.12-1.69,17.26-2.28l.55-.05v45.31l-.26,.14c-13.77,7.45-29.2,.25-29.35,.17l-.28-.14v-21.7c0-.77-.62-1.39-1.39-1.39h-.21c-.64,.08-1.16,.68-1.16,1.38v24.84l-.08,.12c-1.37,2.17-5.36,2.88-10.02,2.88Zm-19.9-3.55c7.42,1.66,25.87,4.68,29,.25v-24.55c0-1.21,.9-2.23,2.1-2.38h.27c1.32,0,2.39,1.07,2.39,2.39v21.06c2.12,.92,15.66,6.3,27.9-.14v-43.61c-10.52,1.04-22.13,3.12-24.52,3.56v.03s-.73,.09-.73,.09c-.72,.09-1.43,.18-2.13,.25-12.87,1.44-24.4,1.2-34.28-.69v43.74Z" fill="#002346"></path>
    </g>
    <g>
      <path d="M649.33,543l-6.6,69.52c-1.8,7.47-13.63,.08-20.68-5.12h0c-3.09-2.28-5.25-4.14-5.25-4.14l2.53-60.26c11.32,2.37,18.38,2.88,22.77,2.63,6.46-.4,7.18-2.42,7.23-2.63Z" fill="#fff"></path>
      <path d="M638.73,616.19c-4.58,0-11.58-4.4-16.98-8.38-3.07-2.27-5.26-4.14-5.28-4.16l-.18-.16,2.57-61.09,.58,.12c9.74,2.04,17.36,2.92,22.64,2.62,6.16-.38,6.77-2.23,6.77-2.25l.98,.17-6.6,69.52c-.41,1.74-1.31,2.83-2.67,3.33-.55,.2-1.16,.29-1.83,.29Zm-21.42-13.15c.58,.49,2.51,2.09,5.04,3.96,8.47,6.25,14.82,9.07,17.87,7.96,1.04-.38,1.7-1.21,2.03-2.55l6.44-67.92c-1.02,.69-2.94,1.42-6.56,1.65-5.26,.3-12.77-.55-22.33-2.52l-2.5,59.43Z" fill="#002346"></path>
    </g>
    <g>
      <path d="M679.79,607c1.11,15.56-26.31-6.67-26.31-6.67l-.37-60.61c7.25,3.3,15.41,4.03,23.13,2.08,2.01-.5,3.95-1.25,5.77-2.24h0l-2.22,67.44Z" fill="#fff"></path>
      <path d="M675.92,613.01c-7.49,0-22.07-11.74-22.75-12.29l-.18-.15-.38-61.63,.71,.32c7.12,3.24,15.22,3.97,22.8,2.05,1.97-.49,3.87-1.23,5.65-2.2l.77-.42-2.25,68.28c.2,2.84-.52,4.7-2.14,5.54-.63,.33-1.39,.48-2.23,.48Zm-21.94-12.92c5.2,4.18,19.05,13.98,23.71,11.56,1.23-.64,1.77-2.2,1.6-4.61v-.03s0-.03,0-.03l2.19-66.59c-1.63,.81-3.35,1.45-5.12,1.89-7.55,1.91-15.6,1.27-22.75-1.8l.36,59.6Z" fill="#002346"></path>
    </g>
    <g>
      <path d="M646.81,638.46c-.53,5.79-11.5,6-17.83,5.59-2.28-.16-4.51-.71-6.59-1.64-3.28-1.42-4.75,.13-4.75,.13-8.42,4.45-16.78,0-16.78,0-13.34-7.41-12.6-14.08-12.6-14.08,1.65-8,7.91-9,12.27-8.63l.72,.07c1.25,.14,2.49,.4,3.69,.78,1.51,.49,3.16,.26,4.47-.63,.22-.17,.43-.36,.63-.56,2.28-2.4,2.26-7,2.26-7-.29-3.91,.22-6.19,1-7.52h0c.64-1.31,2.09-2.02,3.51-1.71,0,0,23.34,20,25.93,9.27,1.14,.73,2,2.4,2.59,4.56,2.15,7.63,1.48,21.37,1.48,21.37Z" fill="#f69074"></path>
      <path d="M609.52,645.03c-4.96,0-8.66-1.93-8.9-2.05-13.48-7.49-12.89-14.29-12.86-14.58,1.79-8.7,8.79-9.42,12.81-9.07l.73,.07c1.29,.14,2.57,.41,3.79,.8,1.37,.45,2.84,.24,4.04-.57,.18-.14,.37-.31,.55-.49,2.11-2.22,2.12-6.61,2.12-6.65-.26-3.49,.1-6.12,1.07-7.77,.72-1.49,2.39-2.3,4.05-1.95l.12,.03,.1,.08c.17,.14,16.64,14.17,22.98,12.12,1.1-.36,1.8-1.2,2.14-2.58l.16-.68,.59,.38c1.19,.76,2.13,2.39,2.8,4.85,2.15,7.62,1.52,20.96,1.5,21.53v.02c-.57,6.25-11.75,6.47-18.36,6.04-2.34-.16-4.62-.73-6.76-1.68-2.88-1.25-4.14-.03-4.19,.02l-.12,.09c-2.91,1.54-5.8,2.05-8.35,2.05Zm-10.53-24.77c-4.18,0-8.86,1.61-10.24,8.3,0,.01-.46,6.42,12.35,13.54,.07,.04,8.19,4.24,16.25,.03,.36-.32,2.04-1.56,5.24-.18,2.04,.91,4.2,1.45,6.43,1.6,5.03,.33,16.77,.48,17.3-5.13,.02-.45,.62-13.83-1.46-21.2-.48-1.77-1.12-3.08-1.85-3.83-.49,1.3-1.35,2.16-2.58,2.56-.51,.16-1.07,.24-1.67,.24-7.3,0-20.74-11.25-22.17-12.46-1.17-.2-2.32,.39-2.84,1.46-.88,1.51-1.2,3.94-.95,7.26,0,.23,0,4.87-2.4,7.38-.21,.22-.44,.42-.69,.61-1.47,1-3.26,1.25-4.93,.71-1.16-.37-2.37-.62-3.59-.76l-.71-.07c-.49-.04-.99-.07-1.49-.07Z" fill="#002346"></path>
    </g>
    <g>
      <path d="M646.33,646.15c-.73,1.65-2.39,2.69-4.2,2.63l-51.64-1.42c-4.45-.38-3.34-11.86-3.34-11.86,0-9.27,1.11-7,1.11-7,0,0-.74,6.67,12.6,14.08,0,0,8.36,4.44,16.78,0,0,0,1.47-1.55,4.75-.13,2.08,.93,4.31,1.48,6.59,1.64,6.33,.39,17.3,.2,17.83-5.59,.66,3.59,.2,6.05-.48,7.65Z" fill="#fff"></path>
      <path d="M642.29,649.28c-.06,0-.12,0-.18,0l-51.64-1.42c-.85-.07-1.55-.46-2.13-1.14-2.47-2.96-1.73-10.93-1.7-11.26,0-7.41,.71-7.57,1.18-7.68,.42-.09,.73,.21,.88,.51l.06,.13-.02,.14c0,.06-.47,6.47,12.35,13.59,.07,.04,8.19,4.23,16.25,.03,.36-.32,2.04-1.56,5.24-.18,2.04,.91,4.2,1.45,6.43,1.6,5.03,.31,16.79,.43,17.3-5.14l.33-3.62,.66,3.58c.57,3.12,.4,5.79-.51,7.94h0c-.79,1.8-2.55,2.94-4.5,2.94Zm-54.4-19.36c-.12,.96-.24,2.64-.24,5.58,0,.13-.73,7.93,1.47,10.58,.4,.48,.86,.74,1.41,.79l51.61,1.42c1.61,.05,3.08-.86,3.73-2.33,.63-1.48,.87-3.25,.72-5.29-2.66,4.14-11.88,4.28-17.64,3.93-2.35-.16-4.62-.73-6.76-1.68-2.88-1.25-4.14-.03-4.19,.02l-.12,.09c-8.56,4.51-16.9,.19-17.25,0-9.93-5.52-12.23-10.66-12.74-13.1Z" fill="#002346"></path>
    </g>
    <g>
      <path d="M692.01,494.54c-2.86,0-6.33,.19-10,.53-11.87,1.14-25.57,3.7-25.57,3.7-.8,.1-1.59,.2-2.37,.28h0c-15,1.68-26.43,.86-34.73-.8-9-1.79-14.37-4.56-16.94-6.18-1.08-.7-1.53-2.05-1.09-3.25,4.38-12.11,9.57-40.81,9.57-40.81,2.22-29.65,10-38.57,10-38.57-.43-4.17-.43-8.36,0-12.53l57.06-.41v16.5c6.12,14.7,14.48,65.54,16.55,78.59,.25,1.36-.65,2.66-2.01,2.91-.16,.03-.31,.04-.47,.04Z" fill="#f69074"></path>
      <path d="M638.27,500.48c-6.87,0-13.23-.58-19.02-1.74-8.69-1.73-14.1-4.35-17.11-6.25-1.29-.83-1.81-2.41-1.29-3.84,4.31-11.93,9.5-40.44,9.55-40.73,2.06-27.59,8.87-37.24,9.97-38.64-.42-4.12-.41-8.3,.02-12.43l.05-.45,58.01-.42v16.9c6.3,15.26,14.88,68.15,16.54,78.61,.14,.78-.03,1.57-.48,2.23s-1.14,1.1-1.93,1.25c-.19,.03-.38,.04-.57,.05-2.78,0-6.22,.18-9.95,.53-11.71,1.12-25.39,3.67-25.52,3.69l-.27,.04c-.72,.09-1.43,.18-2.14,.25-5.54,.62-10.83,.93-15.86,.93Zm-16.93-103.07c-.38,3.98-.37,8.01,.04,11.98l.02,.21-.14,.17c-.08,.09-7.7,9.21-9.88,38.28-.06,.34-5.25,28.93-9.6,40.94-.36,.99,0,2.09,.89,2.66,2.4,1.51,7.77,4.32,16.77,6.11,9.92,1.99,21.56,2.25,34.58,.79,.7-.07,1.41-.16,2.12-.25l.24-.03c.11-.02,13.83-2.57,25.58-3.7,3.76-.35,7.24-.53,10.05-.53h0c.12,0,.25,0,.38-.03,.53-.1,.98-.39,1.29-.83,.3-.44,.42-.97,.32-1.5-1.66-10.48-10.26-63.45-16.52-78.49l-.04-.19v-16l-56.11,.4Z" fill="#002346"></path>
    </g>
    <g>
      <path d="M581.25,328.84l13.82,18.28,19.87-5.72-5.84-17.09-7.59-8.79c-.21-.24-.57-.29-.84-.12l-19.27,12.56c-.3,.19-.37,.6-.15,.88Z" fill="#fbe493"></path>
      <path d="M594.88,347.69l-14.03-18.55c-.19-.24-.26-.56-.21-.86s.23-.57,.49-.74l19.27-12.56c.48-.31,1.12-.22,1.49,.21l7.69,8.96,6.01,17.59-20.71,5.96Zm6.14-31.9s-.05,0-.08,.02l-19.27,12.56-.03,.16,13.62,18,19.04-5.48-5.64-16.5-7.53-8.72s-.07-.05-.11-.05Z" fill="#002346"></path>
    </g>
    <g>
      <polygon points="584.93 329.06 595.96 343.58 611.13 336.58 607.03 327.58 600.55 319.46 584.93 329.06" fill="#fff"></polygon>
      <path d="M595.81,344.2l-11.61-15.28,16.47-10.12,6.82,8.57,4.31,9.45-15.99,7.38Zm-10.14-15l10.45,13.76,14.35-6.62-3.87-8.49-6.17-7.73-14.77,9.08Z" fill="#002346"></path>
    </g>
    <g>
      <path d="M580.85,328.72v3.33l13.61,18.41,.61-3.34-13.98-18.48c-.08-.1-.24-.05-.24,.08Z" fill="#002346"></path>
      <path d="M594.75,351.68l-14.39-19.47v-3.5c0-.27,.17-.51,.43-.6,.26-.09,.54,0,.71,.22l14.11,18.66-.86,4.69Zm-13.39-19.8l12.83,17.35,.36-1.99-13.19-17.44v2.08Zm-.66-2.95s0,0,0,0h0Z" fill="#002346"></path>
    </g>
    <g>
      <path d="M125.32,297.43c-3.77,1.01-7.12,3.18-9.59,6.2-1.13,1.42-2.55,2.59-4.16,3.44-5.49,3-17.15,10.79-16.86,23.84,0,0-4.4,30.44,3.93,52.55,.47,1.24,1.86,1.86,3.1,1.39,.22-.08,.42-.2,.6-.34,4.37-3.4,9.31-5.99,14.6-7.65v28.71c0,.88,.71,1.59,1.59,1.59,.03,0,.05,0,.08,0,10.76-.54,70-3.76,75-8.81l-1.85-17.41,19.08-28.6s-14.49-19.16-20.28-34.99c-1.66-4.55-4.14-8.79-7.6-12.19-4.72-4.63-12.32-9.46-23.81-10.2,.03,.03-13.6-2.87-33.83,2.46Z" fill="#fbe493"></path>
      <path d="M118.53,407.66c-.56,0-1.08-.22-1.48-.61-.39-.39-.61-.92-.61-1.48v-28.02c-5,1.65-9.63,4.12-13.79,7.36-.23,.17-.47,.31-.73,.41-.72,.28-1.51,.25-2.22-.06-.71-.32-1.25-.89-1.52-1.61-8.28-21.98-4-52.49-3.96-52.8-.29-12.76,10.6-20.65,17.11-24.21,1.56-.82,2.91-1.94,4.01-3.31,2.56-3.12,5.96-5.33,9.85-6.37h0c18.41-4.85,31.51-2.92,33.95-2.49h0s.04,0,.04,0c12.02,.77,19.76,6.05,24.13,10.34,3.31,3.25,5.91,7.41,7.72,12.37,5.69,15.57,20.06,34.67,20.21,34.86l.21,.28-19.18,28.75,1.86,17.47-.17,.17c-5.13,5.18-63.65,8.37-75.33,8.96h-.11Zm-1.09-31.48v29.39c0,.29,.11,.57,.32,.77s.48,.32,.77,.32c31.71-1.59,69.92-4.76,74.56-8.51l-1.84-17.34,18.98-28.46c-1.82-2.45-14.77-20.16-20.13-34.83-1.76-4.82-4.28-8.86-7.48-12-4.21-4.13-11.63-9.2-23.16-10.03l-.02,.04-.46-.08c-2.4-.43-15.31-2.33-33.52,2.47-3.69,.99-6.91,3.08-9.33,6.03-1.18,1.48-2.63,2.68-4.31,3.57-6.31,3.45-16.87,11.08-16.59,23.39-.05,.39-4.29,30.65,3.9,52.38,.18,.47,.54,.85,1,1.06,.46,.21,.98,.22,1.45,.04,.17-.07,.33-.15,.48-.27,4.43-3.45,9.39-6.05,14.75-7.73l.65-.2Z" fill="#002346"></path>
    </g>
    <g>
      <path d="M196.72,376.77l5.38-29.58,18.76-5.84c.09-.03,.18,.05,.17,.15l-6.5,35.27h-17.8Z" fill="#f69074"></path>
      <path d="M214.94,377.27h-18.82l5.54-30.47,19.04-5.93c.21-.07,.44-.02,.6,.13s.24,.37,.2,.59l-6.58,35.68Zm-17.62-1h16.78l6.31-34.26-17.88,5.56-5.22,28.69Zm23.69-34.44h0s0,0,0,0Zm-.48-.42s0,0,0,0h0Z" fill="#002346"></path>
    </g>
    <g>
      <path d="M192.21,376.77l6.62-32.89,17.41-5.18,4.43,2.38c.14,.08,.12,.29-.03,.34l-18.54,5.77-5.38,29.58h-4.51Z" fill="#fff"></path>
      <path d="M197.14,377.27h-5.54l6.8-33.78,17.9-5.33,4.61,2.48c.24,.13,.38,.39,.36,.67-.03,.27-.21,.5-.48,.59l-18.25,5.68-5.4,29.69Zm-4.32-1h3.48l5.36-29.47,18.11-5.64-3.59-1.93-16.92,5.04-6.44,32Z" fill="#002346"></path>
    </g>
    <g>
      <path d="M192.65,389l.44,4.1c4.84,1.92,10.15,2.34,15.24,1.22,4.12-.93,7.72-3.44,10-7,2.39-3.54,2.51-8.14,.3-11.79l-26.77,6.1,.79,7.37Z" fill="#f2b3c1"></path>
      <path d="M202.69,395.43c-3.33,0-6.64-.63-9.78-1.87l-.28-.11-1.31-12.2,27.54-6.28,.18,.3c2.3,3.8,2.18,8.64-.31,12.32-2.36,3.68-6.02,6.24-10.3,7.2-1.9,.42-3.83,.63-5.75,.63Zm-9.14-2.68c4.7,1.8,9.76,2.17,14.68,1.09,4.02-.91,7.46-3.32,9.69-6.79,2.22-3.28,2.39-7.54,.47-10.96l-25.99,5.92,1.15,10.74Z" fill="#002346"></path>
    </g>
    <g>
      <path d="M198.46,548.77v68.23c-4.82-1.11-14.08,2.6-14.08,2.6-7.14-.58-14.33,.3-21.12,2.59-2.94-3.82-12.17-3.91-15.86-3.79h-.2c-.85,0-1.36,.07-1.36,.07-4,.81-7.85,1.48-10.88,2-4,.66-7.91,1.76-11.66,3.29-4.45,1.8-4.92,1.28-4.92,1.28-5.76-5.84-1.24-58.4,.14-73.07,.21-2.18-.15-4.36-.82-6.44,0,0,0-.02,0-.03-2.91-8.76-.38-24.45-.38-24.45l3.17-113.93c3-.08,5.89-.18,8.76-.31h.1c20.21-.9,40.35-3.13,60.27-6.66,3,28.06,6.62,79.77,6.62,79.77l1.89,58.51h0l.34,10.34Z" fill="#fff"></path>
      <path d="M118.73,625.61c-.5,0-.64-.15-.72-.24-5.69-5.78-1.89-53.29,.01-73.45,.18-1.93-.09-4.03-.8-6.24-2.92-8.8-.51-24.06-.41-24.71l3.18-114.34h.47c3.15-.1,6.01-.2,8.75-.32h.12c20.1-.9,40.35-3.14,60.18-6.65l.53-.09,.06,.53c2.97,27.75,6.59,79.27,6.62,79.79l2.23,68.88v68.86l-.61-.14c-4.61-1.06-13.69,2.54-13.78,2.58l-.11,.04h-.12c-7.11-.58-14.15,.28-20.92,2.56l-.34,.11-.22-.28c-2.78-3.61-11.73-3.71-15.45-3.59h-.22c-.8,0-1.29,.07-1.29,.07-3.93,.8-7.67,1.45-10.86,2-3.96,.65-7.84,1.75-11.56,3.26-2.74,1.11-4.08,1.39-4.76,1.39Zm-.07-1c.23,.02,1.25-.01,4.45-1.31,3.78-1.54,7.74-2.66,11.77-3.32,3.18-.55,6.92-1.2,10.86-2,.05,0,.58-.08,1.46-.08h.2c4.68-.15,12.89,.14,16.03,3.71,6.76-2.23,13.78-3.07,20.88-2.51,1.07-.42,8.88-3.39,13.66-2.69v-67.62l-2.23-68.84c-.04-.5-3.61-51.35-6.56-79.2-19.7,3.47-39.82,5.68-59.81,6.57h-.12c-2.59,.12-5.31,.22-8.27,.3l-3.16,113.46c-.03,.22-2.48,15.74,.35,24.28,.77,2.37,1.05,4.61,.85,6.67-3.02,32-4.69,67.77-.36,72.59Z" fill="#002346"></path>
    </g>
    <g>
      <path d="M163.26,636.61l-27.8-.74c-17.04-1.87-17.08-10.87-17.08-10.87,1,.11,3.26-.65,5.36-1.5,3.57-1.45,7.28-2.51,11.08-3.16l11-1.88,1.56-.08c13-.45,15.86,3.79,15.86,3.79,1.08,1.68,2,3.45,2.73,5.31,3.04,8.08-2.71,9.13-2.71,9.13Z" fill="#fbe493"></path>
      <path d="M163.3,637.11h-.05s-27.8-.74-27.8-.74c-17.33-1.9-17.56-10.98-17.57-11.37v-.56s.55,.06,.55,.06c.75,.09,2.61-.45,5.12-1.47,3.6-1.46,7.36-2.53,11.18-3.19l11-1.88,1.62-.08c13.15-.46,16.18,3.83,16.3,4.01,1.1,1.71,2.04,3.52,2.78,5.41,1.16,3.08,1.23,5.57,.2,7.38-1.14,2.01-3.2,2.41-3.29,2.43h-.05Zm-44.36-11.61c.34,1.85,2.54,8.34,16.57,9.88l27.7,.74c.27-.07,1.74-.48,2.56-1.94,.87-1.54,.77-3.73-.27-6.51-.72-1.81-1.62-3.57-2.68-5.21-.02-.03-2.95-4-15.42-3.56l-1.55,.08-10.94,1.88c-3.75,.65-7.44,1.7-10.98,3.13-2.26,.92-3.93,1.43-4.99,1.53Z" fill="#002346"></path>
    </g>
    <g>
      <path d="M213.95,630.24c.2,2.28-1.48,4.3-3.76,4.5-.13,.01-.25,.02-.38,.02h-24.32c-11.89,0-16.66-5.74-18.54-9.7h0c-.58-1.16-.98-2.41-1.19-3.69,7.7-3.74,18.62-1.8,18.62-1.8,9.85-3.9,14.08-2.6,14.08-2.6,8.67,.52,12.59,4.45,14.31,8.48,.64,1.53,1.04,3.14,1.18,4.79Z" fill="#fbe493"></path>
      <path d="M209.81,635.26h-24.32c-12.4,0-17.22-6.26-18.99-9.99-.6-1.2-1.01-2.49-1.23-3.82l-.06-.37,.34-.16c7.37-3.58,17.42-2.09,18.78-1.87,9.28-3.65,13.63-2.73,14.22-2.58,9.28,.57,13.11,5.09,14.69,8.78,.66,1.58,1.07,3.24,1.22,4.94,.23,2.55-1.66,4.82-4.22,5.05-.14,.01-.28,.02-.42,.02Zm-43.49-13.6c.22,1.1,.58,2.17,1.08,3.18,2.04,4.3,6.84,9.42,18.09,9.42h24.32c.11,0,.22,0,.33-.01,2-.18,3.49-1.96,3.31-3.96h0c-.14-1.6-.53-3.16-1.14-4.64-2.13-5-6.8-7.75-13.88-8.17l-.12-.02s-4.24-1.18-13.75,2.59l-.13,.05-.14-.02c-.11-.02-10.53-1.81-17.97,1.6Z" fill="#002346"></path>
    </g>
    <g>
      <path d="M691.54,375.45s1.22,25.28-13.6,33.91v-12.86s3-1.85,4.07-15.93c0,0,3.87-.57,9.53-5.12Z" fill="#f2b3c1"></path>
      <path d="M677.45,410.21v-13.99l.23-.14s2.82-2.12,3.84-15.55l.03-.39,.39-.06s3.83-.62,9.29-5.02l.75-.61,.05,.96c.01,.26,1.06,25.68-13.84,34.36l-.74,.43Zm.98-13.48v11.75c12.04-7.77,12.66-27.44,12.64-32.04-4.34,3.32-7.52,4.28-8.6,4.53-.95,11.89-3.26,15.02-4.04,15.75Z" fill="#002346"></path>
    </g>
    <g>
      <path d="M619.89,395.64s-9.39,18.65-22.36,3.82c0,0-15.56-12.59-3.34-47,0,0,2.25-20.66,9.28-14.78,0,0-2.79,25.34-2.58,39.49,2.48,7.53,8.86,13.11,16.65,14.56,.62,1.39,1.41,2.71,2.35,3.91Z" fill="#f2b3c1"></path>
      <path d="M607.59,405.68c-3.5,0-7.01-1.98-10.43-5.9-.1-.07-15.61-13.14-3.45-47.43,.13-1.12,1.69-14.17,6.22-15.99,1.22-.49,2.52-.17,3.86,.95l.2,.17-.03,.26c-.03,.25-2.77,25.38-2.58,39.35,2.44,7.32,8.66,12.75,16.25,14.16l.25,.05,.11,.24c.6,1.36,1.37,2.64,2.29,3.81l.19,.25-.14,.28c-.18,.36-4.53,8.85-11.56,9.74-.39,.05-.78,.08-1.18,.08Zm-6.53-68.56c-.26,0-.52,.05-.77,.15-3.4,1.37-5.21,11.47-5.62,15.24l-.03,.11c-11.96,33.69,3.03,46.33,3.19,46.45,3.64,4.15,7.26,6,10.81,5.55,5.84-.74,9.87-7.5,10.66-8.94-.83-1.1-1.53-2.28-2.11-3.52-7.85-1.56-14.27-7.22-16.77-14.84l-.02-.15c-.2-13.24,2.26-36.52,2.55-39.28-.67-.52-1.3-.78-1.89-.78Z" fill="#002346"></path>
    </g>
    <g>
      <path d="M532.66,34.11H264.07c-4.72,0-8.55,3.83-8.55,8.55h0v485c0,4.72,3.83,8.55,8.55,8.55h268.59c4.72,0,8.55-3.83,8.55-8.55V42.66c0-4.72-3.83-8.55-8.55-8.55Zm3.35,457.25c0,13.5-10.96,24.45-24.46,24.45h-226.76c-13.5,0-24.45-10.95-24.45-24.45h0V71.17c0-13.5,10.95-24.45,24.45-24.46h65.11l7.11,11.49h84l9-11.49h61.49c13.51-.03,24.48,10.9,24.51,24.41,0,.02,0,.03,0,.05V491.36Z" fill="#f69074"></path>
      <path d="M532.66,536.71H264.07c-4.99,0-9.05-4.06-9.05-9.05V42.66c0-4.99,4.06-9.05,9.05-9.05h268.59c4.99,0,9.05,4.06,9.05,9.05v485c0,4.99-4.06,9.05-9.05,9.05ZM264.07,34.61c-4.44,0-8.05,3.61-8.05,8.05v485c0,4.44,3.61,8.05,8.05,8.05h268.59c4.44,0,8.05-3.61,8.05-8.05V42.66c0-4.44-3.61-8.05-8.05-8.05H264.07Zm247.48,481.7h-226.76c-13.76,0-24.95-11.19-24.95-24.95V71.17c0-13.76,11.19-24.95,24.95-24.96h65.39l7.11,11.49h83.48l9-11.49h61.79c6.65,0,12.9,2.58,17.61,7.27,4.72,4.71,7.33,10.97,7.35,17.63V491.36c0,13.76-11.2,24.95-24.96,24.95ZM284.79,47.21c-13.21,0-23.95,10.75-23.95,23.96V491.36c0,13.21,10.74,23.95,23.95,23.95h226.76c13.21,0,23.95-10.74,23.96-23.95V71.17c-.01-6.45-2.52-12.46-7.05-16.98-4.52-4.5-10.53-6.98-16.91-6.98h-61.3l-9,11.49h-84.52l-7.11-11.49h-64.83Z" fill="#002346"></path>
    </g>
    <g>
      <path d="M511.6,46.7h-61.5l-9,11.49h-84l-7.17-11.49h-65.1c-13.51,0-24.46,10.95-24.46,24.46V491.35c0,13.51,10.95,24.46,24.46,24.46h226.77c13.49-.03,24.41-10.97,24.41-24.46V71.16c0-13.49-10.92-24.43-24.41-24.46Zm17.19,430.08c0,12.86-10.44,23.29-23.3,23.29h-216.1c-12.87,0-23.3-10.42-23.31-23.29h0V76.67c0-12.87,10.44-23.3,23.31-23.29h62l6.81,9.53h80.08l8.57-9.53h58.6c12.86,0,23.29,10.43,23.3,23.29l.04,400.11Z" fill="#e6e7e8"></path>
      <path d="M511.6,516.31h-226.77c-13.76,0-24.96-11.2-24.96-24.96V71.16c0-13.76,11.2-24.96,24.96-24.96h65.38l7.17,11.49h83.48l9-11.49h61.74c13.73,.03,24.91,11.22,24.91,24.96V491.35c0,13.74-11.17,24.93-24.91,24.96ZM284.83,47.2c-13.21,0-23.96,10.75-23.96,23.96V491.35c0,13.21,10.75,23.96,23.96,23.96h226.77c13.18-.03,23.91-10.78,23.91-23.96V71.16c0-13.18-10.73-23.93-23.91-23.96h-61.26l-9,11.49h-84.52l-7.17-11.49h-64.82Zm4.55,453.37c-6.35,0-12.33-2.47-16.82-6.96-4.5-4.49-6.98-10.47-6.98-16.83V76.67c0-6.36,2.48-12.33,6.98-16.83,4.49-4.49,10.47-6.96,16.82-6.96h62.27l6.81,9.53h79.6l8.57-9.53h58.82c13.12,0,23.79,10.67,23.8,23.79l.04,400.11c0,13.12-10.68,23.79-23.8,23.79h-216.11Zm0-446.69c-6.09,0-11.81,2.37-16.11,6.67-4.31,4.3-6.68,10.03-6.69,16.12V476.78c0,6.09,2.38,11.81,6.69,16.12,4.31,4.3,10.03,6.67,16.11,6.67h216.11c12.57,0,22.79-10.22,22.8-22.79l-.04-400.11c0-12.57-10.23-22.79-22.8-22.79h-58.38l-8.57,9.53h-80.56l-6.81-9.53h-61.75Z" fill="#002346"></path>
    </g>
    <g>
      <path d="M518.11,342.94h46.2c5.15,0,9.32,4.18,9.32,9.33v20.55c0,5.15-4.17,9.32-9.32,9.33h-3.54c.76,3.12,2.35,5.97,4.61,8.25-5.59-1.1-10.68-4-14.48-8.25h-32.79c-5.15,0-9.33-4.18-9.33-9.33v-20.55c0-5.15,4.18-9.33,9.33-9.33Z" fill="#f69074"></path>
      <path d="M566.88,391.2l-1.6-.32c-5.59-1.1-10.77-4.03-14.61-8.24h-32.57c-5.42,0-9.83-4.41-9.83-9.83v-20.55c0-5.42,4.41-9.83,9.83-9.83h46.2c5.42,0,9.82,4.42,9.82,9.83v20.55c0,5.41-4.4,9.82-9.82,9.83h-2.89c.79,2.79,2.27,5.33,4.32,7.4l1.14,1.16Zm-48.77-47.77c-4.87,0-8.83,3.96-8.83,8.83v20.55c0,4.87,3.96,8.83,8.83,8.83h33.01l.15,.17c3.36,3.75,7.81,6.46,12.67,7.74-1.75-2.12-3-4.61-3.66-7.29l-.15-.62h4.18c4.86,0,8.82-3.97,8.82-8.83v-20.55c0-4.86-3.96-8.82-8.82-8.83h-46.2Z" fill="#002346"></path>
    </g>
    <g>
      <rect x="518.8" y="350.91" width="43.33" height="3.83" fill="#fff"></rect>
      <path d="M562.63,355.24h-44.33v-4.83h44.33v4.83Zm-43.33-1h42.33v-2.83h-42.33v2.83Z" fill="#002346"></path>
    </g>
    <g>
      <rect x="518.51" y="366.82" width="43.33" height="3.83" fill="#fff"></rect>
      <path d="M562.34,371.15h-44.33v-4.83h44.33v4.83Zm-43.33-1h42.33v-2.83h-42.33v2.83Z" fill="#002346"></path>
    </g>
    <g>
      <rect x="540.32" y="358.86" width="21.81" height="3.83" fill="#fff"></rect>
      <path d="M562.63,363.19h-22.81v-4.83h22.81v4.83Zm-21.81-1h20.81v-2.83h-20.81v2.83Z" fill="#002346"></path>
    </g>
    <g>
      <rect x="518.8" y="358.86" width="19.75" height="3.83" fill="#fff"></rect>
      <path d="M539.05,363.19h-20.75v-4.83h20.75v4.83Zm-19.75-1h18.75v-2.83h-18.75v2.83Z" fill="#002346"></path>
    </g>
    <g>
      <path d="M761.21,248.56h-54.65c-6.08,0-11,4.92-11,11v24.32c0,6.08,4.92,11,11,11h4.18c-.9,3.69-2.78,7.06-5.44,9.77,6.62-1.31,12.64-4.74,17.13-9.77h38.78c6.08,0,11-4.92,11-11v-24.29c.02-6.08-4.89-11.01-10.97-11.03-.01,0-.02,0-.03,0Z" fill="#f69074"></path>
      <path d="M703.81,305.45l1.13-1.15c2.45-2.49,4.22-5.56,5.15-8.92h-3.53c-6.34,0-11.5-5.16-11.5-11.5v-24.32c0-6.34,5.16-11.5,11.5-11.5h54.68c6.34,.02,11.49,5.19,11.47,11.53v24.29c0,6.34-5.16,11.5-11.5,11.5h-38.56c-4.52,4.99-10.64,8.46-17.26,9.76l-1.59,.31Zm2.75-56.39c-5.79,0-10.5,4.71-10.5,10.5v24.32c0,5.79,4.71,10.5,10.5,10.5h4.82l-.15,.62c-.79,3.25-2.33,6.27-4.49,8.82,5.88-1.48,11.27-4.74,15.32-9.27l.15-.17h39c5.79,0,10.5-4.71,10.5-10.5v-24.29c.02-5.79-4.68-10.51-10.47-10.53l-.03-.5v.5h-54.65Z" fill="#002346"></path>
    </g>
    <g>
      <rect x="709.13" y="257.98" width="51.25" height="4.53" fill="#fff"></rect>
      <path d="M760.88,263.01h-52.25v-5.53h52.25v5.53Zm-51.25-1h50.25v-3.53h-50.25v3.53Z" fill="#002346"></path>
    </g>
    <g>
      <rect x="709.48" y="276.8" width="51.25" height="4.53" fill="#fff"></rect>
      <path d="M761.23,281.83h-52.25v-5.53h52.25v5.53Zm-51.25-1h50.25v-3.53h-50.25v3.53Z" fill="#002346"></path>
    </g>
    <g>
      <rect x="709.13" y="267.39" width="23.42" height="4.53" fill="#fff"></rect>
      <path d="M733.03,272.4h-24.38v-5.48h24.38v5.48Zm-23.42-.95h22.47v-3.58h-22.47v3.58Z" fill="#002346"></path>
    </g>
    <g>
      <rect x="737.02" y="267.39" width="23.36" height="4.53" fill="#fff"></rect>
      <path d="M760.88,272.42h-24.36v-5.53h24.36v5.53Zm-23.36-1h22.36v-3.53h-22.36v3.53Z" fill="#002346"></path>
    </g>
    <g>
      <path d="M164.88,139.17h91.61c10.21-.02,18.5,8.23,18.52,18.44,0,.01,0,.03,0,.04v40.77c0,10.21-8.27,18.48-18.48,18.48h-7c2,9.62,9.13,16.37,9.13,16.37-13.25-2.32-22.86-10.08-28.71-16.37h-65c-10.21,0-18.48-8.27-18.48-18.48v-40.77c0-10.18,8.23-18.44,18.41-18.48Z" fill="#f69074"></path>
      <path d="M260.21,234.05l-1.63-.29c-13.34-2.33-23.02-10.15-28.84-16.36h-64.78c-10.47,0-18.98-8.51-18.98-18.98v-40.77c0-10.43,8.48-18.94,18.91-18.98h91.65c10.45,0,18.96,8.49,18.98,18.94v40.81c0,10.47-8.51,18.98-18.98,18.98h-6.38c2.11,9.03,8.78,15.44,8.85,15.51l1.2,1.14Zm-95.33-94.38c-9.88,.04-17.91,8.1-17.91,17.98v40.77c0,9.91,8.07,17.98,17.98,17.98h65.22l.15,.16c5.47,5.88,14.51,13.3,26.89,15.92-2.11-2.34-6.62-8.02-8.17-15.48l-.12-.6h7.61c9.91,0,17.98-8.07,17.98-17.98v-40.77c-.02-9.94-8.08-17.98-17.98-17.98h-91.65Z" fill="#002346"></path>
    </g>
    <ellipse cx="143.77" cy="256.11" rx="20.24" ry="30.75" transform="translate(-21.56 13.36) rotate(-4.95)" fill="#f9b499"></ellipse>
    <g>
      <path d="M123.24,274.22l2.22,22.83h7.41c4.52,0,8.9,1.7,12.11,4.88,.04,.04,.08,.08,.12,.12l5.93,4.82s.74-2.59-2.23-10c-1.23-3.24-2.03-6.62-2.39-10.06,0,0-11.85,1.43-19-14.26,0-.05-.84,1.3-4.17,1.67Z" fill="#f2b3c1"></path>
      <path d="M151.3,307.72l-6.61-5.39c-3.1-3.07-7.38-4.79-11.82-4.79h-7.85l-2.31-23.76,.48-.05c2.51-.28,3.51-1.13,3.83-1.48l.23-.25,.54,.16,.08,.18c6.92,15.18,18.38,13.99,18.49,13.98l.5-.06,.05,.5c.35,3.4,1.15,6.74,2.36,9.94,3,7.47,2.28,10.2,2.24,10.31l-.2,.72Zm-5.89-6.05l5.21,4.23c0-1.25-.33-3.99-2.27-8.85-1.19-3.14-1.99-6.4-2.37-9.73-2.33,.05-12.33-.55-18.73-13.96-.63,.48-1.69,1.02-3.47,1.29l2.13,21.91h6.96c4.7,0,9.24,1.83,12.46,5.02l-.22,.47,.31-.38Z" fill="#002346"></path>
    </g>
    <g>
      <path d="M211.43,375s3.5,.09,3.78-2l2.19-11.87s3.19-2.89,2.87,3.26c-.41,2.42-.64,4.87-.68,7.33,0,0,0,8.46-9.65,8.83l-7.25,.13v-5.62l8.74-.06Z" fill="#f2b3c1"></path>
      <path d="M202.2,381.18v-6.61l9.24-.06h0s3.07,.03,3.28-1.57l2.22-12.06,.12-.11c.14-.12,1.36-1.19,2.47-.66,.95,.45,1.35,1.86,1.23,4.31-.41,2.45-.64,4.89-.68,7.31,0,.08-.12,8.93-10.12,9.31l-7.76,.14Zm.98-5.63v4.63l6.75-.12c9.06-.35,9.17-8.01,9.17-8.34,.05-2.48,.28-4.97,.69-7.41,.13-2.63-.42-3.2-.67-3.32-.35-.17-.94,.15-1.26,.4l-2.16,11.69c-.33,2.44-4.01,2.41-4.27,2.4l-8.24,.06Z" fill="#002346"></path>
    </g>
    <g>
      <path d="M211.43,375c0,3-5.56,3-5.56,3-2.23,.74-1.11,1.49-1.11,1.49,6.3-1.12,5.18,1.11,5.18,1.11,.37,1.85-4.44,2.22-4.44,2.22-.7-.11-1.41-.08-2.1,.1-.28,.04-.46,.3-.42,.58,.04,.28,.3,.46,.58,.42,1.17-.04,2.34,.02,3.5,.18,.59,.11,.99,.67,.88,1.26-.06,.36-.3,.66-.63,.81-7,3-16.26,3-16.26,3l-31.5,13.71c-18.5,8.67-24.83,6.3-24.83,6.3-13.34-4.45-29.2-26.83-29.2-26.83,7.49-4.92,16.18-7.69,25.13-8,4.07,5.56,11.48,6.67,11.48,6.67,11.49-4.08,45.95-11.12,45.95-11.12,3.23-.5,6.46-3.33,8.24-5.14,.35-.35,.92-.36,1.27-.01,.19,.19,.29,.45,.27,.71-.17,1.54-.59,3.04-1.26,4.44-.06,.27-.02,.56,.12,.8h0c.29,.42,1,.29,1.78,0,1.15-.48,2.18-1.21,3-2.14,1.04-1.27,2.33-2.31,3.79-3.05,.75-.33,1.64-.12,2.15,.53,.45,.55,.54,1.31,.23,1.95-1.16,2.45-4.44,5.26-4.44,5.26,8.94-2.32,8.2,1.75,8.2,1.75Z" fill="#f2b3c1"></path>
      <path d="M137.36,409.97c-1.87,0-2.72-.3-2.82-.33-13.32-4.44-28.78-26.09-29.43-27.01l-.29-.42,.43-.28c7.56-4.97,16.34-7.76,25.38-8.08h.26s.15,.2,.15,.2c3.62,4.95,10.09,6.28,11.04,6.45,11.51-4.05,45.55-11.03,45.9-11.1,3.15-.49,6.36-3.34,7.99-5,.26-.27,.61-.41,.98-.42,.39,.02,.72,.14,.99,.4,.29,.29,.45,.69,.41,1.1-.17,1.59-.6,3.12-1.28,4.56-.02,.14,0,.28,.07,.4,0,0,.03,.03,.19,.03,.17,0,.47-.04,1-.24,1.06-.44,2.03-1.13,2.8-2,1.07-1.32,2.4-2.39,3.94-3.16,.98-.44,2.11-.16,2.76,.66,.56,.69,.68,1.66,.29,2.47-.71,1.5-2.15,3.09-3.22,4.16,3.06-.59,5.17-.37,6.27,.65,.85,.79,.79,1.78,.76,2.02-.04,3.24-5.21,3.44-5.97,3.46-.55,.19-.79,.35-.9,.45,2.88-.47,4.58-.29,5.21,.55,.31,.41,.28,.87,.18,1.17,.04,.37-.07,.72-.3,1.03-.99,1.31-4.24,1.59-4.6,1.62h-.06s-.06,0-.06,0c-.64-.1-1.28-.07-1.9,.09,1.22-.02,2.42,.05,3.61,.22,.43,.08,.8,.31,1.04,.66,.24,.35,.33,.77,.26,1.18-.09,.52-.44,.96-.92,1.17-6.7,2.87-15.26,3.03-16.36,3.04l-31.41,13.67c-11.99,5.62-18.92,6.64-22.38,6.64Zm-31.14-27.49c2.25,3.07,16.61,22.22,28.65,26.23,.07,.03,6.48,2.15,24.47-6.28l31.61-13.76h.1c.09,0,9.24-.04,16.07-2.96,.18-.08,.31-.24,.34-.44,.03-.16,0-.32-.1-.45s-.23-.22-.39-.25c-1.11-.15-2.26-.21-3.4-.17-.2,.04-.47-.03-.68-.18-.22-.16-.36-.39-.4-.65-.09-.54,.28-1.06,.83-1.14,.69-.18,1.45-.22,2.2-.11,1.23-.1,3.3-.52,3.84-1.23,.1-.13,.13-.25,.1-.4l-.03-.17,.08-.15s.07-.18-.03-.31c-.15-.19-.92-.76-4.62-.1l-.19,.03-.16-.11c-.27-.18-.55-.55-.49-1,.1-.74,1.03-1.13,1.72-1.36l.15-.03c.05,0,5.07-.07,5.07-2.51v-.08s.1-.68-.46-1.19c-.59-.54-2.3-1.25-7.12,0l-2.06,.53,1.61-1.38s3.21-2.77,4.32-5.1c.23-.47,.16-1.03-.17-1.43-.38-.48-1.02-.64-1.57-.39-1.39,.7-2.61,1.69-3.61,2.91-.88,1-1.98,1.78-3.19,2.28-.5,.19-1.79,.67-2.37-.17-.22-.38-.29-.79-.19-1.19l.04-.1c.64-1.35,1.05-2.79,1.21-4.28,0-.11-.04-.22-.12-.31-.08-.08-.21-.12-.29-.12-.11,0-.21,.04-.29,.12-2.1,2.13-5.28,4.78-8.52,5.28-.32,.07-34.53,7.08-45.86,11.1l-.12,.04-.12-.02c-.31-.05-7.48-1.18-11.65-6.66-8.6,.35-16.95,2.98-24.19,7.63Z" fill="#002346"></path>
    </g>
    <g>
      <g>
        <path d="M386.68,476.93c0,2.13-1.72,3.86-3.85,3.87-2.13,0-3.86-1.72-3.87-3.85s1.72-3.86,3.85-3.87h.01c2.13,0,3.85,1.72,3.86,3.85Z" fill="#fff"></path>
        <path d="M382.82,481.3c-2.4,0-4.36-1.95-4.36-4.35,0-2.4,1.94-4.36,4.35-4.37,2.4,0,4.36,1.96,4.37,4.35h0c0,2.41-1.94,4.37-4.35,4.37h-.01Zm0-7.72c-1.86,0-3.36,1.52-3.36,3.37,0,1.85,1.51,3.35,3.36,3.35h0c1.85,0,3.36-1.52,3.35-3.37-.01-1.84-1.52-3.35-3.36-3.35Z" fill="#002346"></path>
      </g>
      <g>
        <path d="M401.33,476.93c0,2.13-1.72,3.86-3.85,3.87s-3.86-1.72-3.87-3.85c0-2.13,1.72-3.86,3.85-3.87,0,0,.01,0,.02,0h0c2.12,.01,3.84,1.73,3.85,3.85Z" fill="#fff"></path>
        <path d="M397.47,481.3c-2.4,0-4.35-1.95-4.36-4.35,0-2.4,1.94-4.36,4.35-4.37,2.41,.01,4.36,1.96,4.37,4.35h0c0,2.41-1.94,4.37-4.35,4.37h-.01Zm0-7.72c-1.87,0-3.37,1.52-3.37,3.37,0,1.85,1.51,3.35,3.36,3.35h0c1.85,0,3.36-1.52,3.35-3.37-.01-1.84-1.51-3.34-3.35-3.35Z" fill="#002346"></path>
      </g>
      <g>
        <path d="M415.99,476.93c0,2.13-1.72,3.86-3.85,3.87-2.13,0-3.86-1.72-3.87-3.85s1.72-3.86,3.85-3.87h.01c2.12,.01,3.84,1.73,3.86,3.85Z" fill="#fff"></path>
        <path d="M412.13,481.3c-2.4,0-4.36-1.95-4.36-4.35,0-2.4,1.94-4.36,4.35-4.37,2.4,.01,4.35,1.96,4.37,4.35h0c0,2.41-1.94,4.37-4.35,4.37h-.01Zm0-7.72c-1.86,0-3.36,1.52-3.36,3.37,0,1.85,1.51,3.35,3.36,3.35h0c1.85,0,3.36-1.52,3.35-3.37-.02-1.84-1.52-3.34-3.36-3.35Z" fill="#002346"></path>
      </g>
    </g>
    <g>
      <path d="M487.62,242.26v40.74c0,7.35-5.96,13.31-13.31,13.32h-145.82c-7.36,0-13.32-5.96-13.32-13.32h0v-34.42l-18.16-19.07,177.23-.51c7.35-.04,13.34,5.87,13.38,13.22,0,0,0,0,0,.01v.03Z" fill="#f69074"></path>
      <path d="M474.31,296.82h-145.82c-7.62,0-13.82-6.2-13.82-13.82v-34.22l-18.82-19.77h1.16s177.23-.51,177.23-.51h.08c7.57,0,13.75,6.14,13.8,13.72v40.78c0,7.61-6.2,13.81-13.81,13.82Zm-176.14-66.81l17.5,18.37v34.62c0,7.07,5.75,12.82,12.82,12.82h145.82c7.06-.01,12.8-5.76,12.81-12.82v-40.77c-.04-7.04-5.78-12.73-12.8-12.73h-.08l-176.07,.51Z" fill="#002346"></path>
    </g>
    <g>
      <polygon points="336.67 253.59 468.98 252.97 468.96 248.9 336.65 249.52 336.67 253.59" fill="#fff"></polygon>
      <path d="M336.17,254.09l-.02-5.07h.5s132.81-.62,132.81-.62l.02,5.07h-.5s-132.81,.62-132.81,.62Zm.98-4.07l.02,3.07,131.31-.62-.02-3.07-131.31,.62Z" fill="#002346"></path>
    </g>
    <g>
      <polygon points="336.67 266.97 468.98 266.35 468.96 262.3 336.65 262.9 336.67 266.97" fill="#fff"></polygon>
      <path d="M336.17,267.47l-.02-5.07h.5s132.81-.6,132.81-.6l.02,5.05h-.5s-132.81,.62-132.81,.62Zm.98-4.07l.02,3.07,131.31-.62-.02-3.05-131.31,.6Z" fill="#002346"></path>
    </g>
    <g>
      <rect x="336.63" y="275.82" width="52.35" height="4.07" transform="translate(-1.35 1.78) rotate(-.28)" fill="#fff"></rect>
      <path d="M336.15,280.52l-.02-5.07h.5s52.85-.26,52.85-.26l.02,5.07h-.5s-52.85,.26-52.85,.26Zm.98-4.08v3.07s51.36-.25,51.36-.25l-.02-3.07-51.35,.25Z" fill="#002346"></path>
    </g>
    <g>
      <path d="M408.25,86.49c2.62-1.15,4.3-3.76,4.25-6.62,.12-3.7-2.78-6.81-6.48-6.93-3.61-.12-6.66,2.64-6.92,6.24v.69c-.07,2.88,1.62,5.52,4.26,6.67-10.35,1.56-9.85,12.78-9.85,12.78l24.4,.1s.57-11.42-9.66-12.93Z" fill="#fff"></path>
      <path d="M418.39,99.92l-25.35-.1-.02-.48c0-.11-.36-10.68,8.91-13.02-2.11-1.43-3.38-3.84-3.32-6.46v-.68c.27-3.92,3.52-6.88,7.43-6.74,3.97,.13,7.1,3.47,6.97,7.45,.04,2.57-1.22,4.96-3.31,6.38,9.16,2.32,8.73,13.06,8.73,13.18l-.02,.48Zm-24.38-1.1l23.41,.1c-.02-2.15-.63-10.66-9.24-11.93l-1.72-.25,1.59-.7c2.44-1.07,3.99-3.49,3.95-6.15,.11-3.45-2.58-6.32-6-6.44-3.35-.11-6.17,2.43-6.4,5.77v.65c-.06,2.7,1.49,5.14,3.96,6.21l1.59,.69-1.72,.26c-8.72,1.32-9.4,9.67-9.43,11.79Z" fill="#002346"></path>
    </g>
    <g>
      <path d="M394.85,86.49c2.61-1.16,4.29-3.76,4.27-6.62,.2-3.71-2.65-6.88-6.36-7.08-3.61-.2-6.72,2.49-7.06,6.08-.02,.33-.02,.67,0,1-.06,2.89,1.65,5.54,4.31,6.67-10.32,1.56-9.86,12.78-9.86,12.78l24.41,.1s.52-11.42-9.71-12.93Z" fill="#f69074"></path>
      <path d="M405.04,99.92l-25.37-.1-.02-.48c0-.11-.32-10.66,8.91-13.02-2.13-1.42-3.41-3.83-3.36-6.46-.02-.31-.02-.67,0-1.02,.37-3.89,3.71-6.78,7.59-6.55,1.93,.1,3.7,.95,4.99,2.39,1.29,1.44,1.94,3.29,1.84,5.22,.02,2.56-1.26,4.94-3.34,6.37,9.17,2.32,8.79,13.07,8.78,13.18l-.02,.48Zm-24.39-1.1l23.42,.1c-.03-2.15-.68-10.66-9.29-11.93l-1.7-.25,1.57-.7c2.43-1.08,3.99-3.5,3.97-6.16,.09-1.69-.47-3.29-1.58-4.53-1.11-1.24-2.64-1.97-4.3-2.06-3.35-.16-6.22,2.29-6.54,5.63-.02,.3-.02,.61,0,.92-.06,2.75,1.52,5.18,4.01,6.24l1.62,.69-1.74,.26c-8.68,1.31-9.4,9.66-9.44,11.79Z" fill="#002346"></path>
    </g>
    <g>
      <rect x="364.74" y="103.73" width="65.6" height="8.14" fill="#f69074"></rect>
      <path d="M430.84,112.37h-66.6v-9.14h66.6v9.14Zm-65.6-1h64.6v-7.14h-64.6v7.14Z" fill="#002346"></path>
    </g>
    <g>
      <path d="M483.01,407.53v27.87c0,3.91-3.17,7.08-7.08,7.08h-155.92c-3.88-.04-7-3.2-7-7.08v-15.24l-17.93-19.16,180.8-.57c3.91-.03,7.1,3.12,7.13,7.03,0,.02,0,.05,0,.07Z" fill="#f69074"></path>
      <path d="M475.93,442.98h-155.92c-4.14-.05-7.5-3.45-7.5-7.58v-15.04l-18.58-19.85,181.95-.57c2.03,.02,3.93,.76,5.37,2.18,1.44,1.42,2.24,3.32,2.26,5.34v27.94c0,4.18-3.4,7.58-7.58,7.58Zm-179.7-41.48l17.28,18.47v15.44c0,3.59,2.92,6.54,6.51,6.58h155.91c3.63,0,6.58-2.95,6.58-6.58v-27.88h.5s-.5-.05-.5-.05c-.01-1.76-.71-3.41-1.96-4.65-1.25-1.23-2.93-1.9-4.67-1.89l-179.65,.57Z" fill="#002346"></path>
    </g>
    <g>
      <polygon points="329.15 418.25 461.46 417.65 461.44 413.58 329.13 414.2 329.15 418.25" fill="#fff"></polygon>
      <path d="M328.65,418.75l-.02-5.05h.5s132.81-.62,132.81-.62l.02,5.07h-.5s-132.81,.6-132.81,.6Zm.98-4.05l.02,3.05,131.31-.6-.02-3.07-131.31,.62Z" fill="#002346"></path>
    </g>
    <g>
      <polygon points="329.15 431.35 461.46 430.73 461.44 426.68 329.13 427.28 329.15 431.35" fill="#fff"></polygon>
      <path d="M328.65,431.85l-.02-5.07h.5s132.81-.6,132.81-.6l.02,5.05h-.5s-132.81,.62-132.81,.62Zm.98-4.07l.02,3.07,131.31-.62-.02-3.05-131.31,.6Z" fill="#002346"></path>
    </g>
    <g>
      <path d="M467.34,207.5h-146.48c-7.57-.01-13.7-6.14-13.71-13.71v-41.35c.01-7.57,6.14-13.7,13.71-13.71h178.67l-18.52,20.4v34.66c-.01,7.55-6.12,13.68-13.67,13.71Z" fill="#fff"></path>
      <path d="M467.34,208h-146.48c-7.82-.01-14.2-6.39-14.21-14.21v-41.35c.01-7.82,6.39-14.2,14.21-14.21h179.8l-19.15,21.09v34.47c-.01,7.8-6.37,14.18-14.17,14.21h0Zm-146.48-68.77c-7.27,.01-13.2,5.94-13.21,13.21v41.35c.01,7.27,5.94,13.2,13.21,13.21h146.48c7.25-.03,13.16-5.96,13.17-13.21v-34.85l17.89-19.71h-177.54Z" fill="#002346"></path>
    </g>
    <g>
      <path d="M474.27,370.92h0l-156.33-.17c-4.27,0-7.73-3.47-7.73-7.74v-28.01c0-4.27,3.45-7.73,7.72-7.74h.02l181.64,.35-18.58,20.11v16.44c-.01,3.73-3.03,6.75-6.76,6.76h.02Z" fill="#fff"></path>
      <path d="M474.27,371.42h-.02l-156.31-.17c-4.54,0-8.23-3.7-8.23-8.24v-28.01c0-2.2,.85-4.27,2.4-5.82,1.55-1.56,3.62-2.42,5.82-2.42l182.8,.35-19.22,20.8v16.24c-.01,3.99-3.26,7.24-7.24,7.26h0Zm-156.32-43.66c-1.95,0-3.76,.76-5.13,2.12-1.36,1.37-2.11,3.18-2.11,5.11v28.01c0,3.99,3.24,7.23,7.23,7.24l156.31,.17c3.44-.01,6.25-2.82,6.26-6.26v-16.63l17.94-19.42-180.5-.35Z" fill="#002346"></path>
    </g>
    <g>
      <path d="M658.01,81.66h-106.9c-11.91,0-21.57,9.65-21.58,21.56h0v47.59c0,11.91,9.67,21.57,21.58,21.57h8.17c-2.36,11.22-10.65,19.1-10.65,19.1,15.46-2.71,26.69-11.76,33.51-19.1h75.87c11.91,0,21.57-9.66,21.57-21.57h0v-47.58c0-11.91-9.66-21.57-21.57-21.57h0Z" fill="#fbe493"></path>
      <path d="M547.09,192.26l1.2-1.14c.08-.08,7.91-7.62,10.37-18.24h-7.55c-12.17,0-22.07-9.9-22.08-22.07v-47.58c0-12.18,9.91-22.07,22.07-22.07h106.91c12.17,0,22.07,9.9,22.07,22.07v47.58c0,12.17-9.9,22.07-22.07,22.07h-75.65c-6.77,7.24-18.06,16.36-33.64,19.09l-1.63,.29Zm4.01-110.1c-11.61,0-21.07,9.45-21.07,21.06v47.59c0,11.62,9.46,21.07,21.08,21.07h8.79l-.13,.6c-1.85,8.78-7.35,15.61-9.7,18.21,14.64-3.01,25.28-11.74,31.71-18.66l.15-.16h76.09c11.62,0,21.07-9.45,21.07-21.07v-47.58c0-11.62-9.45-21.07-21.07-21.07h-106.91Z" fill="#002346"></path>
    </g>
    <g>
      <rect x="556.14" y="100.07" width="100.27" height="8.87" fill="#fff"></rect>
      <path d="M656.91,109.44h-101.27v-9.87h101.27v9.87Zm-100.27-1h99.27v-7.87h-99.27v7.87Z" fill="#002346"></path>
    </g>
    <g>
      <rect x="556.82" y="136.91" width="100.27" height="8.87" fill="#fff"></rect>
      <path d="M657.59,146.28h-101.27v-9.87h101.27v9.87Zm-100.27-1h99.27v-7.87h-99.27v7.87Z" fill="#002346"></path>
    </g>
    <g>
      <rect x="556.14" y="118.49" width="50.48" height="8.87" fill="#fff"></rect>
      <path d="M607.12,127.86h-51.48v-9.87h51.48v9.87Zm-50.48-1h49.48v-7.87h-49.48v7.87Z" fill="#002346"></path>
    </g>
    <g>
      <rect x="610.71" y="118.49" width="45.7" height="8.87" fill="#fff"></rect>
      <path d="M656.91,127.86h-46.7v-9.87h46.7v9.87Zm-45.7-1h44.7v-7.87h-44.7v7.87Z" fill="#002346"></path>
    </g>
    <path d="M301.61,360.56h-58.09c-6.47,0-11.71,5.24-11.71,11.71h0v25.85c0,6.47,5.24,11.71,11.71,11.72h4.49c-.96,3.92-2.96,7.5-5.79,10.37,8.4-1.46,14.49-6.38,18.2-10.37h41.19c6.47,0,11.71-5.25,11.71-11.72v-25.84c0-6.47-5.23-11.71-11.7-11.72h-.01Z" fill="#002346"></path>
    <g>
      <path d="M301.61,360.56h-58.09c-6.47,0-11.71,5.24-11.71,11.71h0v25.85c0,6.47,5.24,11.71,11.71,11.72h4.49c-.96,3.92-2.96,7.5-5.79,10.37,8.4-1.46,14.49-6.38,18.2-10.37h41.19c6.47,0,11.71-5.25,11.71-11.72v-25.84c0-6.47-5.23-11.71-11.7-11.72h-.01Z" fill="#fbe493"></path>
      <path d="M240.77,420.97l1.1-1.11c2.62-2.65,4.51-5.93,5.5-9.52h-3.84c-6.73,0-12.21-5.49-12.21-12.22v-25.84c0-6.74,5.48-12.22,12.21-12.22h58.1c3.26,0,6.33,1.28,8.63,3.58,2.3,2.31,3.57,5.38,3.57,8.64v25.84c0,6.73-5.48,12.21-12.21,12.22h-40.97c-3.72,3.95-9.87,8.89-18.33,10.36l-1.54,.27Zm2.75-59.91c-6.18,0-11.21,5.03-11.21,11.21v25.85c0,6.18,5.03,11.21,11.21,11.22h5.13l-.15,.62c-.86,3.5-2.53,6.74-4.86,9.46,7.53-1.74,13.05-6.29,16.42-9.92l.15-.16h41.41c6.18,0,11.21-5.04,11.21-11.22v-25.84c0-2.99-1.16-5.81-3.28-7.93-2.12-2.12-4.93-3.29-7.92-3.29v-.5s0,.5,0,.5h-58.09Z" fill="#002346"></path>
    </g>
    <g>
      <rect x="246.26" y="370.56" width="54.47" height="4.82" fill="#fff"></rect>
      <path d="M301.23,375.88h-55.47v-5.82h55.47v5.82Zm-54.47-1h53.47v-3.82h-53.47v3.82Z" fill="#002346"></path>
    </g>
    <g>
      <rect x="246.63" y="390.57" width="54.47" height="4.82" fill="#fff"></rect>
      <path d="M301.6,395.89h-55.47v-5.82h55.47v5.82Zm-54.47-1h53.47v-3.82h-53.47v3.82Z" fill="#002346"></path>
    </g>
    <g>
      <rect x="246.26" y="380.57" width="27.42" height="4.82" fill="#fff"></rect>
      <path d="M274.18,385.89h-28.42v-5.82h28.42v5.82Zm-27.42-1h26.42v-3.82h-26.42v3.82Z" fill="#002346"></path>
    </g>
    <g>
      <rect x="275.9" y="380.57" width="24.83" height="4.82" fill="#fff"></rect>
      <path d="M301.23,385.89h-25.83v-5.82h25.83v5.82Zm-24.83-1h23.83v-3.82h-23.83v3.82Z" fill="#002346"></path>
    </g>
    <g>
      <rect x="166.27" y="154.95" width="85.91" height="7.6" fill="#fff"></rect>
      <path d="M252.68,163.05h-86.91v-8.6h86.91v8.6Zm-85.91-1h84.91v-6.6h-84.91v6.6Z" fill="#002346"></path>
    </g>
    <g>
      <rect x="165.69" y="186.51" width="85.91" height="7.6" fill="#fff"></rect>
      <path d="M252.1,194.61h-86.91v-8.6h86.91v8.6Zm-85.91-1h84.91v-6.6h-84.91v6.6Z" fill="#002346"></path>
    </g>
    <g>
      <rect x="208.93" y="170.73" width="43.25" height="7.6" fill="#fff"></rect>
      <path d="M252.68,178.83h-44.25v-8.6h44.25v8.6Zm-43.25-1h42.25v-6.6h-42.25v6.6Z" fill="#002346"></path>
    </g>
    <g>
      <rect x="166.26" y="170.73" width="39.16" height="7.6" fill="#fff"></rect>
      <path d="M205.92,178.83h-40.16v-8.6h40.16v8.6Zm-39.16-1h38.16v-6.6h-38.16v6.6Z" fill="#002346"></path>
    </g>
    <g>
      <path d="M630.9,298.7v10.85h14.79l3.83-20.47s-2.31,2.38-4.55,1.36l-14.07,8.26Z" fill="#f2b3c1"></path>
      <path d="M646.1,310.04h-15.69v-11.62l14.53-8.53,.23,.11c1.89,.86,3.97-1.24,3.99-1.26l1.13-1.16-4.2,22.47Zm-14.71-.98h13.89l3.51-18.77c-.93,.61-2.33,1.22-3.78,.69l-13.62,7.99v10.08Z" fill="#002346"></path>
    </g>
    <g>
      <path d="M697.57,366.12c-.08,.54-.2,1.08-.36,1.6-2.63,8.88-15.2,12.85-15.2,12.85-1.48,14.82-4.07,15.93-4.07,15.93-4.82,11.12-44.1,8.15-44.1,8.15-11.86-2.22-16.3-13-16.3-13-11.34-1.79-15.47-11-16.65-14.56-.27-.81-.38-1.67-.32-2.53l.11-1.73,1.67-25.64c1.11-29.64,20-31.5,20-31.5,1.49-6.3,8.55-6.17,8.55-6.17h14.79l34.59,9.9c4.1,1.16,7.29,4.39,8.4,8.5,5.56,13,8.89,38.2,8.89,38.2Z" fill="#f69074"></path>
      <path d="M645.15,405.53c-6.14,0-10.8-.34-11.34-.38-11-2.06-15.82-11.37-16.61-13.05-11.33-1.92-15.51-11.01-16.78-14.85-.29-.88-.41-1.79-.34-2.72l1.78-27.37c1.03-27.47,17.46-31.45,20.1-31.91,1.73-6.29,8.9-6.23,8.96-6.23l14.92,.02,34.59,9.9c4.25,1.2,7.6,4.59,8.75,8.85,5.5,12.85,8.87,38.01,8.9,38.26v.07s0,.07,0,.07c-.08,.56-.21,1.13-.38,1.68-2.47,8.34-13.19,12.38-15.21,13.07-1.29,12.63-3.43,15.33-4.14,15.89-3.41,7.4-21.14,8.7-33.19,8.7Zm-14.29-95.51c-.65,0-6.68,.15-8.02,5.79l-.08,.35-.35,.04c-.18,.02-18.47,2.2-19.55,31.02l-1.78,27.38c-.06,.8,.04,1.58,.3,2.34,1.23,3.7,5.26,12.49,16.25,14.22l.28,.04,.11,.26c.04,.11,4.49,10.56,15.93,12.7,.33,.02,38.93,2.81,43.55-7.86l.08-.18,.18-.08h0s2.38-1.61,3.77-15.52l.03-.33,.31-.1c.12-.04,12.35-4,14.87-12.51,.15-.48,.26-.97,.33-1.46-.2-1.47-3.52-25.54-8.84-38-1.08-3.99-4.17-7.11-8.08-8.21l-34.52-9.88h-14.77Z" fill="#002346"></path>
    </g>
    <g>
      <rect x="617.55" y="243.05" width="36" height="56" rx="18" ry="18" transform="translate(16.39 -35.61) rotate(3.25)" fill="#f2b3c1"></rect>
      <path d="M635,299.52c-.35,0-.7-.01-1.06-.03-10.18-.58-17.99-9.33-17.41-19.51l1.13-19.97c.58-10.18,9.32-17.98,19.51-17.41,10.18,.58,17.99,9.33,17.41,19.51l-1.13,19.97c-.56,9.82-8.73,17.44-18.45,17.44Zm-1-1.01c9.64,.57,17.93-6.85,18.47-16.49l1.13-19.97c.55-9.64-6.85-17.92-16.49-18.47-9.63-.57-17.93,6.85-18.47,16.49l-1.13,19.97c-.55,9.64,6.85,17.93,16.49,18.47Z" fill="#002346"></path>
    </g>
    <g>
      <path d="M679.55,321.51c-1.46,2.94-5,6.28-13.84,6.07-1.79-.07-3.55,.47-5,1.52-1.27,.91-2.7,1.59-4.21,2-4.38,1.17-12.53,2.32-16.27-3.66,0,0-5.17-8.2,3.49-20.71,1.87-5.22,3.04-10.66,3.48-16.19v-10.42s-4.45-.34-1.48-7.75c1.53-3.16,.7-6.96-2-9.2,0,0-10.08-9.69-11.45-18.4,0,0-10.09,4.23-14.72,18.28,0,0-8-27,21.87-21.81,0,0,30-1.85,28.53,14.83,0,0,10.83,3.51,7.52,16.78-.69,2.59-1.92,5.01-3.6,7.1-1.35,1.73-2.62,4.6,.16,7.61,5.55,5.63,7.16,14.04,4.07,21.32,0,0-3.7,6.47,4.45,8.32,.02,1.5-.32,2.97-1,4.31Z" fill="#002346"></path>
      <path d="M649.88,332.55c-3.78,0-7.72-1.08-10.07-4.84-.22-.34-5.23-8.6,3.46-21.21,1.84-5.16,2.99-10.54,3.43-16v-9.97c-.51-.14-1.33-.51-1.9-1.42-.94-1.51-.78-3.84,.45-6.93,1.44-2.99,.68-6.53-1.85-8.63-.43-.41-9.76-9.46-11.5-18.04-2.17,1.14-10,5.95-13.87,17.7l-.5,1.52-.45-1.53c-.14-.48-3.39-11.75,2.56-18.44,3.8-4.27,10.47-5.62,19.81-4.01,1.35-.08,18.74-.92,25.98,6.51,2.23,2.29,3.26,5.15,3.05,8.49,1.92,.8,10.51,5.1,7.48,17.23-.72,2.68-1.96,5.13-3.7,7.29-1.31,1.68-2.36,4.26,.14,6.96,5.7,5.78,7.34,14.36,4.16,21.85-.04,.08-1.41,2.53-.47,4.66,.63,1.43,2.17,2.43,4.57,2.98l.38,.09v.39c.02,1.57-.34,3.14-1.05,4.54-1.5,3.01-5.2,6.55-14.3,6.34-1.69-.07-3.34,.44-4.69,1.42-1.33,.95-2.8,1.65-4.37,2.08-1.84,.49-4.26,.96-6.75,.96Zm-17.21-88.49l.1,.63c1.33,8.44,11.2,18.02,11.3,18.12,2.86,2.37,3.73,6.4,2.1,9.78-1.37,3.43-1.04,5.16-.52,5.99,.58,.94,1.58,1.04,1.59,1.04l.46,.04v10.88c-.45,5.61-1.63,11.1-3.51,16.36l-.06,.12c-8.37,12.1-3.53,20.08-3.48,20.16,3.56,5.7,11.38,4.61,15.72,3.44,1.46-.4,2.82-1.05,4.05-1.92,1.53-1.11,3.41-1.68,5.31-1.61,6.8,.18,11.41-1.84,13.37-5.79h0c.58-1.15,.9-2.42,.94-3.7-2.51-.64-4.14-1.8-4.87-3.46-1.14-2.6,.42-5.38,.49-5.5,2.99-7.06,1.44-15.22-3.99-20.72-3.14-3.4-1.47-6.64-.2-8.27,1.65-2.05,2.83-4.38,3.51-6.92,3.15-12.64-6.77-16.04-7.19-16.18l-.38-.12,.03-.4c.28-3.2-.64-5.92-2.74-8.08-7.05-7.24-25.08-6.22-25.26-6.21h-.06s-.06,0-.06,0c-9.01-1.56-15.38-.33-18.95,3.68-4.3,4.83-3.4,12.52-2.74,15.86,4.84-12.81,14.02-16.79,14.42-16.96l.59-.25Z" fill="#002346"></path>
    </g>
    <g>
      <ellipse cx="647.2" cy="276.36" rx="5.56" ry="4.08" transform="translate(136.2 760.22) rotate(-66.56)" fill="#f2b3c1"></ellipse>
      <path d="M646.23,282.21c-.5,0-.98-.1-1.44-.3-2.31-1-3.11-4.31-1.79-7.37,.63-1.46,1.65-2.65,2.86-3.36,1.26-.74,2.59-.87,3.74-.37,2.31,1,3.11,4.31,1.79,7.37-.63,1.46-1.65,2.65-2.86,3.36-.76,.44-1.54,.67-2.3,.67Zm1.94-10.71c-.58,0-1.2,.18-1.8,.53-1.04,.6-1.91,1.63-2.46,2.9h0c-1.11,2.56-.54,5.29,1.28,6.08,.85,.37,1.86,.26,2.85-.32,1.04-.6,1.91-1.64,2.46-2.9,1.11-2.56,.54-5.29-1.28-6.08-.33-.14-.68-.21-1.05-.21Z" fill="#002346"></path>
    </g>
    <path d="M617.54,392.23c-.28,0-.5-.22-.5-.5v-38.91c0-.28,.22-.5,.5-.5s.5,.22,.5,.5v38.91c0,.28-.22,.5-.5,.5Z" fill="#002346"></path>
    <path d="M682.01,381.07c-.28,0-.5-.22-.5-.5v-27.75c0-.28,.22-.5,.5-.5s.5,.22,.5,.5v27.75c0,.28-.22,.5-.5,.5Z" fill="#002346"></path>
    <path d="M656.28,625.58s-.08,0-.12-.01c-8.51-2.02-9.52-8.94-9.53-9.01-.04-.27,.16-.52,.43-.56,.28-.04,.52,.16,.56,.43,.04,.26,.95,6.31,8.77,8.17,.27,.06,.43,.33,.37,.6-.05,.23-.26,.38-.49,.38Z" fill="#002346"></path>
    <path d="M616.4,628.87s-.08,0-.12-.01c-7.64-1.89-7.73-8.24-7.73-8.3,0-.28,.22-.5,.5-.5h0c.27,0,.5,.22,.5,.5,0,.23,.11,5.64,6.97,7.33,.27,.07,.43,.34,.37,.61-.06,.23-.26,.38-.48,.38Z" fill="#002346"></path>
    <path d="M607.4,628.87s-.08,0-.12-.01c-7.64-1.89-7.73-8.24-7.73-8.3,0-.28,.22-.5,.5-.5h0c.27,0,.5,.22,.5,.5,0,.23,.11,5.64,6.97,7.33,.27,.07,.43,.34,.37,.61-.06,.23-.26,.38-.48,.38Z" fill="#002346"></path>
    <path d="M649.71,415.92c-15.68,0-28.85-5.94-29.03-6.03-.25-.12-.36-.41-.25-.66,.11-.25,.41-.36,.66-.25,.24,.11,24.25,10.93,45.79,3.09,.26-.09,.55,.04,.64,.3,.09,.26-.04,.55-.3,.64-5.83,2.12-11.84,2.9-17.52,2.9Z" fill="#002346"></path>
    <g>
      <polygon points="458.7 163.98 326.39 163.36 326.4 159.29 458.7 159.91 458.7 163.98" fill="#e6e7e8"></polygon>
      <path d="M459.2,164.48h-.5s-132.81-.62-132.81-.62v-5.07s.51,0,.51,0l132.8,.62v5.07Zm-132.31-1.62l131.31,.62v-3.07l-131.3-.62v3.07Z" fill="#002346"></path>
    </g>
    <g>
      <polygon points="458.7 177.36 326.39 176.74 326.4 172.67 458.7 173.28 458.7 177.36" fill="#e6e7e8"></polygon>
      <path d="M459.2,177.86h-.5s-132.81-.62-132.81-.62v-5.07s.51,0,.51,0l132.8,.61v5.08Zm-132.31-1.62l131.31,.62v-3.08l-131.3-.61v3.07Z" fill="#002346"></path>
    </g>
    <g>
      <rect x="430.47" y="162.03" width="4.07" height="52.35" transform="translate(242.19 619.79) rotate(-89.72)" fill="#e6e7e8"></rect>
      <path d="M459.17,190.87h-.5s-52.85-.26-52.85-.26l.02-5.07h.5s52.85,.26,52.85,.26l-.02,5.07Zm-52.34-1.25l51.35,.25,.02-3.07-51.35-.25-.02,3.07Z" fill="#002346"></path>
    </g>
    <g>
      <polygon points="464.63 345.66 332.32 345.06 332.33 340.99 464.65 341.61 464.63 345.66" fill="#e6e7e8"></polygon>
      <path d="M465.13,346.16h-.5s-132.81-.6-132.81-.6v-5.07s.51,0,.51,0l132.82,.62-.02,5.05Zm-132.31-1.6l131.31,.6,.02-3.05-131.32-.62v3.07Z" fill="#002346"></path>
    </g>
    <g>
      <rect x="435.76" y="329.75" width="4.07" height="53.69" transform="translate(79.06 792.63) rotate(-89.72)" fill="#e6e7e8"></rect>
      <path d="M465.12,359.26h-.5s-54.19-.27-54.19-.27l.02-5.07h.5s54.19,.27,54.19,.27l-.02,5.07Zm-53.68-1.26l52.69,.26v-3.07s-52.67-.26-52.67-.26l-.02,3.07Z" fill="#002346"></path>
    </g>
    <g>
      <rect x="123.55" y="225.05" width="40" height="62" rx="20" ry="20" fill="#f2b3c1"></rect>
      <path d="M143.55,287.54c-11.3,0-20.49-9.19-20.49-20.49v-22c0-11.3,9.19-20.49,20.49-20.49s20.49,9.19,20.49,20.49v22c0,11.3-9.19,20.49-20.49,20.49Zm0-62c-10.76,0-19.51,8.75-19.51,19.51v22c0,10.76,8.75,19.51,19.51,19.51s19.51-8.75,19.51-19.51v-22c0-10.76-8.75-19.51-19.51-19.51Z" fill="#002346"></path>
    </g>
    <g>
      <path d="M123.71,279.55s-33.08-16.44-14.55-35.34c0,0-7.78-6.3,2.59-7,0,0-2.59-11.12,4.45-10.75,0,0-1.11,5.83,1.11,6.25,0,0,20.38-25.15,27.79-8.47,0,0,21.49-.74,18.16,17.79,0,0-5.56-3.71-7,.37,0,0-2.22,3.59-6.86,.13,0,0-4.4,4.74-8,3.6-.96-.7-1.76-1.59-2.34-2.63-.34-.62-1.11-.87-1.75-.57-3.84,1.78-15.35,7.69-12.2,13.23l3.21,9.24c-1.26,.64-2.74-2.36-4-3l-1,11.86,.39,5.29Z" fill="#002346"></path>
      <path d="M124.27,280.39l-.79-.39c-.74-.37-18.18-9.17-20.27-21.52-.83-4.92,.92-9.7,5.21-14.24-.96-.87-3.08-3.06-2.47-4.98,.44-1.4,2.14-2.23,5.18-2.51-.32-1.69-1.02-6.69,1.13-9.26,.93-1.11,2.26-1.63,3.94-1.54l.57,.03-.11,.56s-.27,1.44-.27,2.89c0,.86,.1,2.27,.73,2.68,1.79-2.15,13.03-15.15,21.6-14.02,2.85,.38,5.1,2.27,6.67,5.64,.03,0,.06,0,.09,0,2.05,0,10.81,.33,15.58,5.84,2.71,3.12,3.6,7.35,2.67,12.55l-.13,.75-.63-.42s-3-1.97-4.91-1.33c-.63,.21-1.07,.69-1.34,1.46l-.05,.1c-.04,.06-.92,1.46-2.72,1.8-1.39,.26-2.9-.16-4.51-1.27-1.1,1.08-4.88,4.47-8.21,3.42l-.14-.07c-1.03-.75-1.86-1.69-2.48-2.79-.22-.39-.7-.55-1.1-.36-2.53,1.17-10.88,5.33-12.26,9.64-.33,1.03-.24,1.97,.28,2.89l3.39,9.73-.39,.2c-1.12,.58-2.17-.62-3.09-1.68-.24-.28-.48-.56-.72-.79l-.92,10.93,.46,6.09Zm-8.66-53.43c-1.1,.05-1.94,.44-2.56,1.18-2.24,2.67-.83,8.89-.81,8.96l.13,.57-.59,.04c-2.86,.19-4.54,.83-4.86,1.86-.45,1.43,1.69,3.56,2.56,4.26l.43,.35-.39,.39c-4.32,4.41-6.1,9.03-5.31,13.75,1.75,10.4,15.48,18.49,18.94,20.38l-.32-4.39,1.06-12.68,.66,.34c.57,.29,1.1,.9,1.66,1.55,.45,.51,.97,1.12,1.4,1.37l-2.97-8.55c-.62-1.07-.74-2.31-.33-3.6,1.47-4.58,9.43-8.69,12.79-10.24,.88-.4,1.93-.06,2.4,.78,.53,.95,1.25,1.77,2.13,2.42,3.24,.93,7.36-3.44,7.41-3.49l.31-.33,.36,.27c1.51,1.12,2.88,1.58,4.08,1.35,1.23-.23,1.9-1.11,2.03-1.3,.38-1.03,1.03-1.71,1.95-2.01,1.77-.59,4.03,.45,5.13,1.06,.68-4.56-.18-8.25-2.56-11-4.99-5.76-15.11-5.5-15.21-5.49h-.34s-.14-.3-.14-.3c-1.43-3.21-3.45-5.02-6.02-5.36-8.6-1.11-20.8,13.79-20.92,13.94l-.19,.23-.29-.06c-.47-.09-.86-.35-1.15-.78-.93-1.37-.65-4.2-.46-5.46Z" fill="#002346"></path>
    </g>
    <g>
      <circle cx="123.24" cy="268.29" r="5.93" fill="#f2b3c1"></circle>
      <path d="M123.24,274.71c-3.54,0-6.42-2.88-6.42-6.42s2.88-6.42,6.42-6.42,6.42,2.88,6.42,6.42-2.88,6.42-6.42,6.42Zm0-11.86c-3,0-5.44,2.44-5.44,5.44s2.44,5.44,5.44,5.44,5.44-2.44,5.44-5.44-2.44-5.44-5.44-5.44Z" fill="#002346"></path>
    </g>
    <path d="M137.52,314.02s-.07,0-.11-.01c-11.09-2.54-16.58-10.27-16.81-10.6-.16-.23-.1-.54,.12-.7s.54-.1,.7,.12c.05,.08,5.25,7.39,15.46,10.02-.18-1.59-.03-5.35,4.06-10.08,.18-.21,.5-.23,.71-.05s.23,.5,.05,.71c-4.96,5.73-3.71,9.9-3.7,9.94,.05,.17,.01,.36-.11,.49-.1,.1-.23,.16-.37,.16Z" fill="#002346"></path>
    <path d="M155.48,307.46c-1.06,0-1.83-.13-1.9-.14-.27-.05-.45-.31-.41-.58s.31-.46,.58-.41c.03,0,3.28,.55,5.53-.7,.23-.12,.29-.33,.31-.45,.03-.21-.02-.41-.16-.57-1.06-1.17-2.36-3.44-2.57-7.59-.01-.28,.2-.51,.48-.52,.27-.05,.51,.2,.52,.47,.19,3.86,1.36,5.92,2.31,6.97,.34,.38,.49,.89,.41,1.4-.08,.5-.38,.92-.81,1.16-1.39,.77-3.04,.95-4.29,.95Z" fill="#002346"></path>
    <path d="M188.08,370.4c-.22,0-.41-.14-.48-.36-4.93-16.51-6.68-44.32-6.7-44.6-.02-.28,.19-.51,.47-.53,.29-.03,.51,.19,.53,.47,.02,.28,1.76,27.97,6.66,44.37,.08,.26-.07,.54-.34,.62-.05,.01-.1,.02-.14,.02Z" fill="#002346"></path>
    <path d="M186.64,364.91c-.11,0-.21-.03-.3-.1-.22-.17-.26-.48-.09-.7,4.91-6.4,2.48-28.44,2.45-28.66-.03-.27,.17-.52,.44-.55,.27-.03,.52,.17,.55,.44,.1,.92,2.5,22.66-2.65,29.38-.1,.13-.25,.2-.4,.2Z" fill="#002346"></path>
    <path d="M163.24,622.67h0c-.28,0-.5-.23-.5-.5l.87-195.49c0-.28,.22-.5,.5-.5h0c.28,0,.5,.23,.5,.5l-.87,195.49c0,.28-.22,.5-.5,.5Z" fill="#002346"></path>
  </g>
  <g>
    <ellipse cx="635.5" cy="254.5" rx="14.5" ry="10.5" fill="#002346"></ellipse>
    <path d="M635.5,265.5c-8.27,0-15-4.93-15-11s6.73-11,15-11,15,4.93,15,11-6.73,11-15,11Zm0-21c-7.72,0-14,4.49-14,10s6.28,10,14,10,14-4.49,14-10-6.28-10-14-10Z" fill="#002346"></path>
  </g>
  <g>
    <ellipse cx="139" cy="245.5" rx="19.5" ry="11" fill="#002346"></ellipse>
    <path d="M139,257c-11.03,0-20-5.16-20-11.5s8.97-11.5,20-11.5,20,5.16,20,11.5-8.97,11.5-20,11.5Zm0-22c-10.48,0-19,4.71-19,10.5s8.52,10.5,19,10.5,19-4.71,19-10.5-8.52-10.5-19-10.5Z" fill="#002346"></path>
  </g>
</svg>
